<svg xmlns="http://www.w3.org/2000/svg" viewBox="0 0 253.31 180.22"><defs><style>.a{fill:#848482;}</style></defs><path class="a" d="M91.22,82.58c-3.82-1-10.15,5.52-12.82,10.8-1.65,3.26-2.37,7.36.56,8.42S86.86,97.52,88,96s3.09-4.67,3.09-4.67l1-.21c.38-.08,1-.26,1-.26s-.73,1.28-1.37,2.6C91,95,88.86,100.2,92.9,101.76c3.87,1.49,9.38-4.72,9.66-4.84,0,0-1.63,4.23.91,4.88,2.8.72,5.86-2.86,5.86-2.86s-.64,2.69,1.53,2.94c3.9.45,10.79-9.52,10.79-9.52h-1.38s-3.51,4.52-5.2,5.45-1.08-.73-.62-1.47c.59-.94,8-13.39,8-13.39h-3.95l-.46.72a2.65,2.65,0,0,0-2.18-1.15c-4,.26-8.67,6.57-10.74,9.35S98.61,100,96.26,99c-2.56-1,0-5.77,1.68-8.55,1.84-3,5.09-6,6.38-6.06,1.58,0,1,1.41,1,1.41a2.38,2.38,0,0,0-2,.93c-.62.77-1.11,1.88-.54,2.49.94,1,2.15,0,2.87-1.13,2.27-3.45.61-5.28-1.16-5.54-3.79-.57-7.28,4.28-9.93,6.09-1.83,1.26-2.59,1.15-2.59,1.15s3.18-6.25-.67-7.23m17.12,11.19a48.65,48.65,0,0,1,4.73-6.64c2-2.53,3-2.74,3.65-2.71a.64.64,0,0,1,.58.56s-4.4,7.68-6,9.87c-.52.72-1,1.32-1.36,1.77A4.49,4.49,0,0,1,108,98.18a1.09,1.09,0,0,1-.76-.07c-.72-.45-.17-2,1.08-4.34M89.65,91.28a38.62,38.62,0,0,1-2.38,3.55C86.13,96.29,84,98.5,82.77,98c-2-.72.13-5,1.54-7S85.93,88.65,86,88.6s.08-.11.12,0a4.36,4.36,0,0,0,1.45,1.61,8.51,8.51,0,0,0,2,.93c.07,0,.12.05.07.18M91.28,88a16.45,16.45,0,0,1-.75,1.7.34.34,0,0,1-.39.15c-.3,0-2.7-.56-2.69-2.48s2.66-3.71,3.7-2.93.5,2.6.13,3.56m85.62,5.42A2.76,2.76,0,0,0,174.74,92c-2.34,0-4.68,1.82-7.4,4.92a89.43,89.43,0,0,0-5.31,7.32s-2.53,3.91-3.81,3.6c-2.19-.52,1.84-8.61,1.84-8.61a46.92,46.92,0,0,0,4.85-3.61c1.73-1.46,3.71-3.45,5.53-5.3a63.29,63.29,0,0,0,5.48-6.47c-.48.07-1,.12-1.46.15a65.55,65.55,0,0,1-5,5.73,69.53,69.53,0,0,1-5.83,5.44,18.75,18.75,0,0,1-2.37,1.69A85.75,85.75,0,0,1,168.64,85c4.59-6.24,11-12,10.51-9.29A12.46,12.46,0,0,1,177.77,79a14.7,14.7,0,0,0,1.52-.39c1.1-2.29,1.48-4.17.65-4.71-3.36-2.22-11.92,7-16.22,12.28a82.54,82.54,0,0,0-8.17,13.48,8,8,0,0,1-1.42.42,1.59,1.59,0,0,1-.74,0,.06.06,0,0,1,0,0s3.77-7-.09-8-10.2,6-12.49,10.8c-1.58,3.29-2.47,7.44.23,8.43,2.93,1.07,7.9-4.28,9.07-5.84a47.26,47.26,0,0,0,2.63-4.13s.72,0,1.11-.1c.75-.11,1.1-.2,1.1-.2s-.49,1.27-1,2.88c-1,3-1.86,7.28,1.65,7.49,2.24.12,5.53-3.92,5.53-3.92s-.88,3.6,2,3.92c2.15.23,5.27-3.09,5.27-3.09s-.68,2.86,1.5,3.12c1.86.21,4.5-2,6.67-4.37a46,46,0,0,0,4.18-5.5h-1.37s-3,4.62-5.19,5.86c-1.75,1-1.15-.62-.62-1.46s8-13.47,8-13.47h-3.95Zm-25.51,7.72a26.29,26.29,0,0,1-2.1,3.19c-1.14,1.46-3.23,3.65-4.48,3.19-2-.72.2-5,1.61-7.07A25.82,25.82,0,0,1,148,98.23c0-.06.08-.11.11,0a6.07,6.07,0,0,0,1.37,1.65,8.5,8.5,0,0,0,1.82,1.16c.07,0,.12,0,.06.18m.89-1.55c-.13.21-.22.22-.48.15a3.26,3.26,0,0,1-2.31-2.91c0-1.87,2.66-3.71,3.69-2.93s.51,2.61.14,3.56a15.41,15.41,0,0,1-1,2.13M176,94.86c-.72,1.25-4.35,7.44-5.78,9.41-.52.72-1,1.37-1.35,1.82a4.38,4.38,0,0,1-1.88,1.54,1.09,1.09,0,0,1-.76-.08c-.71-.44-.22-2.13,1-4.42a33,33,0,0,1,4.65-6.6c2.18-2.41,3-2.53,3.62-2.5a.65.65,0,0,1,.59.56,1,1,0,0,1-.12.27m8.52-18.07c-2.77,1.79-6.62,3.41-10.32,3-.93,1-1.93,2.09-2.94,3.31,6.42,1.27,12-2.71,15-6.09a19.84,19.84,0,0,0,2.78-4,25,25,0,0,1-4.53,3.73M129.08,83h-3.76l-2.11,3.44H127ZM138.83,92c-2,.16-5.44,1.92-7.34,5.77a15.93,15.93,0,0,0-1.9,6.22,19.51,19.51,0,0,1,2.53-2.24,11.42,11.42,0,0,1,2.67-1.56,13.48,13.48,0,0,1,1-2.88c.69-1.44,1.78-2.94,3.13-3.28,2.74-.69,1.42,4.31-.58,7.57-1.08,1.75-4.91,6.78-8.22,6.78s-3.94-3.18-3.24-6.16,1.65-6.75,6.47-13.62a43.58,43.58,0,0,1,13-12.65c3.1-1.75,4.36-1,4.36-1a26.88,26.88,0,0,0-6.2,5.37c-2.16,2.8-3.44,6-2.44,7.5s4.29,1.5,8-3.83,2.72-8.39,2.72-8.39a4.63,4.63,0,0,1,.74-.17c1.78-.24,3.2.22,5.4,1.35s4.52,3.09,7.55,4.64c.92-1,1.94-2.06,3-3.1-4.09-2-7.19-4.83-11.2-5.1a14,14,0,0,0-6.25,1s-1.06-1.45-4.35-1-13.41,4.71-22,18.5c-7.79,12.47-4.12,19.62,1.48,19.54,6.07-.09,11.83-6.84,13.79-12.41s-.35-7.07-2.13-6.92m11.92-11.59a15.18,15.18,0,0,1-4,5.55c-1.9,1.7-2.94,1.64-3.39,1.3-1.18-.9.4-4.27,3.14-7.29a15.81,15.81,0,0,1,5.08-4s.38,1.41-.83,4.39M111.94,107.3a17.29,17.29,0,0,0-9-2.47c-9.09-.07-19,4.35-25.71,4.4-7.91.08-8.31-6-7.72-9.36,1.26-7.2,6.37-14.07,9.66-17.7s6.72-6.43,9.58-7.15,2.6,1.46,2.25,1.76a3.21,3.21,0,0,0-1.45.35,3.16,3.16,0,0,0-1.49,2.44c-.09,1.9,2.37,2.24,4.15-1.74a3.21,3.21,0,0,0-2.31-4.74c-2.19-.24-5.54.52-9.53,3.09-7,4.46-16.24,14.37-16.48,25.38-.14,6.27,4,9.81,9.59,9.81,5.86,0,13.27-3.45,20.72-3.54,4.62,0,7.6,1.58,9.12,4.21a6.08,6.08,0,0,1,4.85-2.63,16.49,16.49,0,0,1,10,2.9c-1-1.44-3.82-3.56-6.18-5m67.63.31a1.95,1.95,0,0,0-1.93,1.92,1.93,1.93,0,0,0,1.93,1.94,1.93,1.93,0,0,0,1.92-1.94,1.8,1.8,0,0,0-.56-1.35,1.84,1.84,0,0,0-1.36-.57m1.17,3.12a1.63,1.63,0,0,1-1.17.48,1.62,1.62,0,0,1-1.17-.48,1.69,1.69,0,0,1-.49-1.2,1.63,1.63,0,0,1,.49-1.17,1.67,1.67,0,0,1,2.34,0,1.59,1.59,0,0,1,.48,1.17,1.64,1.64,0,0,1-.48,1.2m-.3-1.64a.52.52,0,0,0-.33-.53,1.59,1.59,0,0,0-.58-.08h-.74v2.11h.38v-.83h.29a.7.7,0,0,1,.41.08c.14.07.2.23.2.47v.24s0,0,0,0h.35l0,0a.31.31,0,0,1,0-.12s0-.1,0-.14v-.16a.64.64,0,0,0-.12-.33.47.47,0,0,0-.36-.2.75.75,0,0,0,.31-.11.46.46,0,0,0,.21-.42m-.58.37a1.49,1.49,0,0,1-.36,0h-.33v-.77h.31a.84.84,0,0,1,.45.09.32.32,0,0,1,.14.31.35.35,0,0,1-.21.33"/></svg>