<svg xmlns="http://www.w3.org/2000/svg" viewBox="0 0 253.31 180.22"><defs><style>.a{fill:#848482;}</style></defs><path class="a" d="M187.44,76.74h0a1.26,1.26,0,0,1,1.21,1.3,1.24,1.24,0,0,1-1.21,1.3,1.3,1.3,0,0,1,0-2.6m0,2.84a1.54,1.54,0,0,0,0-3.07h0a1.54,1.54,0,0,0,0,3.07m-.29-2.17h.19c.31,0,.43.15.43.29s-.19.3-.43.3h-.19Zm0,.78h.19a.33.33,0,0,1,.37.31,1.36,1.36,0,0,0,.1.42h.3a1.11,1.11,0,0,1-.11-.42c0-.24-.14-.38-.28-.4h0a.44.44,0,0,0,.32-.42.42.42,0,0,0-.15-.36,1,1,0,0,0-.53-.12,2.15,2.15,0,0,0-.48,0v1.7h.27Zm-66,19.34,1.89-11.7h.07l1.92,11.7Zm.33-21-6,32.32h3.87l1.35-8.34h2.19a2.56,2.56,0,0,0,2.45-1.21l1.56,9.55h3.87l-6-32.32Zm-12.81,0h-3.87v32.32h7.68l1.08-4.63h-4.89ZM142.83,96h-.07l-5.85-19.48H133.2v32.32h3.86V89.42h.09l5.9,19.43h3.65V76.53h-3.87Zm16.68,4.43c0,2.78-.82,4-3,4h-1.78V80.89h1.78c2.28,0,3,1.44,3,4Zm-2.92-23.91h-5.73v32.32h5.39c4.56,0,7.13-2.86,7.13-8.85V84.88c0-5.22-2.42-8.35-6.79-8.35m10.46,32.32h3.86V76.53h-3.86Zm12.24-11.32,1.89-11.7h.07l1.91,11.7Zm.33-21-6,32.32h3.87l1.35-8.34H181a2.56,2.56,0,0,0,2.45-1.21l1.55,9.55h3.88l-6-32.32ZM96.81,96h-.07L90.89,76.53H87.18v32.32h3.87V89.42h.08l5.92,19.43h3.64V76.53H96.81ZM67.63,80.89h6.58V76.53H63.76v32.32h3.87V95.05h5.66l.93-4.36H67.63Zm11,28h3.87V76.53H78.58Z"/></svg>