<?xml version="1.0" encoding="utf-8"?>
<!-- Generator: Adobe Illustrator 27.5.0, SVG Export Plug-In . SVG Version: 6.00 Build 0)  -->
<svg version="1.1" id="Layer_1" xmlns="http://www.w3.org/2000/svg" xmlns:xlink="http://www.w3.org/1999/xlink" x="0px" y="0px"
	 viewBox="0 0 253.3 180.2" style="enable-background:new 0 0 253.3 180.2;" xml:space="preserve">
<style type="text/css">
	.st0{fill:#848482;}
</style>
<g>
	<g>
		<g>
			<path class="st0" d="M149.4,90.9L149.4,90.9l-0.6-0.1c0,0.6,0.4,1,0.9,1c0.6,0,1-0.4,1-1c0-0.4-0.1-0.8-0.5-0.8l0,0
				c0.4-0.1,0.4-0.5,0.4-0.8c0-0.5-0.4-0.9-0.9-0.9c-0.6,0-0.8,0.5-0.8,1h0.6v-0.1c0-0.1,0-0.4,0.3-0.4c0.3,0,0.3,0.3,0.3,0.4
				c0,0.4-0.1,0.5-0.5,0.5v0.6c0.4,0,0.5,0.1,0.5,0.5c0,0.3,0,0.5-0.3,0.5C149.5,91.2,149.4,91,149.4,90.9"/>
			<polygon class="st0" points="148.2,88.2 146.4,88.2 146.4,88.8 147.3,88.8 146.3,91.7 147,91.7 			"/>
			<path class="st0" d="M145,89.8L145,89.8c0.4-0.1,0.5-0.4,0.5-0.8c0-0.5-0.4-0.9-0.9-0.9s-0.9,0.4-0.9,0.9c0,0.4,0.1,0.6,0.5,0.8
				l0,0c-0.4,0.1-0.6,0.5-0.6,0.9c0,0.5,0.4,1,1,1s1-0.4,1-1C145.5,90.3,145.4,90,145,89.8 M144.5,88.7c0.1,0,0.3,0.3,0.3,0.4
				c0,0.1,0,0.4-0.3,0.4c-0.1,0-0.1-0.3-0.1-0.4C144.4,89,144.4,88.7,144.5,88.7 M144.5,91.2c-0.3,0-0.3-0.3-0.3-0.5
				c0-0.1,0-0.5,0.3-0.5c0.3,0,0.3,0.4,0.3,0.5C144.9,90.8,144.8,91.2,144.5,91.2"/>
			<polygon class="st0" points="142.6,88.2 141.7,88.2 141.7,88.8 141.9,88.8 141.9,91.7 142.6,91.7 			"/>
		</g>
		<g>
			<polygon class="st0" points="103.6,88.2 102.1,88.2 102.1,91.7 103.6,91.7 103.6,91 102.9,91 102.9,90.3 103.5,90.3 103.5,89.6 
				102.9,89.6 102.9,88.8 103.6,88.8 			"/>
			<path class="st0" d="M110.3,90.9c-0.3,0-0.4,0.3-0.4,0.4c0,0.3,0.3,0.4,0.4,0.4c0.3,0,0.4-0.3,0.4-0.4
				C110.9,91,110.6,90.9,110.3,90.9"/>
			<polygon class="st0" points="109.4,88.2 107.5,88.2 107.5,88.8 108,88.8 108,91.7 108.8,91.7 108.8,88.8 109.4,88.8 			"/>
			<path class="st0" d="M106.5,89v-0.6c-0.3-0.1-0.4-0.1-0.6-0.1c-0.6,0-1,0.5-1,1c0,0.5,0.3,0.8,0.6,1c0.3,0.1,0.4,0.3,0.4,0.5
				c0,0.3-0.1,0.4-0.4,0.4s-0.4-0.1-0.5-0.1v0.6c0.1,0.1,0.4,0.1,0.6,0.1c0.6,0,1.2-0.5,1.2-1c0-0.9-1.2-1-1.2-1.5
				c0-0.3,0.1-0.4,0.4-0.4C106.1,88.7,106.2,88.8,106.5,89"/>
		</g>
		<g>
			<path class="st0" d="M118.9,79.8l-4.4,13.5l0,0c0,0,0,0,0.1,0h0.1c0,0,0,0,0.1,0l11.5-8.4l11.5,8.4c0,0,0,0,0.1,0c0,0,0,0,0.1,0
				h0.1l0,0l-4.4-13.5l11.5-8.4l0,0c0,0,0,0,0-0.1v-0.1l0,0h-14.2l-4.8-13.5l0,0c0,0,0,0-0.1,0h-0.1l0,0l-4.4,13.5h-14.2l0,0
				c0,0,0,0,0,0.1v0.1l0,0L118.9,79.8z"/>
		</g>
	</g>
	<g>
		<g>
			<path class="st0" d="M186.3,100.2c-1.5,0-3,1.3-3,3c0,1.5,1.3,3,3,3c1.5,0,3-1.3,3-3C189.1,101.5,187.8,100.2,186.3,100.2z
				 M186.3,105.5c-1.3,0-2.3-1-2.3-2.3s1-2.3,2.3-2.3c1.3,0,2.3,1,2.3,2.3S187.6,105.5,186.3,105.5z"/>
			<path class="st0" d="M187.1,103.2c0.3-0.1,0.5-0.4,0.5-0.8c0-0.6-0.6-0.9-0.9-0.9s-1.5,0-1.5,0v3.1h0.8v-1.2c0,0,0,0,0.3,0
				c0.4,0,0.5,0.1,0.6,0.4c0.1,0.3,0.1,0.5,0.3,0.8c0.3,0,0.4,0,0.8,0c-0.1-0.1-0.3-0.4-0.3-0.8
				C187.4,103.4,187.3,103.3,187.1,103.2z M186.3,102.8c-0.3,0-0.5,0-0.5,0V102c0,0,0.3,0,0.5,0s0.5,0.1,0.5,0.4
				C186.8,102.5,186.5,102.8,186.3,102.8z"/>
		</g>
		<g>
			<path class="st0" d="M96.2,117.5c-0.8,0.8-1.9,1.7-3,1.9c-1,0.3-3.9,0.5-4.6-1.8c-0.1-0.5,0-0.6,0.4-0.8c0.6-0.3,2.4-0.8,4.3-1.4
				c1.7-0.6,3.2-1.4,3.6-1.7c0.9-0.5,1-1.3,0.6-2.2c-1.2-2.7-3.9-5.4-8.4-4.6c-3.5,0.6-6.1,3.9-6.1,7.5c0,4.5,2.7,7.2,6.2,8
				c3.2,0.8,7-0.8,8.6-3.4C98.5,118,96.7,116.8,96.2,117.5z M88.2,113.9c-0.4-0.9-0.1-3.9,1.5-4.4c1.7-0.6,2.7,0.3,3.2,2.1
				c0.1,0.6,0.1,1.3,0,1.5c-0.3,0.4-0.9,0.6-1.3,0.8l-1.3,0.4C88.9,114.6,88.4,114.8,88.2,113.9z"/>
			<path class="st0" d="M137.5,117.5c-0.8,0.8-1.9,1.7-3,1.9c-1,0.3-3.9,0.5-4.6-1.8c-0.1-0.5,0-0.6,0.4-0.8
				c0.6-0.3,2.4-0.8,4.3-1.4c1.7-0.6,3.2-1.4,3.6-1.7c0.9-0.5,1-1.3,0.6-2.2c-1.2-2.7-3.9-5.4-8.4-4.6c-3.5,0.6-6.1,3.9-6.1,7.5
				c0,4.5,2.7,7.2,6.2,8c3.2,0.8,7-0.8,8.6-3.4C140,118,138.2,116.8,137.5,117.5z M129.6,113.9c-0.3-0.5-0.1-1.8,0.3-3
				c0.3-0.6,0.6-1.3,1.3-1.5c0.8-0.3,1.4-0.3,1.9,0.1c0.6,0.4,1,1,1.3,1.9c0.1,0.6,0.1,1.3,0,1.5c-0.3,0.4-0.8,0.5-1.3,0.8
				c-0.5,0.3-1,0.4-1.3,0.4C130.5,114.6,129.9,114.8,129.6,113.9z"/>
			<path class="st0" d="M169.3,117.5c-0.8,0.8-1.9,1.7-3,1.9c-1,0.3-3.9,0.5-4.6-1.8c-0.1-0.5,0-0.6,0.4-0.8
				c0.6-0.3,2.4-0.8,4.3-1.4c1.7-0.6,3.2-1.4,3.6-1.7c0.9-0.5,1-1.3,0.6-2.2c-1.2-2.7-3.9-5.4-8.4-4.6c-3.5,0.6-6.1,3.9-6.1,7.5
				c0,4.5,2.7,7.2,6.2,8c3.2,0.8,7-0.8,8.6-3.4C171.6,118,169.8,116.8,169.3,117.5z M161.1,113.9c-0.3-0.5-0.1-1.8,0.3-3
				c0.3-0.6,0.6-1.3,1.3-1.5c0.8-0.3,1.4-0.3,1.9,0.1c0.6,0.4,1,1,1.3,1.9c0.1,0.6,0.1,1.3,0,1.5c-0.3,0.4-0.8,0.5-1.3,0.8
				c-0.5,0.3-1,0.4-1.3,0.4C162,114.6,161.5,114.8,161.1,113.9z"/>
			<path class="st0" d="M75.9,118.4c0,0.6-0.1,1.3-0.6,1.4l-1,0.5c-0.1,0.1-0.3,0.3-0.3,0.4v0.1l0.1,1.2c0,0.3,0.3,0.4,0.6,0.4h7.3
				c0.4,0,0.6,0,0.6-0.4l0.1-1.2c0-0.1,0-0.1,0-0.1c0-0.3,0-0.4-0.3-0.4l-1-0.5c-0.5-0.3-0.6-0.9-0.6-1.4v-12.6
				c0-0.6,0.1-1.3,0.6-1.4l1-0.5c0.1-0.1,0.3-0.3,0.3-0.4v-0.1l-0.1-0.9c0-0.3-0.3-0.4-0.6-0.4h-7c-0.4,0-0.6,0-0.6,0.4l-0.1,0.8
				c0,0.1,0,0.1,0,0.1c0,0.3,0,0.4,0.3,0.4l0.8,0.5c0.5,0.3,0.5,0.9,0.5,1.4v3.6c0,0.3-0.3,0.4-0.4,0.4h-4c-0.3,0-0.4-0.3-0.4-0.4
				v-3.5c0-0.6,0-1.2,0.5-1.4l0.8-0.5c0.1-0.1,0.3-0.3,0.3-0.4v-0.1l-0.1-0.9c0-0.3-0.3-0.4-0.6-0.4h-7.1c-0.4,0-0.6,0-0.6,0.4
				l-0.1,0.8c0,0.1,0,0.1,0,0.1c0,0.3,0,0.4,0.3,0.4l1,0.5c0.5,0.3,0.6,0.9,0.6,1.4v12.6c0,0.6-0.1,1.3-0.6,1.4l-1,0.5
				c-0.3,0.1-0.3,0.3-0.3,0.5v0.1l0.1,1.2c0,0.3,0.3,0.4,0.6,0.4h7.3c0.4,0,0.6,0,0.6-0.4l0.1-1.2c0-0.1,0-0.1,0-0.1
				c0-0.3,0-0.4-0.3-0.4l-0.9-0.5c-0.5-0.3-0.6-0.9-0.6-1.4v-5.2c0-0.3,0.3-0.4,0.4-0.4h4c0.3,0,0.4,0.3,0.4,0.4V118.4z"/>
			<g>
				<path class="st0" d="M104.8,104.1c0,1.4-1.2,2.6-2.6,2.6c-1.4,0-2.6-1.2-2.6-2.6s1.2-2.6,2.6-2.6
					C103.6,101.5,104.8,102.6,104.8,104.1z"/>
				<path class="st0" d="M99.3,122.4c-0.4,0-0.6,0-0.6-0.4l-0.1-1.2c0-0.1,0-0.1,0-0.1c0-0.1,0-0.3,0.3-0.4l0.8-0.4
					c0.4-0.3,0.6-0.8,0.6-1.4v-7.2c0-0.6-0.1-1.4-0.6-1.7l-0.5-0.4c-0.1-0.1-0.3-0.3-0.3-0.4v-0.1l0.1-0.9c0-0.3,0.3-0.4,0.6-0.4
					h4.9c0.3,0,0.4,0.3,0.4,0.4v10.6c0,0.6,0.3,1.2,0.6,1.4l0.8,0.4c0.1,0.1,0.3,0.3,0.3,0.4v0.1l-0.1,1.2c0,0.3-0.3,0.4-0.6,0.4
					h-6.4V122.4z"/>
			</g>
			<path class="st0" d="M114.2,108.3c0,0,0.3-0.1,0.8-0.4c1-0.5,3-1.3,4.5-0.8c1.4,0.4,2.6,1.4,2.6,4.1c0,3,0,6.8,0,8
				c0,0.4,0,0.5,0.1,0.5c0.3,0.1,0.6-0.3,0.9-0.4c0.4-0.1,0.5,0,0.8,0.3c0.1,0.3,0.4,0.5,0.3,0.9c-0.6,1.3-1.9,1.9-3.5,1.9
				c-1.4,0-3.4-0.9-3.4-3.1c0-2.2,0-6.7,0-7.7c0-1.2-0.9-1.5-1.5-1.5c-1,0.1-1.7,0.9-1.7,2.4v5.8c0,0.6,0.3,1.2,0.6,1.4l0.8,0.4
				c0.1,0.1,0.3,0.3,0.3,0.4v0.1l-0.1,1.3c0,0.3-0.3,0.4-0.6,0.4h-6.6c-0.4,0-0.6,0-0.6-0.4v-1.2c0-0.1,0-0.1,0-0.1
				c0-0.1,0-0.3,0.3-0.4l0.8-0.4c0.4-0.3,0.6-0.8,0.6-1.4v-7.2c0-0.6-0.1-1.4-0.6-1.7l-0.6-0.4c-0.1-0.1-0.3-0.3-0.3-0.4v-0.1
				l0.1-0.9c0-0.3,0.3-0.4,0.6-0.4h4.6c0.4,0,0.5,0.3,0.6,0.4L114.2,108.3z"/>
			<path class="st0" d="M178.2,108.3c0,0,0.3-0.1,0.8-0.4c1-0.5,3-1.3,4.5-0.8c1.4,0.4,2.6,1.4,2.6,4.1c0,3,0,6.8,0,8
				c0,0.4,0,0.5,0.1,0.5c0.3,0.1,0.6-0.3,0.9-0.4c0.4-0.1,0.5,0,0.8,0.3c0.1,0.3,0.4,0.5,0.3,0.9c-0.6,1.3-1.9,1.9-3.5,1.9
				c-1.4,0-3.4-0.9-3.4-3.1c0-2.2,0-6.7,0-7.7c0-1.2-0.9-1.5-1.5-1.5c-1,0.1-1.7,0.9-1.7,2.4v5.8c0,0.6,0.3,1.2,0.6,1.4l0.8,0.4
				c0.1,0.1,0.3,0.3,0.3,0.4v0.1l-0.1,1.2c0,0.3-0.3,0.4-0.6,0.4h-6.6c-0.4,0-0.6,0-0.6-0.4l-0.1-1c0-0.1,0-0.1,0-0.1
				c0-0.1,0-0.3,0.3-0.4l0.8-0.4c0.4-0.3,0.6-0.8,0.6-1.4v-7.2c0-0.6-0.1-1.4-0.6-1.7l-0.5-0.4c-0.1-0.1-0.3-0.3-0.3-0.4v-0.1
				l0.1-0.9c0-0.3,0.3-0.4,0.6-0.4h4.6c0.4,0,0.5,0.3,0.6,0.4L178.2,108.3z"/>
			<path class="st0" d="M154.4,118.6c0.4,0.5,0.8,1,1.2,1.2l0.8,0.4c0.1,0.1,0.3,0.3,0.3,0.4v0.1l-0.1,1.2c0,0.3-0.3,0.4-0.6,0.4h-4
				c-0.6,0-0.8-0.3-1-0.8l-3.4-6.1l-1.3,1.2v1.7c0,0.6,0.3,1.2,0.8,1.4l0.8,0.4c0.1,0.1,0.3,0.3,0.3,0.4v0.1l-0.1,1.4
				c0,0.3-0.3,0.4-0.6,0.4h-6.6c-0.4,0-0.6,0-0.6-0.4l-0.1-1.2c0-0.1,0-0.1,0-0.1c0-0.1,0-0.3,0.3-0.4l0.8-0.4
				c0.4-0.3,0.6-0.8,0.6-1.4v-12.9c0-0.6-0.1-1.2-0.6-1.4l-0.8-0.5c-0.1-0.1-0.3-0.3-0.3-0.4v-0.1l0.1-0.8c0-0.3,0.3-0.4,0.6-0.4
				h4.8c0.5,0,0.9,0.4,0.9,0.9v9.8l2.1-1.9c0.3-0.3,0.8-0.6,1-0.9c0.1-0.1,0.3-0.5,0-0.6l-0.8-0.4c-0.1-0.1-0.3-0.3-0.3-0.4v-0.1
				l0.1-1c0-0.3,0.3-0.4,0.6-0.4h5.7c0.4,0,0.5,0,0.6,0.4l0.1,1v0.1c0,0.3-0.3,0.4-0.4,0.4c0,0-0.4,0.1-0.8,0.4
				c-0.4,0.3-0.8,0.5-1.3,0.9l-2.2,2.1L154.4,118.6z"/>
		</g>
	</g>
</g>
</svg>
