<svg xmlns="http://www.w3.org/2000/svg" viewBox="0 0 253.31 180.22"><defs><style>.a{fill:#848482;}</style></defs><path class="a" d="M80.68,72,84,76.08l-2.4,1.16-1.31-5.06c-.07-.27-.22-.6-.1-.66s.42.38.51.48M76,65.22c-.45.23-.56.92.19.78.37,0,.68.28,1,1.37l4.1,15.83a2,2,0,0,1-.4,1.84c-.11.12,0,.41.14.35.68-.34,3-1.82,3.28-2,.17-.09,0-.31-.23-.26-.84.22-1-.23-1.27-1.08L82,78.88l3-1.57,1.85,2.29a1.32,1.32,0,0,1-.07,1.89c-.32.23-.08.59.23.43,1.9-1,3.5-1.92,5.47-2.91.3-.15.09-.52-.18-.49-.56.06-.74-.09-1.34-.82L79.48,63.56c-.78.39-2.25,1.06-3.44,1.66m103.83,7.66c-2.34,3.9-.52,12.45-1.48,14.05s-1.78,1.79-2.74,1.21a2.93,2.93,0,0,1-1.18-4.26c.1-.16.18-.38-.05-.52s-.23,0-.37.23l-2.35,3c0,.05-.31.32-.15.42s1-.25,1.4,0,.69,1.58,2.45,2.64c2.57,1.55,4.94-.35,5.9-1.94,2.94-4.89.19-11.46,1.88-14.26a1.58,1.58,0,0,1,2.17-.69c1.13.68,1.5,2.7,1.23,3.77-.13.46-.51,1.31-.35,1.41s.35-.16.57-.44L188.64,75c.17-.22.26-.46.14-.53-.3-.18-.19.19-.78-.18s-1.29-2.17-2.64-3c-1.94-1.17-4.78.35-5.49,1.53m-6.51-8c-.25.45,1,.59-.2,2.64L165.8,80.36c-1,1.83-2.06,1-2.32,1.44-.08.16,0,.33.25.45l7.24,4,2.46-2.35c.12-.11.21-.32,0-.41s-2.87,1.14-4.06.46c-.65-.37-.75-.59-.11-1.71l7.3-12.77c1.17-2.06,1.9-1.07,2.16-1.53.09-.15,0-.32-.24-.45l-4.65-2.64c-.23-.13-.43-.14-.52,0m9.39-1.62a1.8,1.8,0,0,0-1.64,2,1.78,1.78,0,0,0,.71,1.29c.06.73-1.09.36-1,1,0,.18.16.24.6.2,1-.08,3.46-.93,3.3-2.83a1.78,1.78,0,0,0-1.94-1.64M68.61,62.42c-1.72,1.08-3.2,2.21-4.81,3.22-.21.13-.21.5.1.42.72-.17,1.22.19,1.7,1l9.26,14.74c1,1.54,2.88,4.78.48,6.28-2,1.26-3.78,0-4.71-1.46s-.94-3.47.05-4.09c.41-.26.56-.15.87-.34-.2-.31-.24-.66-.41-.93a2.19,2.19,0,0,0-3.28-.55c-1.76,1.1-1.82,4.3-.48,6.46a6.36,6.36,0,0,0,8.83,2c4.83-3,3.32-8,1.51-10.93L69.28,64.69c-.69-1.09-.76-1.31-.43-2,.08-.18.06-.46-.24-.28m94.48-2.22c-.22.48,1,.5,0,2.66L157,76.23c-1,2.16-1.81,1.54-2,2-.08.16.06.31.29.42l7.46,3.08,1.81-2.41a.3.3,0,0,0-.09-.47c-.62.34-2.65,1.24-3.46.86s-.94-.6-.69-1.18l3.19-7a.9.9,0,0,1,1.31-.45c1,.46-.27,2.94.44,3.27.18.08.37-.11.53-.45l2.3-5.05c.13-.28.16-.62,0-.71-.62-.28-1.44,2.17-2.6,1.64a1,1,0,0,1-.52-1.37l1.75-3.75c.72-1.58.83-1.82,1.51-1.5A3.58,3.58,0,0,1,170,66.48c-.09.67.34,1.11.52.38l.9-3.18-7.79-3.54c-.23-.1-.43-.1-.5.06m-70-2.33c-.23.07-.25.71-.62.83-.67.22-2.18.42-2.93.66-3.44,1.12-3,6.86-1.83,10.31C90,76.49,93.89,79.41,97,78.39a3.77,3.77,0,0,0,2.14-4.7c-.36-1.1-1-2.26-2.17-2.45-.24-.07-.44,0-.15.42a6.77,6.77,0,0,1,.91,1.75c.2.63.37,3.56-.94,4-1.57.51-2.9-2.71-3.34-4.07l-3.14-9.65c-.31-1-1.11-3.24.65-3.81s3.15,2,3.39,1.9c.07,0,.14-.05.1-.21l-1.14-3.5c0-.1-.12-.22-.22-.19m62.14-.07c-.17.49,1.06.4.28,2.63L150.66,74.3c-.79,2.24-1.68,1.4-1.86,1.89-.06.17.08.31.33.4l5.08,1.65c.24.08.44.06.5-.11.17-.5-1.06-.4-.27-2.64l4.84-13.75c.79-2.23,1.69-1.39,1.86-1.89.06-.16-.07-.31-.32-.39l-5-1.77c-.25-.09-.45-.06-.51.11m-47.8-3-3.35.78c-.16,0-.23,0-.19.19s.52.15.63.62a2.3,2.3,0,0,1-.12,1.19l-1.88,5a1.43,1.43,0,0,1-.39.56c-.12,0-.19-.12-.22-.23l-1.23-5.32c-.23-1,.7-.93.6-1.33a.13.13,0,0,0-.18-.11L96,57.3c-.2,0-.25.09-.22.22.08.36.71,0,1,1.15l3.83,16.42c.26,1.1-.63,1.15-.53,1.58,0,.18.15.17.44.1l5.08-1.49c.12,0,.12-.11.09-.2-.07-.33-.9,0-1-.63l-1.89-8.14c-.06-.21.07-.59.3-.64s.35.27.46.53l3.7,8.44c.16.31.28.44.75.37l4.45-.71c.17,0,.21-.08.17-.25-.1-.45-1.1,0-1.58-1l-3.75-8.64c-.14-.28-.26-.34-.46-.29-.56.13-2.74.83-3-.3a14.22,14.22,0,0,1,1-3.23l1.1-2.88c1-2.83,1.77-2.57,1.7-2.87,0-.12-.08-.13-.17-.11M142,54.36c-.08.32.95.78.75,1.74l-3.43,16.48c-.31,1.33-.56.86-.66,1.26,0,.14.14.2.31.22l2.41.39c.21,0,.29,0,.33-.17.1-.36-.94,0-.41-2.5L143,63.65c.06-.3.27-.25.32,0l2,11.56a.3.3,0,0,0,.24.28l2.07.67c.12,0,.25,0,.27,0s-.16,0,0-.53l4.74-16.85c.46-1.69,1-1.14,1-1.4s-.1-.25-.43-.36l-2-.65c-.4-.15-.6-.17-.64,0s.58.18.23,1.51l-2.62,9.22c-.13.46-.44-.18-.64-1.13l-2-10.11c-.14-.75-.16-.87-.43-.94l-2.63-.67c-.29-.08-.48-.07-.52.1m-9.37,6.88.48,5.6-2.89-.28L132,61.18c.38-1.16.59-1,.68.06m-.92-7.92c0,.27.59.52.53,1.11a9.19,9.19,0,0,1-.5,1.75l-4.6,14.23c-.86,2.67-1.59,2.25-1.62,2.56s0,.22.23.22l3.46,0c.12,0,.21,0,.22-.14,0-.4-1.27-.12-.77-1.69l1.1-3.37,3.48.33.29,3.35c.15,1.74-.62,1.28-.66,1.69,0,.21.12.26.41.27l4.63.33c.23,0,.43,0,.45-.2,0-.38-.54.06-.74-1.79l-1.47-17.06c-.1-1.12-.12-1.31-.37-1.33L132,53.23c-.09,0-.2,0-.21.09m-9.07,1.2.39,9.91c.09,2.11-.68,7.17-2.35,7.23-.6,0-.93.11-1-.41l-.84-22.2c0-.36.18-.43.77-.45,2.15-.09,2.89,3.31,3,5.92m-4-7.43-3.41.14c-.88,0-1.39.12-1.39.36,0,.44.82-.05.9,2l.88,22.33c0,1.16-.88,1.1-.86,1.55,0,.09.15.16.53.14l4.56-.19c4.22-.16,7.81-5.5,7.42-15.63-.29-7.22-4.24-10.87-8.63-10.7"/><path class="a" d="M150.65,102.05c-.86,8.51-11.54,15.19-24.43,15.21s-23.58-6.7-24.45-15.2c-.87-8.34,10-16.63,24.44-16.76,14.43.12,25.31,8.42,24.44,16.75m-49.44,0c.94,9.12,11.83,16.28,25,16.3s24.06-7.18,25-16.3c.95-8.93-10.17-17.88-25-18-14.82.16-25.95,9.1-25,18M126.31,122a19.33,19.33,0,0,0-1.89-.47c.59,0,1.18,0,1.79,0h.06c.65,0,1.28,0,1.91,0-.59.13-1.23.29-1.87.48m5.75.39c0,.28-.5.57-1.44.57a22.32,22.32,0,0,1-3.36-.68,13.61,13.61,0,0,1,3-.59c1.18,0,1.82.37,1.82.7m-6.79-.1a21.47,21.47,0,0,1-3.46.67c-1,0-1.44-.29-1.44-.58s.16-.33.43-.45a3.42,3.42,0,0,1,1.42-.24,13.33,13.33,0,0,1,3,.6M118.46,121a12.27,12.27,0,0,0-1.72.72,5.87,5.87,0,0,1-2.29.76.21.21,0,0,1-.22-.17c0-.43.36-.58.78-.75s.91-.37.91-1c0,0,0,0,0-.07.82.17,1.67.33,2.55.46m18.11-.39c0,.58.48.78.91,1s.79.32.79.75a.23.23,0,0,1-.23.17,5.87,5.87,0,0,1-2.29-.76A11.91,11.91,0,0,0,134,121c.89-.13,1.74-.29,2.57-.47a.24.24,0,0,0,0,.08m-22.34-.45c-.39,0-.82.11-1.3.18a20.79,20.79,0,0,1-3.14.34,4.67,4.67,0,0,1-1.62-.23c-1.3-.46-1.61-1.27-1.48-1.86a5.72,5.72,0,0,0,1.93-.25l.07,0a36.69,36.69,0,0,0,5.54,1.87m29.64-1.82a5.72,5.72,0,0,0,1.93.25c.13.59-.18,1.4-1.48,1.86a4.67,4.67,0,0,1-1.62.23,20.79,20.79,0,0,1-3.14-.34c-.48-.07-.92-.14-1.31-.18a37.05,37.05,0,0,0,5.54-1.87l.08,0M108.08,118a6.42,6.42,0,0,1-1.14.06,1.31,1.31,0,0,1,.5-.36l.64.3m37.47.06a6.54,6.54,0,0,1-1.15-.06l.65-.3a1.28,1.28,0,0,1,.5.36m-36.86-.38a.19.19,0,0,1-.07.12l-.62-.27c.39,0,.68,0,.69.15m35.8-.15-.62.26a.16.16,0,0,1-.07-.11c0-.09.16-.17.44-.17l.25,0m7.83-2.14c-.08,1.39-3.7,2.44-6.19,2.64a2.18,2.18,0,0,0-.55-.58,31.32,31.32,0,0,0,4.39-2.65,2.68,2.68,0,0,0,.52,0h0a7.72,7.72,0,0,0,1.61-.21,1.3,1.3,0,0,1,.22.76M102,114.85h0a2.64,2.64,0,0,0,.51,0,32,32,0,0,0,4.4,2.65,2.17,2.17,0,0,0-.55.58c-2.49-.2-6.11-1.25-6.19-2.64a1.23,1.23,0,0,1,.22-.76,7.72,7.72,0,0,0,1.61.21m0-.45a7.61,7.61,0,0,1-1.15-.18,1.83,1.83,0,0,1,.57-.25l.58.43m49.7-.19a7.64,7.64,0,0,1-1.16.2l.58-.45a2.26,2.26,0,0,1,.58.25m-48.85,0c0,.07-.11.15-.32.2l-.64-.49h.22c.51,0,.74.19.74.3m47.8-.29-.64.49c-.21,0-.3-.13-.3-.2s.23-.29.79-.31l.15,0m-53.49-4h0a30.56,30.56,0,0,0,3.8,3.72,3,3,0,0,0-.77.41c-2.51-.78-5.25-2.47-5.43-4.06a.75.75,0,0,1,.25-.66,5.06,5.06,0,0,0,2.11.59m60.59.06c-.18,1.6-2.93,3.29-5.43,4.07a2.64,2.64,0,0,0-.78-.41,29.77,29.77,0,0,0,3.79-3.72h.06a5.06,5.06,0,0,0,2.11-.59.74.74,0,0,1,.25.65m-60.95-.55a5.09,5.09,0,0,1-1.21-.39,2.65,2.65,0,0,1,.78-.13c.14.17.28.35.43.52m58.48,0c-.29,0-.45-.1-.45-.2s.23-.32.93-.37l-.48.57m-57.56-.2c0,.1-.16.2-.47.2l-.47-.57c.7,0,.94.26.94.37m59.23-.26a4.86,4.86,0,0,1-1.21.42l.43-.54a4.08,4.08,0,0,1,.78.12m-64.69-7.12a30.67,30.67,0,0,0,3.8,6.6,2.62,2.62,0,0,0-1,.23,11.17,11.17,0,0,1-4.72-6,1.45,1.45,0,0,1,.48-1.62,4,4,0,0,0,1.43.75m69.94.87a11.17,11.17,0,0,1-4.72,6,2.52,2.52,0,0,0-1-.25,30.13,30.13,0,0,0,3.78-6.57,3.92,3.92,0,0,0,1.45-.76,1.45,1.45,0,0,1,.48,1.62M160,101.48l-.2,0h0c-.31,0-.45-.1-.45-.19s.31-.36.88-.43c-.08.19-.15.39-.23.6m-68-.11a2.88,2.88,0,0,1-.74-.46,2.42,2.42,0,0,1,.48-.06h.06l.2.52m1.09-.06c0,.09-.14.18-.48.19l-.18,0-.23-.6c.58.07.89.29.89.43m67.6-.46a2.33,2.33,0,0,1,.48.06,2.76,2.76,0,0,1-.75.46l.2-.52ZM90.94,92.14a14.58,14.58,0,0,0,0,6,21.69,21.69,0,0,0,.67,2.26H91.6a2.55,2.55,0,0,0-.74.13,11.23,11.23,0,0,1-2.61-5.29,3.36,3.36,0,0,1,.47-2.67A1.53,1.53,0,0,1,89.84,92a3,3,0,0,1,1.1.16M162.65,92a1.53,1.53,0,0,1,1.12.58,3.36,3.36,0,0,1,.47,2.67,11.23,11.23,0,0,1-2.61,5.29,2.55,2.55,0,0,0-.74-.13h-.07c.38-1.09.58-1.9.67-2.26a14.58,14.58,0,0,0,0-6,3.07,3.07,0,0,1,1.11-.16m-66.75.39c0,.11,0,.2,0,.3l-1.09-.45a13.24,13.24,0,0,0-3.08-1,2.43,2.43,0,0,1,.28-.47,2.1,2.1,0,0,1,1.49-.89c1.22-.14,2.14.85,2.37,2.52m63-2.52a2.1,2.1,0,0,1,1.5.89,2.43,2.43,0,0,1,.28.47,13.48,13.48,0,0,0-3.07,1l-1.1.45c0-.1,0-.19,0-.3.23-1.67,1.15-2.66,2.36-2.52M99,87.79a2.85,2.85,0,0,1,2.4,1.55,6.66,6.66,0,0,1-2.8-.37c-.52-.21-.82-.52-.77-.79s.4-.41.88-.41l.29,0m55.6.39c.05.27-.25.58-.77.79a6.68,6.68,0,0,1-2.8.37,2.84,2.84,0,0,1,2.4-1.55c.65-.07,1.11.09,1.17.39m-48.87-2A5.22,5.22,0,0,1,104,86c-.42-.17-.54-.36-.52-.48s.25-.26.7-.26h.07a1.52,1.52,0,0,1,1.56,1m43.3-.72c0,.12-.1.31-.52.48a5.22,5.22,0,0,1-1.81.24,1.52,1.52,0,0,1,1.56-1h.07c.45,0,.67.13.7.26m-38.76-1a6.25,6.25,0,0,1-1-.14c-.42-.1-.62-.27-.61-.39s.14-.18.44-.2h.08a1.08,1.08,0,0,1,1.12.73m33.09-.73c.29,0,.43.11.44.2s-.19.29-.61.39a6.25,6.25,0,0,1-1,.14,1.08,1.08,0,0,1,1.12-.73Zm-4.56,1,.11,0a8,8,0,0,0,2.74.53h.13a2.49,2.49,0,0,0,.37.61c.75.92,2.61,1.29,4,1.32a3.2,3.2,0,0,0,.85,1.65,5.44,5.44,0,0,0,3.24,1.61c-.06,1.28.7,2.9,3,3.68a4.87,4.87,0,0,0,1.54.24,6.82,6.82,0,0,0,1.1-.1c0,.29,0,.58,0,.85a18,18,0,0,1-.14,2.65c-1.18,8.06-4.2,11.9-9.36,16.16-.2.17-.29.35-.21.44s.18.1.47-.12c5.89-4.56,9-9.15,9.85-14.42a15.11,15.11,0,0,0,.07-4.44c0-.41-.08-.82-.1-1.24a19.88,19.88,0,0,0,3.13-1.2c.53-.25,1-.47,1.49-.65a16,16,0,0,1,0,6c-.15.58-.37,1.31-.66,2.14-1,.08-1.53.51-1.53.94s.26.59.87.6h.07a29.79,29.79,0,0,1-3.77,6.51c-1.14,0-1.76.45-1.76.86,0,.21.17.45.62.55a29.66,29.66,0,0,1-3.81,3.66,2.94,2.94,0,0,0-.51,0c-1,0-1.49.37-1.49.71,0,.19.14.37.42.5a30.13,30.13,0,0,1-4.39,2.55l-.15-.06c-.86-.24-1.62,0-1.71.42a.47.47,0,0,0,.12.41,45.05,45.05,0,0,1-17.16,3.06A44.84,44.84,0,0,1,109.09,118a.46.46,0,0,0,.12-.41c-.09-.45-.85-.66-1.71-.42l-.15.06a31.75,31.75,0,0,1-4.4-2.54c.29-.13.43-.32.43-.51,0-.34-.46-.71-1.5-.71a2.94,2.94,0,0,0-.51,0,29,29,0,0,1-3.81-3.66c.45-.09.63-.34.63-.55,0-.41-.61-.85-1.78-.86a30.12,30.12,0,0,1-3.76-6.51h.08c.61,0,.87-.31.87-.6s-.54-.86-1.54-.94c-.29-.83-.51-1.56-.66-2.14a16,16,0,0,1,0-6c.46.18,1,.4,1.5.65A18.47,18.47,0,0,0,96,94.13c0,.43-.06.84-.1,1.25A15.11,15.11,0,0,0,96,99.82c.83,5.27,4,9.86,9.85,14.42.29.23.42.19.47.12s0-.27-.22-.44c-5.15-4.26-8.17-8.1-9.35-16.16a17.92,17.92,0,0,1-.14-2.64c0-.28,0-.57,0-.87a6,6,0,0,0,1.11.11,4.81,4.81,0,0,0,1.53-.24c2.33-.78,3.09-2.4,3-3.68a5.5,5.5,0,0,0,3.25-1.61,3.26,3.26,0,0,0,.84-1.65c1.39,0,3.24-.4,4-1.32a2.17,2.17,0,0,0,.36-.61h.14a8,8,0,0,0,2.74-.53l.25-.12a34.57,34.57,0,0,1,25,.07m-25.56-.55-.08,0a9.43,9.43,0,0,1-2.42.31h0a1.54,1.54,0,0,0-1.61-1.14h-.06c-.58,0-1,.26-1,.62s.16.72.88,1a4.37,4.37,0,0,0,1.16.27,1.39,1.39,0,0,1-.28.26,8.21,8.21,0,0,1-3.57.76,2.05,2.05,0,0,0-2.12-1.4c-.75,0-1.3.29-1.4.75s.25.9.9,1.2a5.9,5.9,0,0,0,2.11.4,2.05,2.05,0,0,1-.62,1A6.12,6.12,0,0,1,102,89.3a3.44,3.44,0,0,0-2.92-2c-1.16-.1-1.92.25-2.07.9S97.3,89.51,98.2,90a6.79,6.79,0,0,0,3.46.55,2.77,2.77,0,0,1-2.31,2.6,4.32,4.32,0,0,1-.95.1,6,6,0,0,1-1.92-.35c0-.17,0-.34-.06-.53-.27-1.93-1.43-3.07-2.94-2.89a2.56,2.56,0,0,0-1.8,1.07,3.49,3.49,0,0,0-.38.64,6.45,6.45,0,0,0-1.08,0A3,3,0,0,0,88,92.26a4.12,4.12,0,0,0-.74,3.12,10.43,10.43,0,0,0,3.11,5.39,2.52,2.52,0,0,0-.78,2.82c.56,2.07,3,4.35,5,5.47a1.6,1.6,0,0,0-.35,1.28c.21,2,3.11,3.48,5.57,4.15a1.43,1.43,0,0,0-.28.94c.11,2.12,4,3,6.63,3.14-.21.81.12,1.86,1.69,2.5a4.66,4.66,0,0,0,1.7.27,18,18,0,0,0,3.81-.57,11.55,11.55,0,0,1,1.79-.31c.33,0,.33.1.33.14s-.25.16-.44.23c-.56.21-1.4.52-1.4,1.43a.85.85,0,0,0,1,.81,4.41,4.41,0,0,0,2.37-.91,5.49,5.49,0,0,1,2.55-1c.5.06,1,.13,1.5.18a2.41,2.41,0,0,0-.73.25.94.94,0,0,0-.59.79c0,.59.79,1.22,2.26,1.22a16.5,16.5,0,0,0,4.31-1,16.57,16.57,0,0,0,4.31,1c1.46,0,2.24-.63,2.24-1.21,0-.41-.36-.85-1.3-1,.52,0,1-.12,1.54-.18a5.38,5.38,0,0,1,2.56,1,4.41,4.41,0,0,0,2.37.91.85.85,0,0,0,.95-.81c0-.91-.84-1.22-1.4-1.43-.19-.07-.44-.17-.44-.23s0-.14.33-.14a11.55,11.55,0,0,1,1.79.31,18,18,0,0,0,3.81.57,4.66,4.66,0,0,0,1.7-.27c1.57-.64,1.91-1.69,1.69-2.5,2.64-.1,6.52-1,6.63-3.14a1.48,1.48,0,0,0-.28-.94c2.46-.67,5.36-2.14,5.57-4.15a1.6,1.6,0,0,0-.35-1.28c2-1.12,4.4-3.4,5-5.47a2.52,2.52,0,0,0-.79-2.82,10.52,10.52,0,0,0,3.12-5.39,4.17,4.17,0,0,0-.75-3.12,3,3,0,0,0-2.22-1.13,6.59,6.59,0,0,0-1.09,0,4.16,4.16,0,0,0-.38-.64,2.56,2.56,0,0,0-1.8-1.07c-1.52-.19-2.67,1-2.94,2.89,0,.19,0,.36-.06.54a6.19,6.19,0,0,1-1.91.34,4.32,4.32,0,0,1-1-.1,2.77,2.77,0,0,1-2.31-2.6,6.79,6.79,0,0,0,3.46-.55c.9-.45,1.38-1.14,1.24-1.76s-.91-1-2.07-.9a3.44,3.44,0,0,0-2.92,2,6.12,6.12,0,0,1-3.18-1.17,2.05,2.05,0,0,1-.62-1,5.9,5.9,0,0,0,2.11-.4c.65-.3,1-.76.9-1.2s-.65-.75-1.4-.75a2.05,2.05,0,0,0-2.12,1.4,8.21,8.21,0,0,1-3.57-.76,1.39,1.39,0,0,1-.28-.26,4.37,4.37,0,0,0,1.16-.27c.73-.27.93-.69.89-1s-.46-.6-1-.62h-.07a1.54,1.54,0,0,0-1.61,1.14h0a9.58,9.58,0,0,1-2.58-.35,37.75,37.75,0,0,0-25.87,0m12.92,26.94a.69.69,0,0,0,0,.1l.37.8h-.87l.38-.82,0-.09,0-.09a.3.3,0,0,0,0,.1m-.35-.65-1.18,2.44h.67l.2-.46h1.26l.21.46h.69l-1.18-2.44Zm5.12,0v1.24c0,.21,0,.28,0,.51-.15-.19-.18-.23-.33-.4l-1.2-1.35h-.62v2.44h.59V111.5a2.75,2.75,0,0,0,0-.41l.31.38,1.22,1.38h.61v-2.44Zm4,.69a.92.92,0,0,1,.12.5,1,1,0,0,1-.15.58.71.71,0,0,1-.63.24h-.68v-1.58h.71a.66.66,0,0,1,.63.26m-1.95-.69v2.44h1.26a1.34,1.34,0,0,0,1.18-.46,1.27,1.27,0,0,0,.24-.78,1.1,1.1,0,0,0-1.07-1.19H133Zm-14,1.68c0,.33-.26.33-.4.33h-.93v-.63h1a.28.28,0,0,1,.33.3m-.1-1a.26.26,0,0,1-.15.25.56.56,0,0,1-.2,0h-.88v-.54h.93c.1,0,.3,0,.3.26m-1.83-.68v2.44h1.68a.85.85,0,0,0,.75-.29.74.74,0,0,0,.11-.41.61.61,0,0,0-.53-.63.53.53,0,0,0,.31-.19.55.55,0,0,0,.1-.33.56.56,0,0,0-.1-.34.83.83,0,0,0-.73-.25Zm5.77.54a.36.36,0,0,1,0,.19c0,.28-.24.29-.37.29h-1v-.6h1c.24,0,.3.06.35.12m-1.92-.54v2.44h.62v-1h.7l.65,1h.73l-.75-1a1.22,1.22,0,0,0,.41-.15.71.71,0,0,0,.23-.55.66.66,0,0,0-.16-.46.87.87,0,0,0-.74-.26Zm4-20.06h-.85v.49s.84,0,.84.56v2.91c0,.56-.63.57-.63.57v.32h2.95v-.32s-.63,0-.63-.57v-4c-.56,0-1.12.07-1.68.07m7.18,2.34v1.39c0,.35-.48.71-1.11.71-.32,0-.47-.14-.47-.31V92.25c0-.19.27-.28.57-.28.55,0,1,.34,1,.72m0-2.34h-.87v.49s.87,0,.87.28V92h0a1.6,1.6,0,0,0-1.26-.49,2,2,0,0,0-2.23,1.84,1.88,1.88,0,0,0,2.07,2,2,2,0,0,0,1.44-.52v.41h2.18v-.32s-.63,0-.63-.57v-4c-.52,0-1,.07-1.55.07M121,92.05v1.43c0,1.33-.23,1.38-1,1.38s-1,0-1-1.38V92.05c0-1.33.24-1.38,1-1.38s1,0,1,1.38m-3.92.69a3,3,0,0,0,5.89,0c0-1.63-1.83-2.46-2.95-2.46s-2.94.83-2.94,2.46M131,105.52a1.2,1.2,0,1,0,1.19-1.25,1.24,1.24,0,0,0-1.19,1.25m-3.57-4.11v3.86c0,1-.56,1.34-1.44,1.34s-1.44-.29-1.44-1.34v-3.86c0-1.11.31-1.41,1.44-1.41s1.44.3,1.44,1.41m-5.86,2a4.14,4.14,0,0,0,4.42,4c2.37,0,4.42-1.48,4.42-4a4.43,4.43,0,0,0-8.84,0M117,97.67v.64h.46c.59,0,1.09.64,1.09,1.61v4.28L113,97.68h-4.08l1.27,1.49v5.91c0,1-.39,1.52-1.11,1.52h-.44v.64h3.81v-.64H112c-.58,0-1.09-.55-1.09-1.52V100l6.13,7.23h2.24V99.92c0-1,.39-1.61,1.11-1.61h.44v-.64Zm23.64.13c-.87,0-1.15-.3-2.26-.3a18.79,18.79,0,0,0-2,.29c-.35,0-.42-.11-.47-.23s0-.23-.31-.23h-.23c-.32,0-.27,0-.41.4-.08.2-.83,2.76-.93,3s-.14.43.27.45h.25c.32,0,.22,0,.42-.29.05-.08.19-.35.23-.43.23-.41.37-.69.79-.69,1,0,1.42.5,2.34.5.63,0,1.41-.35,1.41.11s-3.41,1.43-3.41,4.35a2.83,2.83,0,0,0,3.65,2.71c2.08-.62,2.55-3.15,2.11-3.33-.15-.06-.28.11-.41.24-.51.54-1.6.52-1.6-1.17,0-2.14,3-3.94,3-5.25,0-.44-.15-.67-.59-.67s-.57.5-1.81.5"/></svg>