<svg xmlns="http://www.w3.org/2000/svg" viewBox="0 0 253.31 180.22"><defs><style>.a{fill:#848482;}</style></defs><path class="a" d="M116.42,82.22a7.22,7.22,0,1,0,7.22,7.21A7.21,7.21,0,0,0,116.42,82.22Zm0,0a7.22,7.22,0,1,0,7.22,7.21A7.21,7.21,0,0,0,116.42,82.22Zm0,0a7.22,7.22,0,1,0,7.22,7.21A7.21,7.21,0,0,0,116.42,82.22Zm0,0a7.22,7.22,0,1,0,7.22,7.21A7.21,7.21,0,0,0,116.42,82.22Zm40.15-6.84h1.51l2.75,5.46,6.74,13.35c.13-1.36.19-2.75.19-4.14a44.93,44.93,0,0,0-87.4-14.67H84.5L95.1,96.3V75.38h7V89.43a14.29,14.29,0,0,1,25.49-8.89L125,75.38h7l8,15.93,8-15.93h7L143.59,98.26l-2.76,5.47h-1.51l-2.75-5.46-6.36-12.58a14,14,0,0,1,.5,3.74,14.3,14.3,0,1,1-28.59,0v14.3H91.64L84.5,89.58v14.15H80a44.93,44.93,0,0,0,85.59,0h-.27l-8-15.92-8,15.92h-7l11.55-22.88ZM116.42,96.65a7.22,7.22,0,1,0-7.21-7.22A7.22,7.22,0,0,0,116.42,96.65Zm0-14.43a7.22,7.22,0,1,0,7.22,7.21A7.21,7.21,0,0,0,116.42,82.22Zm0,0a7.22,7.22,0,1,0,7.22,7.21A7.21,7.21,0,0,0,116.42,82.22Z"/></svg>