<svg xmlns="http://www.w3.org/2000/svg" viewBox="0 0 253.31 180.22"><defs><style>.a{fill:#848482;}</style></defs><path class="a" d="M67.29,83.71v6.76H63.88V76.73c0-.12.06-.22.28,0l8.52,7v-6.8h3.41V90.67c0,.16-.06.22-.28,0Zm11,1.52V76.91h3.63v8.28c0,1.53.72,2.41,2.26,2.41s2.25-.88,2.25-2.41V76.91h3.64v8.32c0,3.65-2.5,5.44-5.89,5.44S78.3,88.88,78.3,85.23ZM63.88,91.87h5.54c2.7,0,4.45,1.23,4.45,3.31a2.59,2.59,0,0,1-1.55,2.63,3.47,3.47,0,0,1,2.73,3.55c0,2.59-2,4.07-5.39,4.07H63.88Zm5.27,5c.79,0,1.15-.4,1.15-1a1,1,0,0,0-1.11-1.1h-1.8v2.13Zm.43,5.69c1.4,0,1.84-.6,1.84-1.54s-.46-1.51-1.84-1.51H67.39v3ZM76,98.65a7.29,7.29,0,1,1,7.28,7A7,7,0,0,1,76,98.65Zm10.85,0a3.58,3.58,0,1,0-3.57,3.81A3.48,3.48,0,0,0,86.8,98.65Zm2.94-6.78h4l3.07,5.52,3-5.52h3.81l-5.11,8.77v4.79H94.92v-4.69Zm14.54,13.56h-3.55l6.6-13.8c.06-.14.18-.14.24,0l6.59,13.8h-3.75l-.52-1.16h-5.11Zm3-7-1.35,3.15h2.75Zm11.54.26v6.76h-3.42V91.69c0-.12.06-.22.28,0l8.52,7v-6.8h3.42v13.76c0,.16-.06.22-.28,0Zm13.6,6.76h-3.55l6.61-13.8c.06-.14.18-.14.24,0l6.58,13.8h-3.75l-.52-1.16h-5.11Zm3-7-1.36,3.15h2.75Z"/><path class="a" d="M91.2,82.94v-.13h.63V78.4c0-.89.48-1.24,1-1.24a1.05,1.05,0,0,1,.91.51l-.11.07a.91.91,0,0,0-.8-.45c-.46,0-.87.29-.87,1.11v4.41H94.4v4.42h-.14V82.94H92v4.29h-.14V82.94Zm3-2.28a.14.14,0,1,1,.14.14A.15.15,0,0,1,94.19,80.66Zm1.94-3.46h.14v10h-.14Zm6.63,5.5c.86,0,1.52.52,1.52,1.75v2.78h-.14V84.45c0-1.12-.61-1.63-1.38-1.63a1.49,1.49,0,0,0-1.57,1.53v2.88h-.14V84.35a1.33,1.33,0,0,0-1.39-1.53,1.55,1.55,0,0,0-1.57,1.63v2.78H98V82.81h.14v1a1.64,1.64,0,0,1,1.57-1.07,1.36,1.36,0,0,1,1.47,1.2A1.6,1.6,0,0,1,102.76,82.7Zm7,.12a.93.93,0,0,0-1,.91c0,.69.49.87,1.17,1.1s1.46.45,1.46,1.34c0,.72-.58,1.16-1.46,1.16a1.76,1.76,0,0,1-1.7-1.06l.13-.06a1.61,1.61,0,0,0,1.57,1c.79,0,1.31-.39,1.31-1,0-.83-.69-1-1.34-1.21s-1.28-.46-1.28-1.23a1.06,1.06,0,0,1,1.17-1,1.2,1.2,0,0,1,1.19.69l-.13,0A1.06,1.06,0,0,0,109.81,82.82Zm2.36.12v-.13h.63V80H113v2.77h1.35v.13H113v3.47a.74.74,0,0,0,.8.79.81.81,0,0,0,.68-.29l.1.08a.94.94,0,0,1-.78.34.88.88,0,0,1-1-.92V82.94Zm5.24,4.39a1.63,1.63,0,0,1-1.79-1.81V82.81h.14v2.71a1.5,1.5,0,0,0,1.65,1.68,1.67,1.67,0,0,0,1.65-1.75V82.81h.15v4.42h-.15V86.11A1.69,1.69,0,0,1,117.41,87.33Zm5.27,0a2.32,2.32,0,0,1,0-4.63,2.15,2.15,0,0,1,2.09,1.54v-7h.15v10h-.15V85.79A2.15,2.15,0,0,1,122.68,87.33Zm0-.13a2.19,2.19,0,0,0,0-4.38,2.19,2.19,0,0,0,0,4.38Zm3.85-6.54a.14.14,0,1,1,.14.14A.15.15,0,0,1,126.53,80.66Zm.07,2.15h.14v4.42h-.14Zm3.71-.11A2.32,2.32,0,1,1,128,85,2.28,2.28,0,0,1,130.31,82.7Zm0,.12A2.19,2.19,0,1,0,132.49,85,2.14,2.14,0,0,0,130.31,82.82Zm4.6,0a.93.93,0,0,0-1,.91c0,.69.49.87,1.17,1.1s1.45.45,1.45,1.34c0,.72-.57,1.16-1.45,1.16a1.76,1.76,0,0,1-1.7-1.06l.13-.06a1.61,1.61,0,0,0,1.57,1c.79,0,1.31-.39,1.31-1,0-.83-.69-1-1.34-1.21s-1.29-.46-1.29-1.23a1.07,1.07,0,0,1,1.18-1,1.18,1.18,0,0,1,1.18.69l-.12,0A1.06,1.06,0,0,0,134.91,82.82Z"/><path class="a" d="M181.63,98s0,0,0,0v8.66c0,.06-.06.09-.1,0l-26.9-25.39A15.18,15.18,0,0,0,145.79,77a0,0,0,0,1,0-.08h10a8.78,8.78,0,0,1,6.13,2.48ZM189,76.91H174.31a.07.07,0,0,0-.07.06s0,.06.07.06a8.81,8.81,0,0,1,7.34,8.69A8.82,8.82,0,0,1,189,77a.06.06,0,0,0,.06-.06A.06.06,0,0,0,189,76.91Zm-28.52,28.4a8.81,8.81,0,0,1-7.36-8.69,8.82,8.82,0,0,1-7.33,8.69s-.07,0-.07.06a.07.07,0,0,0,.07.06h14.69a.06.06,0,0,0,.06-.06A.06.06,0,0,0,160.48,105.31Z"/></svg>