<?xml version="1.0" encoding="utf-8"?>
<!-- Generator: Adobe Illustrator 27.0.0, SVG Export Plug-In . SVG Version: 6.00 Build 0)  -->
<svg version="1.1" id="Layer_1" xmlns="http://www.w3.org/2000/svg" xmlns:xlink="http://www.w3.org/1999/xlink" x="0px" y="0px"
	 viewBox="0 0 253.3 180.2" style="enable-background:new 0 0 253.3 180.2;" xml:space="preserve">
<style type="text/css">
	.st0{fill:none;}
	.st1{fill:#848482;}
</style>
<polygon class="st0" points="152,99.8 153.8,91.2 150.1,91.2 151.9,99.8 "/>
<g>
	<path class="st1" d="M134.9,76.3c-0.8-2.5-2.1-4.6-3.8-6.3c-1.7-1.7-3.7-3.1-6.1-4c-2.4-0.9-5.2-1.4-8.2-1.4H92.4v51.1h13.6v-11
		h10.8c3.1,0,5.8-0.5,8.2-1.4c2.4-0.9,4.4-2.3,6.1-4c1.7-1.7,2.9-3.9,3.8-6.3c0.8-2.5,1.3-5.2,1.3-8.3
		C136.2,81.5,135.8,78.8,134.9,76.3z M121.9,86c0,2.8-0.6,4.8-1.9,6c-1.2,1.2-3.4,1.8-6.6,1.8h-7.3V75.5h7.3c3.2,0,5.4,0.6,6.6,1.8
		c1.2,1.2,1.9,3.2,1.9,6V86z"/>
	<polygon class="st1" points="189.1,64.6 189.1,115.7 175.4,115.7 175.4,86.9 169,104.7 162,104.7 155.6,87.1 155.6,115.7 
		141.9,115.7 141.9,64.6 156.8,64.6 164.6,85.8 165.3,85.8 173.1,64.6 	"/>
	<rect x="63.9" y="64.6" class="st1" width="17" height="17"/>
	<rect x="63.9" y="98.6" class="st1" width="17" height="17"/>
</g>
</svg>
