<?xml version="1.0" encoding="utf-8"?>
<!-- Generator: Adobe Illustrator 27.5.0, SVG Export Plug-In . SVG Version: 6.00 Build 0)  -->
<svg version="1.1" id="Layer_1" xmlns="http://www.w3.org/2000/svg" xmlns:xlink="http://www.w3.org/1999/xlink" x="0px" y="0px"
	 viewBox="0 0 253.3 180.2" style="enable-background:new 0 0 253.3 180.2;" xml:space="preserve">
<style type="text/css">
	.st0{fill:#848482;}
</style>
<g>
	<g>
		<path class="st0" d="M94.2,81.2c-0.8-0.8-2-1.2-3.4-1.2h-0.6v8c1.6-0.1,2.9-0.5,3.9-1.2c1-0.7,1.5-1.7,1.5-2.9
			C95.5,82.8,95,81.9,94.2,81.2z"/>
		<path class="st0" d="M92.1,62.6c-15.5,0-28,12.3-28,27.5s12.5,27.5,28,27.5c15.5,0,28-12.3,28-27.5S107.5,62.6,92.1,62.6z
			 M99.1,104.2c-3.1-2.4-6.1-6.3-9-11.8h0v4.8c0,2.7,0.3,5,1,7h-9.8c0.6-1.8,1-3.4,1-4.8V80.7c0-2-0.3-4-1-5.9H91h0.6
			c4.1,0,7.1,0.8,8.9,2.4c1.8,1.6,2.7,3.7,2.7,6.3c0,1.9-0.5,3.4-1.5,4.7c-1,1.2-2.4,2.2-4.4,3c3.1,5,6.5,9.3,10.4,13H99.1z"/>
	</g>
	<g>
		<path class="st0" d="M138.2,81.5l-1.7-4.2h-1.1v4.2h-2.1V69.2h3.7c0.9,0,1.6,0.3,2.1,0.8s0.8,1.3,0.8,2.1v2.2c0,1-0.5,2-1.4,2.5
			l1.9,4.6H138.2z M137.8,72.1c0-0.4-0.4-0.8-0.9-0.8h-1.6v4h1.6c0.5,0,0.9-0.4,0.9-0.8V72.1z"/>
		<path class="st0" d="M145.5,69.2h3.3l2,6.9v5.4h-2.1v-3.7h-3.2v3.7h-2.1v-5.4L145.5,69.2z M148.6,75.8l-1.2-4.5H147l-1.2,4.5
			H148.6z"/>
		<path class="st0" d="M154.7,69.2h6.3v2.1h-4.3V74h3.8v2h-3.8v5.4h-2.1V69.2z"/>
		<path class="st0" d="M165.3,69.2h6.3v2.1h-4.3V74h3.8v2h-3.8v5.4h-2.1V69.2z"/>
		<path class="st0" d="M177,69.2l1.8,4.2l1.8-4.2h2.3l-3.1,6.5v5.8h-2.2v-5.8l-3.1-6.5H177z"/>
	</g>
	<g>
		<path class="st0" d="M133.2,85h3.7c0.9,0,1.6,0.3,2.2,0.8c0.6,0.5,0.9,1.2,0.9,2v1c0,0.7-0.3,1.4-0.6,1.7l-0.2,0.2
			c0.1,0.1,0.2,0.1,0.2,0.2c0.1,0.1,0.2,0.3,0.4,0.7c0.2,0.4,0.3,0.8,0.3,1.2v1.3c0,0.9-0.3,1.6-1,2.2c-0.6,0.6-1.4,0.9-2.3,0.9
			h-3.7V85z M135.3,87.1v2.8h1.6c0.5,0,0.9-0.4,0.9-0.9v-1.1c0-0.5-0.4-0.9-0.9-0.9H135.3z M135.3,91.9v3.4h1.5c0.6,0,1.1-0.5,1.1-1
			v-1.3c0-0.4-0.4-1-1.1-1H135.3z"/>
		<path class="st0" d="M145.5,85h3.3l2,6.9v5.4h-2.1v-3.7h-3.2v3.7h-2.1v-5.4L145.5,85z M148.6,91.6l-1.2-4.5H147l-1.2,4.5H148.6z"
			/>
		<path class="st0" d="M159.3,97.3l-1.7-4.2h-1.1v4.2h-2.1V85h3.7c0.9,0,1.6,0.3,2.1,0.8c0.6,0.6,0.8,1.3,0.8,2.1v2.2
			c0,1-0.5,2-1.4,2.5l1.9,4.6H159.3z M158.9,87.9c0-0.4-0.4-0.8-0.9-0.8h-1.6v4h1.6c0.5,0,0.9-0.4,0.9-0.8V87.9z"/>
	</g>
	<g>
		<path class="st0" d="M167.7,85h1.9l1.1,3.9v3h-1.2v-2.1h-1.8v2.1h-1.2v-3L167.7,85z M169.4,88.7l-0.7-2.6h-0.2l-0.7,2.6H169.4z"/>
		<path class="st0" d="M175.6,91.9l-2-4.6l0,0c0.1,0.7,0.1,1.4,0.1,2.2v2.4h-1.1V85h1.1l2,4.6l0,0c-0.1-0.7-0.1-1.4-0.1-2.2V85h1.1
			v6.9H175.6z"/>
		<path class="st0" d="M178.6,91.9V85h2c0.5,0,1,0.2,1.4,0.6c0.4,0.4,0.6,0.8,0.6,1.4V90c0,0.5-0.2,1-0.6,1.4
			c-0.4,0.4-0.8,0.6-1.4,0.6H178.6z M181.3,86.9c0-0.4-0.3-0.7-0.7-0.7h-0.8v4.6h0.8c0.4,0,0.7-0.3,0.7-0.7V86.9z"/>
	</g>
	<g>
		<path class="st0" d="M136.7,106.5h3.6v3.4c0,1-0.4,1.8-1.1,2.4c-0.7,0.7-1.5,1-2.6,1c-1,0-1.8-0.3-2.6-1c-0.7-0.7-1.1-1.5-1.1-2.4
			v-5.8c0-0.9,0.4-1.7,1.1-2.4c0.7-0.7,1.6-1,2.5-1c2.6,0,3.6,2.1,3.6,3.6h-2.1c0-0.8-0.5-1.6-1.4-1.6c-0.8,0-1.4,0.6-1.4,1.3v6
			c0,0.7,0.7,1.4,1.4,1.4c0.4,0,0.7-0.1,1-0.4c0.3-0.3,0.5-0.6,0.5-1v-1.5h-1.5V106.5z"/>
		<path class="st0" d="M144,100.9h6.3v2.1h-4.2v2.8h3.8v2h-3.8v3.3h4.3v2.1H144V100.9z"/>
		<path class="st0" d="M154.3,100.9h2.1v10.3h4.7v2.1h-6.8V100.9z"/>
		<path class="st0" d="M165.2,100.9h3.3l2,6.9v5.4h-2.1v-3.7h-3.2v3.7h-2.1v-5.4L165.2,100.9z M168.3,107.5l-1.2-4.5h-0.4l-1.2,4.5
			H168.3z"/>
		<path class="st0" d="M172.6,102.9v-2.1h7.3v2.1h-2.6v10.3h-2.1v-10.3H172.6z"/>
		<path class="st0" d="M189.2,109.9c0,1-0.4,1.8-1.1,2.4c-0.7,0.7-1.5,1-2.6,1c-1,0-1.9-0.3-2.6-1c-0.7-0.7-1.1-1.5-1.1-2.4v-5.8
			c0-1,0.4-1.8,1.1-2.4c0.7-0.7,1.6-1,2.6-1c1,0,1.9,0.3,2.6,1c0.7,0.7,1.1,1.5,1.1,2.4V109.9z M187.2,104c0-0.7-0.7-1.4-1.5-1.4
			c-0.8,0-1.5,0.6-1.5,1.4v6c0,0.7,0.7,1.4,1.5,1.4c0.8,0,1.5-0.6,1.5-1.4V104z"/>
	</g>
	<rect x="166.3" y="95.2" class="st0" width="16.2" height="1.8"/>
</g>
</svg>
