<svg xmlns="http://www.w3.org/2000/svg" viewBox="0 0 253.31 180.22"><defs><style>.a{fill:#848482;}</style></defs><path class="a" d="M153.47,80.12A54.82,54.82,0,0,0,129.18,72,50,50,0,0,0,104,75.7l-.09-.25c1.56-.75,3.09-1.56,4.68-2.22a46.17,46.17,0,0,1,27.86-2.83,29.86,29.86,0,0,1,15.87,8.47C152.74,79.27,153.1,79.7,153.47,80.12Z"/><path class="a" d="M135.53,67.1c-17.75-2.14-33,3.12-46.24,15.46.3-.55.49-.94.71-1.31s.48-.81.75-1.2c4-5.82,9.58-9.48,16.09-11.89a46.48,46.48,0,0,1,13.61-2.7A49.69,49.69,0,0,1,135.53,67.1Z"/><path class="a" d="M151,86.91a21.82,21.82,0,0,1,2.43,0,1.17,1.17,0,0,1,.74.66c.8,1.78,1.54,3.58,2.31,5.37a1.44,1.44,0,0,0,.51.67V87h2.59c0,.27.07.54.07.81,0,3.65,0,7.29,0,10.94,0,.69-.19.94-.91.92-2.18-.08-1.62.28-2.47-1.56-.73-1.6-1.42-3.22-2.14-4.83a1.18,1.18,0,0,0-.49-.57v6.87H151Z"/><path class="a" d="M179.75,87a40.83,40.83,0,0,1,4.71,0c2.07.24,3.3,2.45,2.8,4.87a4.53,4.53,0,0,1-.9,1.92,1,1,0,0,0-.06,1.39c.79,1.29,1.54,2.59,2.3,3.89.07.13.12.27.24.55-1.07,0-2,0-3,0-.21,0-.46-.38-.59-.63-.55-1-1.07-2.07-1.56-3.11-.24-.51-.55-.75-1.19-.43,0,1.11,0,2.27,0,3.42,0,.63-.22.82-.82.8-2.41,0-1.92.27-1.94-1.92,0-3.23,0-6.46,0-9.7Zm2.75,4.2a7.35,7.35,0,0,0,0,.94c.05.31.18.88.25.87a1.84,1.84,0,0,0,1.31-3.29,2.3,2.3,0,0,0-1.29-.32c-.08,0-.22.56-.27.87A7.2,7.2,0,0,0,182.5,91.16Z"/><path class="a" d="M92.09,93.21c0-1.79,0-3.59,0-5.38,0-.63.18-.91.85-.87.94.05,1.89,0,2.83,0,2.7,0,4.66,1.43,5,4.1a14.33,14.33,0,0,1-.18,4.93,4.32,4.32,0,0,1-4.32,3.53c-1.16.08-2.33,0-3.49,0-.61,0-.74-.28-.73-.81,0-1.85,0-3.71,0-5.56Zm2.62,0c0,1.07,0,2.14,0,3.2,0,.68.28.87.91.85a2.31,2.31,0,0,0,2.52-1.94,14,14,0,0,0,0-4,2.54,2.54,0,0,0-2.33-2.14c-.73-.12-1.14,0-1.1.91C94.75,91.17,94.71,92.21,94.71,93.24Z"/><path class="a" d="M90.55,99.57a25.66,25.66,0,0,1-2.68,0,1.26,1.26,0,0,1-.8-.62c-.56-1-1-2.09-1.6-3.09-.16-.28-.6-.4-.91-.59a2.75,2.75,0,0,0-.37.85c0,.87,0,1.76,0,2.64,0,.57-.15.86-.79.85-2.17,0-1.8.14-1.81-1.71,0-3.3,0-6.6,0-9.9,0-.78.21-1.06,1-1,1,.07,2.07,0,3.11,0a3.3,3.3,0,0,1,3.23,2.88,4.74,4.74,0,0,1-1,4.16,1.21,1.21,0,0,0,0,1c.56,1.08,1.22,2.12,1.84,3.18C90,98.61,90.22,99,90.55,99.57Zm-6.38-8.43a5.76,5.76,0,0,0,0,.93c.06.34.21,1,.32,1a2.14,2.14,0,0,0,1.28-.33,2.37,2.37,0,0,0,.09-3,2.33,2.33,0,0,0-1.34-.4c-.1,0-.27.65-.35,1A3.92,3.92,0,0,0,84.17,91.14Z"/><path class="a" d="M111,91.66c.76-1.33,1.54-2.64,2.27-4a1.17,1.17,0,0,1,1.27-.72c.68.05,1.37,0,2.25,0-1,1.61-1.87,3.15-2.9,4.55a2.05,2.05,0,0,0,0,2.75c1.1,1.63,2,3.38,3.13,5.28-1.11,0-2,0-3,0-.24,0-.49-.44-.64-.73-.81-1.51-1.58-3-2.55-4.55v5.32c-.83,0-1.51,0-2.19,0a.73.73,0,0,1-.46-.52c0-4,0-7.91,0-12h2.61v4.6Z"/><path class="a" d="M127.31,99.56a15.13,15.13,0,0,1-2.24,0c-.23,0-.47-.52-.57-.84a20.11,20.11,0,0,1-.45-2.21.77.77,0,0,0-.91-.72c-2.46.06-1.92-.33-2.53,1.9a.29.29,0,0,0,0,.09c-.47,2-.83,2.21-3.06,1.66l.84-3.05c.78-2.88,1.57-5.75,2.34-8.63.14-.51.34-.82,1-.76a16,16,0,0,0,2.08,0,.7.7,0,0,1,.84.64c.89,3.82,1.81,7.64,2.72,11.46A2.64,2.64,0,0,1,127.31,99.56Zm-4.65-10.37-.25,0-.66,3.87c-.1.53.21.71.64.64s.94-.32.93-.43C123.15,91.92,122.89,90.56,122.66,89.19Z"/><path class="a" d="M177.38,87a.86.86,0,0,1,.08.22c0,2.56.19,2-1.9,2.05s-1.74-.28-1.82,1.8c0,.8.17,1.18,1,1.07.46,0,.94,0,1.41,0,.84-.1,1.05.24,1.07,1.06s-.25,1.34-1.21,1.19a5.9,5.9,0,0,0-.94,0c-1.36,0-1.36,0-1.36,1.4,0,1.6-.15,1.45,1.48,1.46h1c1.52,0,2,.57,1.52,2a.79.79,0,0,1-.61.38c-1.85,0-3.71,0-5.56,0A.85.85,0,0,1,171,99c0-4,0-8,0-12Z"/><path class="a" d="M142.25,99.64V87h6.36a13.7,13.7,0,0,1,0,1.81c0,.18-.41.43-.65.44-.78.06-1.57,0-2.35.06a1,1,0,0,0-.67.63c-.26,2.17-.22,2.2,2,2.19a2.62,2.62,0,0,1,.28,0c.38.07,1.06.06,1.1.22a5.19,5.19,0,0,1,0,1.76c0,.1-.4.23-.62.24-.69,0-1.38,0-2.07,0-.53,0-.72.22-.72.74,0,2.6-.23,2.06,2,2.12a5.9,5.9,0,0,0,.94,0c.88-.12,1.23.18,1.18,1.12-.07,1.31,0,1.31-1.36,1.31Z"/><path class="a" d="M72.82,87h6.41c0,.52,0,1,0,1.49s-.22.72-.73.71c-.79,0-1.57,0-2.36,0-.51,0-.71.2-.75.71-.21,2.29-.21,2.28,2.08,2.32.63,0,1.49-.34,1.47.93,0,.93-.28,1.27-1.17,1.13a2.81,2.81,0,0,0-.29,0c-2.29,0-2.27,0-2.1,2.3,0,.52.25.72.76.71.78,0,1.57,0,2.35,0s1.1.23,1,1c0,.37,0,.75,0,1.29H77.66c-1.38,0-2.76,0-4.14,0-.24,0-.67-.32-.67-.5C72.81,95.07,72.82,91.09,72.82,87Z"/><path class="a" d="M64.27,96.82c.76.19,1.39.39,2,.5a1.49,1.49,0,0,0,1.82-1c.3-.8-.17-1.31-.8-1.71s-1-.61-1.53-.92A3.79,3.79,0,0,1,64,89.38a3.45,3.45,0,0,1,3.84-2.5,21.23,21.23,0,0,1,2.78.55l-.77,2.07a10.62,10.62,0,0,0-2-.32c-.42,0-1.1.31-1.19.62A1.67,1.67,0,0,0,67,91.16a17.28,17.28,0,0,0,2.14,1.53C71,94,71.09,95.27,70.72,97.06a3.67,3.67,0,0,1-3.67,2.69,10.63,10.63,0,0,1-2.65-.52c-.71-.18-1-.63-.56-1.34A8.22,8.22,0,0,0,64.27,96.82Z"/><path class="a" d="M139.86,89.63c-.86-.16-1.59-.34-2.34-.41a2,2,0,0,0-2.22,1.38,6.47,6.47,0,0,0,.06,5.21,2.45,2.45,0,0,0,2.7,1.45c.62-.07,1.23-.2,1.94-.33a13.82,13.82,0,0,1,.35,1.84c0,.19-.32.49-.55.59-3.63,1.52-7-.28-7.6-4.14a9.1,9.1,0,0,1,.65-5.7,5.26,5.26,0,0,1,7-2.28,1,1,0,0,1,.4.83A9.48,9.48,0,0,1,139.86,89.63Z"/><path class="a" d="M161.19,87h8.23c0,.17.07.28.08.4.08,1.88.07,1.92-1.77,1.88-.87,0-1,.3-1,1.09,0,2.76,0,5.52,0,8.28,0,.75-.16,1.06-1,1-2.07-.08-1.75.22-1.77-1.74,0-2.54,0-5.08,0-7.62,0-.74-.16-1.06-1-1-2,0-2,0-1.88-2A1.05,1.05,0,0,1,161.19,87Z"/><path class="a" d="M103.08,87h2.57c0,.34.06.64.06,1,0,3.51,0,7,0,10.53,0,.88-.27,1.13-1.12,1.09-1.73-.07-1.53.14-1.53-1.5,0-3.29,0-6.58,0-9.88Z"/></svg>