<svg xmlns="http://www.w3.org/2000/svg" viewBox="0 0 253.31 180.22"><defs><style>.a{fill:#828282;fill-rule:evenodd;}</style></defs><path class="a" d="M172.64,85.06V82.48H158.92v2.58h.16l2.58.16c.06.06.17.16.27.27a104.88,104.88,0,0,1,8.78,9.31V95a19.94,19.94,0,0,1-.22,5.17v.05a12.52,12.52,0,0,1-4.09.33v2.58h15.07v-2.58h-.16a14.48,14.48,0,0,1-3.82-.27v-.11a15.11,15.11,0,0,1-.38-5.33h.11c2.9-3.17,5.86-6.35,8.82-9.47h.17a9,9,0,0,1,2.85-.27V82.48h-.16c-3.72-.06-7.27,0-10.71.16v2.42h.1c1-.16,1.62,0,1.94.43a.17.17,0,0,1,0,.11,20.49,20.49,0,0,1-4.85,5.27,17.23,17.23,0,0,1-2.85-2.42,9.69,9.69,0,0,1-2-3v-.11a3.34,3.34,0,0,1,2.15-.32Z"/><path class="a" d="M136.1,82.64H125.39v.11a7.33,7.33,0,0,0,.11,2.47h.16a5.48,5.48,0,0,1,3.77.54c.16,0,.27,0,.27.22.1,3.28.16,6.62.21,10.06a11.61,11.61,0,0,1-.59,4.36h-.11a10.78,10.78,0,0,1-3.82.27v2.53H138v-2.53h-.1a6.55,6.55,0,0,1-3.93-.54.76.76,0,0,1-.11-.27,84.52,84.52,0,0,1-.05-11.14,20.75,20.75,0,0,0,2.58,2.75c3.77,3.44,7.48,7,11.19,10.54.43.38.81.81,1.29,1.19H149a28,28,0,0,0,4.79-.11,3.9,3.9,0,0,1,0-1.08c-.05-4-.11-8.07-.16-12.05a13.85,13.85,0,0,1,.38-4.2c0-.05,0-.11.05-.11a5.89,5.89,0,0,1,3.39-.43V82.64H145.3v.11a7.6,7.6,0,0,0,.11,2.47h.16a4.33,4.33,0,0,1,3.55.54h.06a55.69,55.69,0,0,1,0,9,3.72,3.72,0,0,0-.43-.48q-6.3-5.89-12.59-11.68Z"/><path class="a" d="M120.38,84.52a19.42,19.42,0,0,0-8.28-2.58,27.9,27.9,0,0,0-10.07.48c-4.9,1.24-7.8,4.52-8.66,9.69.1,3.66,1.18,6.24,3.23,7.91a14.41,14.41,0,0,0,3.28,2A24.19,24.19,0,0,0,111,103.57a20.32,20.32,0,0,0,7-1.56,11.74,11.74,0,0,0,5.17-4.52,8.29,8.29,0,0,0,1.13-4.84c-.05-3.88-1.4-6.62-3.88-8.13ZM103,99c-1.73-1.62-2.59-4-2.53-7.38q1.2-8.14,10.71-7a5.86,5.86,0,0,1,2.58.91.79.79,0,0,0,.43.11c2.64,1.88,3.55,5,2.8,9.31a6.72,6.72,0,0,1-6.19,5.76c-3.44.48-6-.16-7.8-1.72Z"/><path class="a" d="M86.1,82.53a1.08,1.08,0,0,0-.65,1c-.1.38-.37.43-.75.22a16.36,16.36,0,0,0-5.92-1.67c-6.3-.7-11,.54-14.1,3.66v.11a12.74,12.74,0,0,0-.81,2.42v.16a6.37,6.37,0,0,0,.81,3,9.66,9.66,0,0,0,5.54,2.85c2.26.37,4.58.7,7,1a14.75,14.75,0,0,1,7,2.26v.16a2.25,2.25,0,0,1-.7,2.15,13.62,13.62,0,0,1-4.85,1c-5.92.22-9.79-1.61-11.51-5.49H64v7.7h3.18a7.07,7.07,0,0,1,.48-1.08c.06-.16.06-.21.11-.26s.06-.11.11-.06a11.3,11.3,0,0,1,1.24.32l4.79,1.08a22.31,22.31,0,0,0,11.62-.43,11.44,11.44,0,0,0,1.51-.65,6.31,6.31,0,0,0,2.85-3.92c.43-1.83.16-3.18-.81-4.1a14.3,14.3,0,0,0-8.66-3.39,39.62,39.62,0,0,1-10.17-2.15c-.06,0-.06,0-.06-.11a1.76,1.76,0,0,1-.53-1.23c.8-1.62,2.47-2.48,4.89-2.59,4.9-.27,8.61,1.13,11.14,4v.16a3,3,0,0,0,.38,1.08H89V82.48H86.26a.2.2,0,0,0-.16,0Z"/></svg>