<svg xmlns="http://www.w3.org/2000/svg" viewBox="0 0 253.31 180.22"><defs><style>.a{fill:#848482;}</style></defs><path class="a" d="M74.16,88.48A4.49,4.49,0,0,0,77,84.23c0-3.39-2.64-5.34-7.23-5.34a15.59,15.59,0,0,0-5.79,1l-.08,0V97.77l.07,0a16.19,16.19,0,0,0,5.85,1c4.88,0,7.68-2,7.68-5.62A5,5,0,0,0,74.16,88.48ZM73.57,93c0,1.89-1.24,2.81-3.81,2.81a7.81,7.81,0,0,1-2.12-.29V90.14h2.28a4.26,4.26,0,0,1,2.52.59h0A2.49,2.49,0,0,1,73.57,93Zm-5.93-5.71v-5a7.41,7.41,0,0,1,2.1-.28c2.26,0,3.46.9,3.46,2.62a2.7,2.7,0,0,1-.88,2.1,3.64,3.64,0,0,1-2.45.6Z"/><path class="a" d="M85.56,83.77c-4.08,0-6.71,3-6.71,7.52s2.79,7.55,7.29,7.55a13.3,13.3,0,0,0,5.07-.93.38.38,0,0,0,.19-.49l-.83-2.18a.41.41,0,0,0-.21-.22.37.37,0,0,0-.31,0,9.44,9.44,0,0,1-3.65.76,3.47,3.47,0,0,1-3.79-2.9l9-1.22h.09l0-.09a10.37,10.37,0,0,0,.05-1.23C91.79,86.29,89.4,83.77,85.56,83.77Zm2.51,5.84-5.71.78c.09-2.37,1.25-3.78,3.12-3.78C87.12,86.61,88,87.67,88.07,89.61Z"/><path class="a" d="M102.31,84.34a.39.39,0,0,0-.36-.26H97.87a.39.39,0,0,0-.36.26L92.69,98a.4.4,0,0,0,.36.52h3.46a.4.4,0,0,0,.37-.28l2.76-9.56a9,9,0,0,0,.26-1.14c.07.32.16.74.28,1.14L103,98.25a.38.38,0,0,0,.36.28h3.48a.39.39,0,0,0,.37-.52Z"/><path class="a" d="M120.17,84.08h-3a.4.4,0,0,0-.39.39v11a6.67,6.67,0,0,1-2,.3c-1.53,0-2.38-.77-2.38-2.17V84.47a.39.39,0,0,0-.39-.39h-3.07a.4.4,0,0,0-.39.39v9.46c0,3.21,2.18,4.91,6.29,4.91a15,15,0,0,0,5.71-1l.07,0V84.47A.39.39,0,0,0,120.17,84.08Z"/><path class="a" d="M134.61,84.08h-3.05a.39.39,0,0,0-.38.39v5.44h-4.33V84.47a.39.39,0,0,0-.38-.39h-3a.4.4,0,0,0-.39.39V98.14a.4.4,0,0,0,.39.39h3a.39.39,0,0,0,.38-.39v-5.6h4.33v5.6a.39.39,0,0,0,.38.39h3.05a.39.39,0,0,0,.39-.39V84.47A.39.39,0,0,0,134.61,84.08Z"/><path class="a" d="M146.17,95.18A.41.41,0,0,0,146,95a.4.4,0,0,0-.32,0,8.09,8.09,0,0,1-3,.76c-1.22,0-2-.56-2-1.44s.74-1.35,2.11-1.84c1.74-.64,4.13-1.52,4.13-4.4,0-2.66-2-4.31-5.33-4.31a9.63,9.63,0,0,0-4.21.92.39.39,0,0,0-.17.51l.88,2a.36.36,0,0,0,.22.2.37.37,0,0,0,.31,0,6.43,6.43,0,0,1,2.52-.66c1.14,0,1.88.53,1.88,1.35,0,1-.86,1.4-2.08,1.84l-.09,0c-1.85.67-4.15,1.51-4.15,4.42s2.2,4.52,5.89,4.52a11,11,0,0,0,4.41-.93.37.37,0,0,0,.18-.49Z"/><path class="a" d="M154.31,83.77a12.39,12.39,0,0,0-5.24,1l-.07,0v19a.39.39,0,0,0,.39.38h3.05a.38.38,0,0,0,.38-.38v-5.4a7.36,7.36,0,0,0,1.94.27c4.23,0,6.76-2.78,6.76-7.44S158.89,83.77,154.31,83.77Zm3.36,7.47c0,2.8-1.22,4.47-3.28,4.47a5.56,5.56,0,0,1-1.57-.23V87.05a4.44,4.44,0,0,1,1.55-.25C156.47,86.8,157.67,88.42,157.67,91.24Z"/><path class="a" d="M168.89,83.77h0a14.62,14.62,0,0,0-5,.94.37.37,0,0,0-.21.49l.71,1.92a.34.34,0,0,0,.2.22.36.36,0,0,0,.29,0,11.43,11.43,0,0,1,3.69-.74c1.71,0,2.55.63,2.55,1.91v.63c-4.34.25-8.33,1-8.33,5,0,3,2.31,4.7,6.52,4.7a13.25,13.25,0,0,0,5.38-1l.06,0V89.61a5.84,5.84,0,0,0-5.84-5.84Zm2.21,7.91V95.8a7,7,0,0,1-1.92.25c-1.81,0-2.8-.71-2.8-2C166.38,92.1,168.41,91.82,171.1,91.68Z"/><path class="a" d="M189,84.81a11.93,11.93,0,0,0-5.06-1c-4.69,0-7.39,2.66-7.39,7.31,0,4.19,2.44,6.89,6.21,6.89a6.94,6.94,0,0,0,2.51-.44v.69c0,2-1,2.94-3,2.94a9.14,9.14,0,0,1-3.7-.73.42.42,0,0,0-.31,0,.4.4,0,0,0-.21.23l-.84,2.31a.37.37,0,0,0,.2.48,12.62,12.62,0,0,0,5.23,1c4.06,0,6.39-2.27,6.39-6.23V84.84ZM185.26,87v7.65a4.67,4.67,0,0,1-1.75.35c-2,0-3.15-1.48-3.15-4.07s1.16-4.18,3.26-4.18A5,5,0,0,1,185.26,87Z"/></svg>