<svg xmlns="http://www.w3.org/2000/svg" width="323.794" height="162.185" viewBox="0 0 323.794 162.185"><g transform="translate(-3826.47 108.981)"><path d="M3907.418-108.981H3826.47V53.2h80.948l80.948-81.093Z" fill="#fff"/><path d="M4069.315-108.981l-80.948,81.093L4069.315,53.2h80.949V-108.981Z" fill="#fff"/><path d="M3850.719-86.352c0-3.159.055-6.962.126-9.118h-.128c-.747,3.846-2.128,10.271-3.535,15.953h-3.412c-1.038-5.064-2.448-12.218-3.128-16.008h-.139c.141,2.2.224,6.2.224,9.457v6.551h-3.571v-18.86H3843c1.082,4.577,2.262,10.291,2.7,13.158h.028c.4-2.609,1.981-8.65,3.094-13.158h5.645v18.86h-3.749Z"/><path d="M3867.422-87.688h-7.2v4.913h8.011l-.469,3.258h-11.369v-18.86h11.339v3.3h-7.512v4.106h7.2Z"/><path d="M3874.194-95.08h-4.576v-3.3h13.08v3.3h-4.576v15.563h-3.928Z"/><path d="M3887.06-83.877l-1.066,4.36h-3.867c.023-.069,5.067-18.782,5.093-18.86h5.068l5.276,18.86h-4.093l-1.127-4.36Zm4.562-3.286c-.888-3.532-1.56-6.166-1.94-8h-.052c-.346,1.932-1.061,4.784-1.863,8Z"/><path d="M4087,42.569l-4.033-18.86h4.188c.677,4.046,1.7,10.313,2.054,14.012h.027c.678-3.767,2.066-9.7,2.946-14.012h3.479c.78,3.556,2.239,10.009,2.821,13.807h.04c.522-4.232,1.827-10.75,2.287-13.807h3.84l-4.274,18.86h-3.956c-.806-4.035-2.066-9.306-2.663-12.95h-.04c-.628,3.678-1.969,9.371-2.761,12.95Z"/><path d="M4110.789,23.709v18.86h-3.912V23.709Z"/><path d="M4116.666,37.074c.214,1.537,1.032,2.749,2.863,2.749,1.9,0,2.476-.955,2.476-2.173,0-1.565-.917-2.323-3.415-3.222-3.935-1.366-5.322-2.871-5.322-5.639,0-3.379,2.5-5.354,6.053-5.354,4.5,0,6.057,2.6,6.2,5.436h-3.83c-.174-1.21-.63-2.434-2.415-2.434a1.851,1.851,0,0,0-2.125,1.991c0,1.309.773,1.762,3.193,2.626,4.207,1.476,5.625,3.233,5.625,6.177,0,3.018-1.95,5.623-6.6,5.623-4.283,0-6.4-2.407-6.579-5.78Z"/><path d="M4139.274,34.4h-7.2v4.913h8.011l-.468,3.258h-11.37V23.709h11.339v3.3h-7.512v4.106h7.2Z"/></g></svg>