<svg xmlns="http://www.w3.org/2000/svg" width="162.401" height="423.772" viewBox="0 0 162.401 423.772"><g transform="translate(-685.599 -228)"><g transform="translate(185.599 32)"><g transform="translate(-3859.259 2370.239)"><g transform="translate(4360.259 -2123.239)" fill="none" stroke="#8623b8" stroke-miterlimit="10" stroke-width="0.945"><rect width="39.543" height="39.543" stroke="none"/><rect x="0.472" y="0.472" width="38.598" height="38.598" fill="none"/></g><path d="M4370.8-2110.742l-1.8-1.039-1.8,1.039-1.8,1.039v8.315l1.8,1.039,1.8,1.039v-8.315l1.8,1.039,1.8,1.039v-4.157Z" fill="#8623b8"/><path d="M4374.4-2106.585l1.8-1.039,1.8,1.039,1.8,1.039v8.315l-1.8,1.039-1.8,1.039v-8.315l-1.8,1.039-1.8,1.039v-4.157Z" fill="#8623b8"/><path d="M4389.26-2100.349l1.8,1.039,1.8-1.039,1.8-1.039v-8.315l-1.8-1.039-1.8-1.04v8.315l-1.8-1.039-1.8-1.039v4.157Z" fill="#8623b8"/><path d="M4385.66-2096.192l-1.8,1.039-1.8-1.039-1.8-1.039v-8.315l1.8-1.039,1.8-1.039v8.315l1.8-1.039,1.8-1.039v4.157Z" fill="#8623b8"/></g><g transform="translate(-3859.259 2427.153)"><rect width="39.543" height="39.543" transform="translate(4360.259 -2082.153)" fill="#8623b8"/><path d="M4370.8-2069.657l-1.8-1.039-1.8,1.039-1.8,1.039v8.315l1.8,1.039,1.8,1.04v-8.315l1.8,1.039,1.8,1.039v-4.157Z" fill="#fff"/><path d="M4374.4-2065.5l1.8-1.039,1.8,1.039,1.8,1.04v8.315l-1.8,1.039-1.8,1.039v-8.315l-1.8,1.039-1.8,1.039v-4.157Z" fill="#fff"/><path d="M4389.26-2059.263l1.8,1.039,1.8-1.039,1.8-1.04v-8.315l-1.8-1.039-1.8-1.039v8.315l-1.8-1.039-1.8-1.039v4.157Z" fill="#fff"/><path d="M4385.66-2055.106l-1.8,1.039-1.8-1.039-1.8-1.039v-8.315l1.8-1.039,1.8-1.04v8.315l1.8-1.039,1.8-1.039v4.157Z" fill="#fff"/></g><g transform="translate(-3860.031 2484.068)"><g transform="translate(4360.031 -2041.068)" stroke="#000" stroke-miterlimit="10" stroke-width="0.945"><rect width="39.543" height="39.543" stroke="none"/><rect x="0.472" y="0.472" width="38.598" height="38.598" fill="none"/></g><path d="M4370.573-2028.572l-1.8-1.039-1.8,1.039-1.8,1.039v8.315l1.8,1.039,1.8,1.039v-8.315l1.8,1.039,1.8,1.039v-4.157Z" fill="#8623b8"/><path d="M4374.173-2024.415l1.8-1.039,1.8,1.039,1.8,1.039v8.315l-1.8,1.039-1.8,1.039v-8.315l-1.8,1.039-1.8,1.039v-4.157Z" fill="#8623b8"/><path d="M4389.032-2018.178l1.8,1.039,1.8-1.039,1.8-1.039v-8.315l-1.8-1.039-1.8-1.039v8.315l-1.8-1.039-1.8-1.039v4.157Z" fill="#8623b8"/><path d="M4385.432-2014.021l-1.8,1.039-1.8-1.039-1.8-1.039v-8.315l1.8-1.039,1.8-1.039v8.315l1.8-1.039,1.8-1.039v4.157Z" fill="#8623b8"/></g><g transform="translate(-3859.802 2540.982)"><g transform="translate(4359.802 -1999.983)" stroke="#000" stroke-miterlimit="10" stroke-width="0.945"><rect width="39.543" height="39.543" stroke="none"/><rect x="0.472" y="0.472" width="38.598" height="38.598" fill="none"/></g><path d="M4370.345-1987.486l-1.8-1.039-1.8,1.039-1.8,1.039v8.315l1.8,1.039,1.8,1.039v-8.315l1.8,1.039,1.8,1.039v-4.157Z" fill="#fff"/><path d="M4373.945-1983.329l1.8-1.039,1.8,1.039,1.8,1.039v8.315l-1.8,1.039-1.8,1.039v-8.315l-1.8,1.039-1.8,1.039v-4.157Z" fill="#fff"/><path d="M4388.8-1977.093l1.8,1.039,1.8-1.039,1.8-1.039v-8.315l-1.8-1.039-1.8-1.039v8.315l-1.8-1.039-1.8-1.039v4.157Z" fill="#fff"/><path d="M4385.2-1972.936l-1.8,1.039-1.8-1.039-1.8-1.039v-8.315l1.8-1.039,1.8-1.039v8.315l1.8-1.039,1.8-1.039v4.157Z" fill="#fff"/></g></g><g transform="translate(53 -19)"><g transform="translate(-3894.042 2370.438)"><g transform="translate(4648.641 -2123.438)" fill="none" stroke="#8623b8" stroke-miterlimit="10" stroke-width="0.956"><rect width="40" height="40" rx="20" stroke="none"/><rect x="0.478" y="0.478" width="39.044" height="39.044" rx="19.522" fill="none"/></g><path d="M4659.3-2108.738l-1.821-1.051-1.821,1.051-1.821,1.051v8.411l1.821,1.051,1.821,1.052v-8.411l1.821,1.051,1.821,1.052v-4.206Z" fill="#8623b8"/><path d="M4662.947-2104.533l1.821-1.051,1.821,1.051,1.821,1.052v8.411l-1.821,1.051-1.821,1.052v-8.411l-1.821,1.052-1.821,1.051v-4.205Z" fill="#8623b8"/><path d="M4677.977-2098.225l1.821,1.052,1.821-1.052,1.821-1.051v-8.411l-1.821-1.052-1.821-1.051v8.411l-1.821-1.051-1.821-1.051v4.205Z" fill="#8623b8"/><path d="M4674.335-2094.02l-1.821,1.051-1.821-1.051-1.821-1.052v-8.411l1.821-1.052,1.821-1.051v8.411l1.821-1.052,1.821-1.051v4.205Z" fill="#8623b8"/></g><g transform="translate(-3894.042 2425.374)"><g transform="translate(4648.641 -2080.374)" fill="#8623b8" stroke="#8623b8" stroke-miterlimit="10" stroke-width="0.956"><rect width="40" height="40" rx="20" stroke="none"/><rect x="0.478" y="0.478" width="39.044" height="39.044" rx="19.522" fill="none"/></g><path d="M4659.3-2065.674l-1.821-1.051-1.821,1.051-1.821,1.051v8.411l1.821,1.051,1.821,1.051v-8.411l1.821,1.051,1.821,1.051v-4.205Z" fill="#fff"/><path d="M4662.947-2061.469l1.821-1.051,1.821,1.051,1.821,1.051v8.411l-1.821,1.051-1.821,1.052v-8.411l-1.821,1.051-1.821,1.052v-4.206Z" fill="#fff"/><path d="M4677.977-2055.161l1.821,1.051,1.821-1.051,1.821-1.051v-8.411l-1.821-1.051-1.821-1.051v8.411l-1.821-1.051-1.821-1.051v4.205Z" fill="#fff"/><path d="M4674.335-2050.956l-1.821,1.052-1.821-1.052-1.821-1.051v-8.411l1.821-1.051,1.821-1.051v8.411l1.821-1.051,1.821-1.051v4.205Z" fill="#fff"/></g><g transform="translate(-3894.042 2477.196)"><g transform="translate(4648.641 -2034.196)" stroke="#000" stroke-miterlimit="10" stroke-width="0.956"><rect width="40" height="40" rx="20" stroke="none"/><rect x="0.478" y="0.478" width="39.044" height="39.044" rx="19.522" fill="none"/></g><path d="M4659.3-2019.984l-1.821-1.051-1.821,1.051-1.821,1.051v8.411l1.821,1.051,1.821,1.051v-8.411l1.821,1.051,1.821,1.051v-4.205Z" fill="#8623b8"/><path d="M4662.947-2015.779l1.821-1.051,1.821,1.051,1.821,1.051v8.411l-1.821,1.051-1.821,1.051v-8.411l-1.821,1.051-1.821,1.051v-4.205Z" fill="#8623b8"/><path d="M4677.977-2009.471l1.821,1.051,1.821-1.051,1.821-1.051v-8.411l-1.821-1.051-1.821-1.051v8.411l-1.821-1.051-1.821-1.051v4.205Z" fill="#8623b8"/><path d="M4674.335-2005.266l-1.821,1.051-1.821-1.051-1.821-1.051v-8.411l1.821-1.051,1.821-1.051v8.411l1.821-1.051,1.821-1.051v4.205Z" fill="#8623b8"/></g><g transform="translate(-3893.641 2529.854)"><g transform="translate(4648.641 -1989.311)" stroke="#000" stroke-miterlimit="10" stroke-width="0.956"><rect width="40" height="40" rx="20" stroke="none"/><rect x="0.478" y="0.478" width="39.044" height="39.044" rx="19.522" fill="none"/></g><path d="M4659.3-1975.1l-1.821-1.051-1.821,1.051-1.821,1.051v8.411l1.821,1.051,1.821,1.051v-8.411l1.821,1.051,1.821,1.051v-4.205Z" fill="#fff"/><path d="M4662.947-1970.893l1.821-1.051,1.821,1.051,1.821,1.051v8.411l-1.821,1.051-1.821,1.051v-8.411l-1.821,1.051-1.821,1.051v-4.205Z" fill="#fff"/><path d="M4677.977-1964.585l1.821,1.051,1.821-1.051,1.821-1.051v-8.411l-1.821-1.051-1.821-1.051v8.411l-1.821-1.051-1.821-1.051v4.205Z" fill="#fff"/><path d="M4674.335-1960.38l-1.821,1.051-1.821-1.051-1.821-1.051v-8.411l1.821-1.051,1.821-1.051v8.411l1.821-1.051,1.821-1.051v4.205Z" fill="#fff"/></g></g><g transform="translate(-251.315 -408)"><g transform="translate(391.914 489)"><g transform="translate(-3853.943 2380.239)"><g transform="translate(4452.943 -2123.239)" fill="none" stroke="#8623b8" stroke-miterlimit="10" stroke-width="0.472"><rect width="19.772" height="19.772" stroke="none"/><rect x="0.236" y="0.236" width="19.299" height="19.299" fill="none"/></g><path d="M4458.214-2116.99l-.9-.52-.9.52-.9.52v4.157l.9.52.9.52v-4.157l.9.52.9.52v-2.079Z" fill="#8623b8"/><path d="M4460.015-2114.912l.9-.52.9.52.9.52v4.157l-.9.52-.9.52v-4.157l-.9.52-.9.52v-2.079Z" fill="#8623b8"/><path d="M4467.444-2111.794l.9.52.9-.52.9-.52v-4.157l-.9-.52-.9-.52v4.157l-.9-.52-.9-.52v2.079Z" fill="#8623b8"/><path d="M4465.644-2109.715l-.9.52-.9-.52-.9-.52v-4.157l.9-.52.9-.52v4.157l.9-.52.9-.52v2.079Z" fill="#8623b8"/></g><g transform="translate(-3853.943 2457.696)"><rect width="19.772" height="19.772" transform="translate(4452.943 -2102.696)" fill="#8623b8"/><path d="M4458.214-2096.448l-.9-.52-.9.52-.9.52v4.157l.9.52.9.52v-4.157l.9.52.9.52v-2.079Z" fill="#fff"/><path d="M4460.015-2094.369l.9-.52.9.52.9.52v4.157l-.9.52-.9.52v-4.157l-.9.52-.9.52v-2.079Z" fill="#fff"/><path d="M4467.444-2091.251l.9.52.9-.52.9-.52v-4.157l-.9-.52-.9-.52v4.157l-.9-.52-.9-.52v2.079Z" fill="#fff"/><path d="M4465.644-2089.173l-.9.52-.9-.52-.9-.52v-4.157l.9-.52.9-.52v4.157l.9-.52.9-.52v2.079Z" fill="#fff"/></g><g transform="translate(-3853.829 2535.153)"><g transform="translate(4452.829 -2082.153)" stroke="#000" stroke-miterlimit="10" stroke-width="0.472"><rect width="19.772" height="19.772" stroke="none"/><rect x="0.236" y="0.236" width="19.299" height="19.299" fill="none"/></g><path d="M4458.1-2075.905l-.9-.52-.9.52-.9.52v4.157l.9.52.9.52v-4.157l.9.52.9.52v-2.079Z" fill="#8623b8"/><path d="M4459.9-2073.827l.9-.52.9.52.9.52v4.157l-.9.52-.9.52v-4.157l-.9.52-.9.52v-2.079Z" fill="#8623b8"/><path d="M4467.33-2070.708l.9.52.9-.52.9-.52v-4.157l-.9-.52-.9-.52v4.157l-.9-.52-.9-.52v2.079Z" fill="#8623b8"/><path d="M4465.529-2068.63l-.9.52-.9-.52-.9-.52v-4.157l.9-.52.9-.52v4.157l.9-.52.9-.52v2.079Z" fill="#8623b8"/></g><g transform="translate(-3853.715 2612.611)"><g transform="translate(4452.715 -2061.611)" stroke="#000" stroke-miterlimit="10" stroke-width="0.472"><rect width="19.772" height="19.772" stroke="none"/><rect x="0.236" y="0.236" width="19.299" height="19.299" fill="none"/></g><path d="M4457.986-2055.363l-.9-.52-.9.52-.9.52v4.157l.9.52.9.52v-4.157l.9.52.9.52v-2.079Z" fill="#fff"/><path d="M4459.786-2053.284l.9-.52.9.52.9.52v4.157l-.9.52-.9.52v-4.157l-.9.52-.9.52v-2.079Z" fill="#fff"/><path d="M4467.215-2050.166l.9.52.9-.52.9-.52v-4.157l-.9-.52-.9-.52v4.157l-.9-.52-.9-.52v2.079Z" fill="#fff"/><path d="M4465.415-2048.087l-.9.52-.9-.52-.9-.52v-4.157l.9-.52.9-.52v4.157l.9-.52.9-.52v2.079Z" fill="#fff"/></g></g><g transform="translate(349 440.457)"><g transform="translate(-4045.751 2334.271)"><g transform="translate(4722.437 -2077.728)" fill="none" stroke="#8623b8" stroke-miterlimit="10" stroke-width="0.478"><rect width="20" height="20" rx="10" stroke="none"/><rect x="0.239" y="0.239" width="19.522" height="19.522" rx="9.761" fill="none"/></g><path d="M4727.769-2070.378l-.911-.526-.91.526-.911.526v4.205l.911.526.91.526v-4.205l.911.526.911.526v-2.1Z" fill="#8623b8"/><path d="M4729.59-2068.276l.91-.526.911.526.911.526v4.206l-.911.526-.911.526v-4.205l-.91.526-.911.526v-2.1Z" fill="#8623b8"/><path d="M4737.1-2065.122l.911.526.911-.526.911-.526v-4.206l-.911-.526-.911-.526v4.205l-.911-.526-.91-.526v2.1Z" fill="#8623b8"/><path d="M4735.284-2063.019l-.911.526-.91-.526-.911-.526v-4.206l.911-.526.91-.526v4.205l.911-.526.911-.526v2.1Z" fill="#8623b8"/></g><g transform="translate(-4045.751 2411.196)"><g transform="translate(4722.437 -2056.196)" fill="#8623b8" stroke="#8623b8" stroke-miterlimit="10" stroke-width="0.478"><rect width="20" height="20" rx="10" stroke="none"/><rect x="0.239" y="0.239" width="19.522" height="19.522" rx="9.761" fill="none"/></g><path d="M4727.769-2048.846l-.911-.526-.91.526-.911.526v4.205l.911.526.91.526v-4.205l.911.526.911.526v-2.1Z" fill="#fff"/><path d="M4729.59-2046.744l.91-.526.911.526.911.526v4.205l-.911.526-.911.526v-4.205l-.91.526-.911.526v-2.1Z" fill="#fff"/><path d="M4737.1-2043.59l.911.526.911-.526.911-.526v-4.205l-.911-.526-.911-.526v4.205l-.911-.526-.91-.526v2.1Z" fill="#fff"/><path d="M4735.284-2041.487l-.911.526-.91-.526-.911-.526v-4.205l.911-.526.91-.526v4.205l.911-.526.911-.526v2.1Z" fill="#fff"/></g><g transform="translate(-4045.751 2486.564)"><g transform="translate(4722.437 -2033.108)" stroke="#000" stroke-miterlimit="10" stroke-width="0.478"><rect width="20" height="20" rx="10" stroke="none"/><rect x="0.239" y="0.239" width="19.522" height="19.522" rx="9.761" fill="none"/></g><path d="M4727.769-2026l-.911-.526-.91.526-.911.526v4.205l.911.526.91.526v-4.205l.911.526.911.526v-2.1Z" fill="#8623b8"/><path d="M4729.59-2023.9l.91-.526.911.526.911.526v4.205l-.911.526-.911.526v-4.205l-.91.526-.911.526v-2.1Z" fill="#8623b8"/><path d="M4737.1-2020.745l.911.526.911-.526.911-.526v-4.205l-.911-.526-.911-.526v4.205l-.911-.526-.91-.526v2.1Z" fill="#8623b8"/><path d="M4735.284-2018.642l-.911.526-.91-.526-.911-.526v-4.205l.911-.526.91-.526v4.205l.911-.526.911-.526v2.1Z" fill="#8623b8"/></g><g transform="translate(-4045.437 2561.208)"><g transform="translate(4722.437 -2010.665)" stroke="#000" stroke-miterlimit="10" stroke-width="0.478"><rect width="20" height="20" rx="10" stroke="none"/><rect x="0.239" y="0.239" width="19.522" height="19.522" rx="9.761" fill="none"/></g><path d="M4727.769-2003.558l-.911-.526-.91.526-.911.526v4.205l.911.526.91.526v-4.205l.911.526.911.526v-2.1Z" fill="#fff"/><path d="M4729.59-2001.456l.91-.526.911.526.911.526v4.205l-.911.526-.911.526v-4.205l-.91.526-.911.526v-2.1Z" fill="#fff"/><path d="M4737.1-1998.3l.911.526.911-.526.911-.526v-4.205l-.911-.526-.911-.526v4.205l-.911-.526-.91-.526v2.1Z" fill="#fff"/><path d="M4735.284-1996.2l-.911.526-.91-.526-.911-.526v-4.205l.911-.526.91-.526v4.205l.911-.526.911-.526v2.1Z" fill="#fff"/></g></g></g></g></svg>