<svg xmlns="http://www.w3.org/2000/svg" xmlns:xlink="http://www.w3.org/1999/xlink" width="323.793" height="162.185" viewBox="0 0 323.793 162.185"><defs><linearGradient id="a" y1="0.5" x2="1" y2="0.5" gradientUnits="objectBoundingBox"><stop offset="0" stop-color="#7803ff"/><stop offset="0.28" stop-color="#8419ff"/><stop offset="0.742" stop-color="#9538ff"/><stop offset="1" stop-color="#9c44ff"/></linearGradient></defs><g transform="translate(-3110.153 108.981)"><path d="M3191.1-108.981h-80.948V53.2H3191.1l80.948-81.093Z" fill="url(#a)"/><path d="M3353-108.981l-80.948,81.093L3353,53.2h80.948V-108.981Z"/><path d="M3353-108.981l-80.948,81.093L3353,53.2h80.948V-108.981Z" fill="url(#a)"/><path d="M3134.4-86.352c0-3.159.055-6.962.126-9.118h-.127c-.747,3.846-2.128,10.271-3.535,15.953h-3.413c-1.038-5.064-2.448-12.218-3.127-16.008h-.14c.141,2.2.224,6.2.224,9.457v6.551h-3.57v-18.86h5.841c1.081,4.577,2.261,10.291,2.7,13.158h.028c.4-2.609,1.982-8.65,3.1-13.158h5.644v18.86H3134.4Z"/><path d="M3151.1-87.688h-7.2v4.913h8.01l-.468,3.258h-11.37v-18.86h11.339v3.3H3143.9v4.106h7.2Z"/><path d="M3157.877-95.08H3153.3v-3.3h13.081v3.3H3161.8v15.563h-3.927Z"/><path d="M3170.743-83.877l-1.066,4.36h-3.868c.024-.069,5.068-18.782,5.094-18.86h5.067l5.276,18.86h-4.092l-1.127-4.36Zm4.561-3.286c-.887-3.532-1.559-6.166-1.939-8h-.053c-.346,1.932-1.06,4.784-1.863,8Z"/><path d="M3370.682,42.569l-4.032-18.86h4.187c.677,4.046,1.7,10.313,2.054,14.012h.028c.678-3.767,2.066-9.7,2.946-14.012h3.479c.78,3.556,2.239,10.009,2.82,13.807h.04c.523-4.232,1.828-10.75,2.287-13.807h3.841l-4.274,18.86H3380.1c-.806-4.035-2.066-9.306-2.664-12.95h-.04c-.627,3.678-1.968,9.371-2.76,12.95Z"/><path d="M3394.471,23.709v18.86h-3.911V23.709Z"/><path d="M3400.349,37.074c.214,1.537,1.032,2.749,2.863,2.749,1.9,0,2.476-.955,2.476-2.173,0-1.565-.917-2.323-3.416-3.222-3.934-1.366-5.321-2.871-5.321-5.639,0-3.379,2.5-5.354,6.052-5.354,4.5,0,6.057,2.6,6.205,5.436h-3.831c-.173-1.21-.629-2.434-2.415-2.434a1.851,1.851,0,0,0-2.125,1.991c0,1.309.774,1.762,3.193,2.626,4.208,1.476,5.625,3.233,5.625,6.177,0,3.018-1.949,5.623-6.6,5.623-4.282,0-6.4-2.407-6.578-5.78Z"/><path d="M3422.956,34.4h-7.2v4.913h8.011l-.469,3.258h-11.369V23.709h11.339v3.3h-7.512v4.106h7.2Z"/></g></svg>