<svg xmlns="http://www.w3.org/2000/svg" width="323.793" height="162.185" viewBox="0 0 323.793 162.185"><g transform="translate(-366 735)"><path d="M2648.617-108.981h-80.948V53.2h80.948l80.949-81.093Z" transform="translate(-2201.669 -626.019)"/><path d="M2810.514-108.981l-80.948,81.093L2810.514,53.2h80.949V-108.981Z" transform="translate(-2201.669 -626.019)" fill="#fff"/><path d="M2810.514-108.981l-80.948,81.093L2810.514,53.2h80.949V-108.981Z" transform="translate(-2201.669 -626.019)"/><g transform="translate(-2201.669 -626.019)"><path d="M2591.918-86.352c0-3.159.054-6.962.126-9.118h-.128c-.747,3.846-2.128,10.271-3.535,15.953h-3.412c-1.039-5.064-2.448-12.218-3.128-16.008h-.139c.141,2.2.223,6.2.223,9.457v6.551h-3.57v-18.86h5.841c1.082,4.577,2.262,10.291,2.7,13.158h.028c.4-2.609,1.981-8.65,3.094-13.158h5.645v18.86h-3.749Z" fill="#fff"/><path d="M2608.621-87.688h-7.2v4.913h8.01l-.468,3.258h-11.369v-18.86h11.339v3.3h-7.512v4.106h7.2Z" fill="#fff"/><path d="M2615.393-95.08h-4.576v-3.3h13.08v3.3h-4.576v15.563h-3.928Z" fill="#fff"/><path d="M2628.259-83.877l-1.066,4.36h-3.868c.024-.069,5.068-18.782,5.094-18.86h5.067l5.277,18.86h-4.093l-1.127-4.36Zm4.562-3.286c-.888-3.532-1.56-6.166-1.94-8h-.052c-.347,1.932-1.061,4.784-1.863,8Z" fill="#fff"/></g><g transform="translate(-2201.669 -626.019)"><path d="M2828.2,42.569l-4.033-18.86h4.188c.677,4.046,1.7,10.313,2.053,14.012h.028c.678-3.767,2.066-9.7,2.946-14.012h3.479c.78,3.556,2.239,10.009,2.821,13.807h.04c.522-4.232,1.827-10.75,2.287-13.807h3.84l-4.274,18.86h-3.956c-.806-4.035-2.066-9.306-2.664-12.95h-.04c-.627,3.678-1.968,9.371-2.76,12.95Z" fill="#fff"/><path d="M2851.988,23.709v18.86h-3.912V23.709Z" fill="#fff"/><path d="M2857.865,37.074c.214,1.537,1.032,2.749,2.863,2.749,1.9,0,2.476-.955,2.476-2.173,0-1.565-.917-2.323-3.416-3.222-3.934-1.366-5.321-2.871-5.321-5.639,0-3.379,2.5-5.354,6.052-5.354,4.5,0,6.057,2.6,6.205,5.436h-3.831c-.173-1.21-.629-2.434-2.414-2.434a1.851,1.851,0,0,0-2.126,1.991c0,1.309.774,1.762,3.193,2.626,4.208,1.476,5.626,3.233,5.626,6.177,0,3.018-1.95,5.623-6.6,5.623-4.282,0-6.4-2.407-6.578-5.78Z" fill="#fff"/><path d="M2880.472,34.4h-7.2v4.913h8.011l-.468,3.258h-11.37V23.709h11.339v3.3h-7.512v4.106h7.2Z" fill="#fff"/></g></g></svg>