<svg xmlns="http://www.w3.org/2000/svg" width="320.24" height="182" viewBox="0 0 320.24 182"><g transform="translate(-2133.132 625.653)"><path d="M2192.239-614.278l-19.7-11.375-19.7,11.375-19.7,11.375v91l19.7,11.375,19.7,11.376v-91l19.7,11.375,19.7,11.375v-45.5Z" fill="#8623b8"/><path d="M2231.645-568.78l19.7-11.375,19.7,11.375,19.7,11.375v91l-19.7,11.375-19.7,11.376v-91l-19.7,11.375-19.7,11.375v-45.5Z" fill="#8623b8"/><path d="M2394.265-500.526l19.7,11.375,19.7-11.375,19.7-11.375v-91l-19.7-11.375-19.7-11.376v91l-19.7-11.375-19.7-11.375v45.5Z" fill="#8623b8"/><path d="M2354.859-455.028l-19.7,11.375-19.7-11.375-19.7-11.375v-91l19.7-11.375,19.7-11.376v91l19.7-11.375,19.7-11.375v45.5Z" fill="#8623b8"/><path d="M2154.653-468.07c0-2.29.036-4.885.085-6.348h-.073c-.535,2.554-1.749,7.462-2.818,11.42H2149.8c-.8-3.47-2.042-8.869-2.55-11.454h-.084c.1,1.535.151,4.37.151,6.639V-463H2145.2v-13.16h3.442c.928,3.485,1.975,7.916,2.314,9.833h.021c.272-1.643,1.608-6.4,2.56-9.833h3.339V-463h-2.22Z" fill="#8623b8"/><path d="M2168.224-468.9h-5.1v3.964h5.662L2168.5-463h-7.634v-13.16h7.591v1.957h-5.334v3.349h5.1Z" fill="#8623b8"/><path d="M2175.077-474.2h-3.285v-1.96h8.886v1.96h-3.288V-463h-2.313Z" fill="#8623b8"/><path d="M2185.663-466.415l-.887,3.417h-2.283c.2-.586,3.421-12.5,3.641-13.16h2.975l3.775,13.16h-2.422l-.922-3.417Zm3.427-1.954c-.742-2.773-1.262-4.672-1.511-5.866h-.038c-.256,1.357-.8,3.414-1.443,5.866Z" fill="#8623b8"/><path d="M2197.138-463l-2.87-13.16h2.459c.708,3.65,1.476,7.952,1.718,10.3h.019c.4-2.327,1.581-7.235,2.23-10.3h2.089c.591,2.661,1.8,7.872,2.151,10.188h.027c.358-2.738,1.475-7.8,1.9-10.188h2.27L2206.062-463H2203.7c-.6-2.892-1.675-7.4-2.052-9.712h-.025c-.4,2.389-1.518,7.041-2.124,9.712Z" fill="#8623b8"/><path d="M2215.233-476.158V-463h-2.3v-13.16Z" fill="#8623b8"/><path d="M2221.126-466.749a2.151,2.151,0,0,0,2.227,2.124c1.384,0,1.963-.708,1.963-1.789,0-1.212-.637-1.792-2.5-2.475-2.639-.935-3.614-1.936-3.614-3.854,0-2.216,1.618-3.6,4.037-3.6,2.982,0,4.029,1.785,4.13,3.67H2225.1c-.129-.912-.519-1.872-1.9-1.872a1.489,1.489,0,0,0-1.7,1.589c0,1.034.573,1.429,2.34,2.069,2.9,1.031,3.823,2.239,3.823,4.23,0,2.118-1.363,3.844-4.4,3.844-2.88,0-4.289-1.644-4.422-3.937Z" fill="#8623b8"/><path d="M2239.211-468.9h-5.1v3.964h5.662l-.285,1.936h-7.634v-13.16h7.591v1.957h-5.334v3.349h5.1Z" fill="#8623b8"/></g></svg>