<svg xmlns="http://www.w3.org/2000/svg" width="324.811" height="159.764" viewBox="0 0 324.811 159.764"><g transform="translate(-2133.132 356.623)"><path d="M2133.132-356.623v88.238l44.119,44.119h44.119v-44.119Z" fill="#5411c5"/><path d="M2221.369-356.623v88.238l44.119,44.119h88.238Z" fill="#5411c5"/><path d="M2457.028-224.266V-312.5l-44.119-44.119H2368.79V-312.5Z" fill="#5411c5"/><path d="M2368.79-224.266V-312.5l-44.119-44.119h-88.238Z" fill="#5411c5"/><path d="M2279.129-204.086c0-3.04.029-6.075.1-7.753h-.078c-.689,2.5-3.475,9.655-5.406,14.772h-1.76c-1.457-4.115-4.352-12.128-5.092-14.8h-.063c.125,1.861.178,5.479.178,8.246v6.553h-1.842v-16.158h2.889c1.95,5.153,4.359,11.823,4.918,13.784h.039c.405-1.5,3.2-8.783,5.2-13.784h2.823v16.158h-1.9Z" fill="#5411c5"/><path d="M2306.095-204.71h-8.2v5.962h9l-.257,1.681h-10.655v-16.158h10.51v1.68h-8.6v5.154h8.2Z" fill="#5411c5"/><path d="M2325.094-211.544h-5.333v-1.681h12.632v1.681h-5.342v14.477h-1.957Z" fill="#5411c5"/><path d="M2347.655-202.091l-1.838,5.024h-1.944l5.879-16.158h2.371l6.129,16.158h-2.078l-1.892-5.024Zm6.1-1.683c-1.631-4.39-2.5-6.651-2.847-7.839h-.024c-.389,1.315-1.369,4.081-2.686,7.839Z" fill="#5411c5"/><path d="M2373.76-197.067l-4.415-16.158h2.044c1.215,4.885,3.171,12.166,3.488,14.039h.023c.4-1.963,2.742-9.9,3.832-14.039h1.931c1,3.687,3.331,12.212,3.668,13.974h.023c.517-2.651,2.9-10.5,3.862-13.974h1.928l-4.813,16.158h-2.109c-1.01-3.735-3.227-11.851-3.595-13.659h-.023c-.462,2.313-2.669,9.85-3.754,13.659Z" fill="#5411c5"/><path d="M2406.4-213.225v16.158h-1.94v-16.158Z" fill="#5411c5"/><path d="M2422.5-201.542c.46,1.985,1.814,3.1,4.287,3.1,2.667,0,3.713-1.254,3.713-2.834,0-1.667-.806-2.632-4.185-3.432-3.786-.9-5.133-2.175-5.133-4.455,0-2.365,1.781-4.305,5.347-4.305,3.876,0,5.415,2.247,5.628,4.3h-1.979c-.311-1.482-1.249-2.7-3.723-2.7-2.076,0-3.249.926-3.249,2.534,0,1.565.929,2.2,3.854,2.895,4.676,1.115,5.465,2.916,5.465,4.97,0,2.551-1.893,4.607-5.855,4.607-4.086,0-5.81-2.239-6.15-4.683Z" fill="#5411c5"/><path d="M2457.14-204.71h-8.2v5.962h9l-.257,1.681h-10.655v-16.158h10.51v1.68h-8.6v5.154h8.2Z" fill="#5411c5"/></g></svg>