<svg xmlns="http://www.w3.org/2000/svg" viewBox="0 0 253.31 180.22"><defs><style>.a{fill:#848482;}.b{fill:#fff;}</style></defs><rect class="a" x="63.65" y="73.46" width="37.81" height="38.45"/><rect class="a" x="107.34" y="73.46" width="37.81" height="38.45"/><rect class="a" x="151.03" y="73.46" width="37.81" height="38.45"/><path class="b" d="M82.92,106.34H73.77V78.87h7.07a12.29,12.29,0,0,1,5.22.91,6.72,6.72,0,0,1,2.86,2.52,6.84,6.84,0,0,1,1,3.71q0,4-4.12,5.8a8.34,8.34,0,0,1,4.71,2.48,6.51,6.51,0,0,1,1.75,4.56,6.84,6.84,0,0,1-1.06,3.75,7.81,7.81,0,0,1-3.13,2.7,11.36,11.36,0,0,1-5.14,1Zm-2-24H77.64v8.26h2.57c2.06,0,3.52-.39,4.39-1.2a4,4,0,0,0,1.31-3.1q0-4-5-4Zm.29,11.76H77.64v8.71h3.8a12.14,12.14,0,0,0,4.31-.5,4.23,4.23,0,0,0,2.5-3.85,4,4,0,0,0-.72-2.3,4.47,4.47,0,0,0-2.06-1.55,12.76,12.76,0,0,0-4.22-.51Z"/><path class="b" d="M126.76,106.34h-9.14V78.87h7.07a12.29,12.29,0,0,1,5.22.91,6.72,6.72,0,0,1,2.86,2.52,6.92,6.92,0,0,1,1,3.71q0,4-4.11,5.8a8.34,8.34,0,0,1,4.71,2.48,6.51,6.51,0,0,1,1.75,4.56A6.77,6.77,0,0,1,135,102.6a7.74,7.74,0,0,1-3.11,2.7,11.48,11.48,0,0,1-5.16,1Zm-2-24h-3.32v8.26h2.57c2.06,0,3.52-.39,4.39-1.2a4,4,0,0,0,1.3-3.1c0-2.64-1.64-4-4.94-4Zm.29,11.76h-3.61v8.71h3.8a12,12,0,0,0,4.3-.5,4.26,4.26,0,0,0,2.51-3.85,4,4,0,0,0-.73-2.3,4.42,4.42,0,0,0-2.06-1.55,12.65,12.65,0,0,0-4.21-.51Z"/><path class="b" d="M181.24,100v4.32a19.83,19.83,0,0,1-9.82,2.37,14.85,14.85,0,0,1-7.67-1.86,13.45,13.45,0,0,1-5-5.08,14.06,14.06,0,0,1-1.83-7,13.52,13.52,0,0,1,4.2-10.09,14.31,14.31,0,0,1,10.37-4.09A23.88,23.88,0,0,1,181,80.78V85a18.36,18.36,0,0,0-9.26-2.76,10.62,10.62,0,0,0-7.69,3,10.65,10.65,0,0,0-.06,14.9,10.66,10.66,0,0,0,7.71,2.91,17.35,17.35,0,0,0,9.59-3.07Z"/></svg>