<svg xmlns="http://www.w3.org/2000/svg" viewBox="0 0 253.31 180.22"><defs><style>.a{fill:#848482;fill-rule:evenodd;}</style></defs><polygon class="a" points="80.39 95.68 80.39 98.34 63.76 98.34 63.76 80.06 66.75 80.06 66.75 95.68 80.39 95.68 80.39 95.68"/><polygon class="a" points="78.06 86.7 81.39 80.39 78.23 80.39 75.73 86.7 78.06 86.7 78.06 86.7"/><path class="a" d="M105.24,83.06a11.83,11.83,0,0,0-4.51-4.1,13.31,13.31,0,0,0-12.24,0A11.9,11.9,0,0,0,84,83.06a10.36,10.36,0,0,0,0,11.25,11.9,11.9,0,0,0,4.51,4.1,13.31,13.31,0,0,0,12.24,0,11.83,11.83,0,0,0,4.51-4.1,10.36,10.36,0,0,0,0-11.25Zm-2.59,10.1a9.07,9.07,0,0,1-3.37,3.22,9.59,9.59,0,0,1-9.18,0,9.14,9.14,0,0,1-3.37-3.22,8.46,8.46,0,0,1,0-8.82,9,9,0,0,1,3.37-3.21,9.52,9.52,0,0,1,9.18,0,9,9,0,0,1,3.37,3.21,8.46,8.46,0,0,1,0,8.82Z"/><path class="a" d="M127.77,87.94a5,5,0,0,1-2.36,2.3,3.91,3.91,0,0,1-2,.54h0l5.81,7.56h-3.32L120.31,91H113v7.32h-3V80.05h12a7.13,7.13,0,0,1,3.52.85,5.19,5.19,0,0,1,2.46,2.85,6.14,6.14,0,0,1-.16,4.19Zm-3.35-.13a2.85,2.85,0,0,0,1-2.27,3.22,3.22,0,0,0-1.09-2.26,3.27,3.27,0,0,0-2.18-.57H113v5.66h9.15a3.41,3.41,0,0,0,2.3-.56Z"/><polygon class="a" points="145.06 87.87 145.06 90.36 134.92 90.36 134.92 95.68 148.55 95.68 148.55 98.34 131.92 98.34 131.92 80.06 148.55 80.06 148.55 82.71 134.92 82.71 134.92 87.87 145.06 87.87 145.06 87.87"/><polygon class="a" points="145.22 77.23 140.74 77.23 138.91 79.56 145.22 77.23 145.22 77.23"/><path class="a" d="M154.41,93.68,152,98.34h-3l9.31-18.29h3l9.31,18.29h-3l-2.37-4.66ZM159.85,83l-4.26,8.37h8.52L159.85,83Z"/><polygon class="a" points="188.78 95.68 188.78 98.34 172.16 98.34 172.16 80.06 175.15 80.06 175.15 95.68 188.78 95.68 188.78 95.68"/><path class="a" d="M187.48,83.72l0-.43h0a1.13,1.13,0,0,0,0-.25.74.74,0,0,0-.15-.26.24.24,0,0,0-.18-.1.64.64,0,0,0,.31-.26,1,1,0,0,0,.12-.46,1,1,0,0,0-.15-.51,1,1,0,0,0-.88-.34h-1.32v3.06h.51V82.91h.77a.52.52,0,0,1,.36.1c.19.22.11.51.14.75a.79.79,0,0,0,.08.41h.57v-.1h0c-.1,0-.11-.19-.13-.35Zm-.63-1.34a.77.77,0,0,1-.44.1h-.72v-.93h0c.31,0,.63,0,.95,0a.44.44,0,0,1,.33.24.49.49,0,0,1-.12.58Z"/><path class="a" d="M188.6,81.34a2.5,2.5,0,0,0-.94-.94,2.55,2.55,0,0,0-2.58,0,2.5,2.5,0,0,0-.94.94,2.55,2.55,0,0,0,0,2.58,2.5,2.5,0,0,0,.94.94,2.55,2.55,0,0,0,2.58,0,2.5,2.5,0,0,0,.94-.94,2.55,2.55,0,0,0,0-2.58Zm-.31,2.41a2.2,2.2,0,0,1-4.09-1.09,2.21,2.21,0,0,1,1.1-1.9,2.21,2.21,0,0,1,2.19,0,2.21,2.21,0,0,1,1.1,1.9,2.21,2.21,0,0,1-.3,1.09Z"/></svg>