<?xml version="1.0" encoding="utf-8"?>
<!-- Generator: Adobe Illustrator 24.2.1, SVG Export Plug-In . SVG Version: 6.00 Build 0)  -->
<svg version="1.1" id="Layer_1" xmlns="http://www.w3.org/2000/svg" xmlns:xlink="http://www.w3.org/1999/xlink" x="0px" y="0px"
	 viewBox="0 0 253.3 180.2" style="enable-background:new 0 0 253.3 180.2;" xml:space="preserve">
<style type="text/css">
	.st0{fill:#848482;}
</style>
<path class="st0" d="M116.4,82.2c-4,0-7.2,3.2-7.2,7.2c0,4,3.2,7.2,7.2,7.2c4,0,7.2-3.2,7.2-7.2c0,0,0,0,0,0
	C123.6,85.4,120.4,82.2,116.4,82.2C116.4,82.2,116.4,82.2,116.4,82.2z M156.6,75.4h1.5l2.8,5.5l6.7,13.3c0.1-1.4,0.2-2.8,0.2-4.1
	c0-24.8-20.1-44.9-44.9-44.9c-19.2,0-36.2,12.2-42.5,30.3h4.1l10.6,20.9V75.4h7v14.1c0-7.9,6.4-14.3,14.3-14.3c4.4,0,8.5,2,11.2,5.4
	l-2.6-5.2h7l8,15.9l8-15.9h7l-11.4,22.9l-2.8,5.5h-1.5l-2.8-5.5l-6.4-12.6c0.3,1.2,0.5,2.5,0.5,3.7c0.2,7.9-6,14.5-13.9,14.7
	s-14.5-6-14.7-13.9c0-0.3,0-0.5,0-0.8v14.3H91.6l-7.1-14.2v14.2H80c7.6,23.6,32.8,36.7,56.5,29.1c13.8-4.4,24.7-15.3,29.1-29.1h-0.3
	l-8-15.9l-8,15.9h-7l11.6-22.9L156.6,75.4z"/>
</svg>
