<svg xmlns="http://www.w3.org/2000/svg" viewBox="0 0 253.31 180.22"><defs><style>.a{fill:#848482;}.b{fill:#fff;}.c{fill:none;}</style></defs><rect class="a" x="64.4" y="53.5" width="124.66" height="73.22" rx="5.75"/><path class="b" d="M87.92,73V83.23H79.23V73Zm0,24v10.27H79.23V97Z"/><polygon class="c" points="152.01 99.79 153.76 91.18 150.13 91.18 151.87 99.79 152.01 99.79"/><path class="b" d="M124.67,87a16.93,16.93,0,0,0,1.08-6.32,20.47,20.47,0,0,0-.66-5.17A12.51,12.51,0,0,0,122.92,71a11.2,11.2,0,0,0-4-3.19,13.74,13.74,0,0,0-6.09-1.22H96.26V89h27.38A13.3,13.3,0,0,0,124.67,87Zm-10.14-.85A6.27,6.27,0,0,1,110,87.87h-4.21V73.58h4q3.56,0,5.07,1.85a8.3,8.3,0,0,1,1.51,5.39Q116.27,84.45,114.53,86.16Z"/><polygon class="b" points="139.76 76.08 139.89 76.08 142.78 89.04 149.7 89.04 145.16 66.6 131.07 66.6 131.07 89.04 139.76 89.04 139.76 76.08"/><polygon class="b" points="163.99 76.08 164.12 76.08 164.12 89.04 172.81 89.04 172.81 66.6 158.79 66.6 154.2 89.04 161.1 89.04 163.99 76.08"/><path class="b" d="M96.26,113.61h9.48V94.85h5.07a20.62,20.62,0,0,0,6.12-.86,12.63,12.63,0,0,0,4.71-2.57c.09-.07.17-.16.26-.24H96.26Z"/><rect class="b" x="164.12" y="91.18" width="8.69" height="22.44"/><polygon class="b" points="152.01 99.79 151.87 99.79 150.13 91.18 143.25 91.18 148.25 113.61 155.63 113.61 160.63 91.18 153.76 91.18 152.01 99.79"/><rect class="b" x="131.07" y="91.18" width="8.69" height="22.44"/></svg>