<svg xmlns="http://www.w3.org/2000/svg" viewBox="0 0 253.31 180.22"><defs><style>.a{fill:#848482;}</style></defs><path class="a" d="M153.47,87.58a54.94,54.94,0,0,0-24.29-8.15A49.94,49.94,0,0,0,104,83.17l-.09-.26c1.56-.75,3.09-1.56,4.68-2.22a46.32,46.32,0,0,1,27.86-2.83,29.86,29.86,0,0,1,15.87,8.47C152.74,86.73,153.1,87.16,153.47,87.58Z"/><path class="a" d="M135.53,74.56c-17.75-2.14-33,3.12-46.24,15.47.3-.56.49-1,.71-1.32s.48-.81.75-1.2c4-5.81,9.58-9.48,16.09-11.89a46.48,46.48,0,0,1,13.61-2.7A49.69,49.69,0,0,1,135.53,74.56Z"/><path class="a" d="M151,94.38a21.83,21.83,0,0,1,2.43,0,1.16,1.16,0,0,1,.74.67c.8,1.77,1.54,3.57,2.31,5.36a1.44,1.44,0,0,0,.51.67V94.44h2.59c0,.28.07.55.07.81,0,3.65,0,7.3,0,10.94,0,.7-.19,1-.91.92-2.18-.08-1.62.28-2.47-1.56-.73-1.6-1.42-3.22-2.14-4.82a1.2,1.2,0,0,0-.49-.58V107H151Z"/><path class="a" d="M179.75,94.43a40.9,40.9,0,0,1,4.71,0c2.07.24,3.3,2.45,2.8,4.87a4.57,4.57,0,0,1-.9,1.93,1,1,0,0,0-.06,1.39c.79,1.28,1.54,2.59,2.3,3.89a5.77,5.77,0,0,1,.24.54c-1.07,0-2,0-3,0-.21,0-.46-.37-.59-.63-.55-1-1.07-2.06-1.56-3.11-.24-.51-.55-.75-1.19-.43,0,1.12,0,2.27,0,3.43,0,.63-.22.81-.82.8-2.41-.06-1.92.26-1.94-1.92,0-3.24,0-6.47,0-9.7Zm2.75,4.2a7.22,7.22,0,0,0,0,.93,2.55,2.55,0,0,0,.25.88,2.23,2.23,0,0,0,1.21-.31,2.33,2.33,0,0,0,.1-3,2.3,2.3,0,0,0-1.29-.32c-.08,0-.22.56-.27.87A7.35,7.35,0,0,0,182.5,98.63Z"/><path class="a" d="M92.09,100.67c0-1.79,0-3.58,0-5.37,0-.64.18-.91.85-.88.94,0,1.89,0,2.83,0,2.7,0,4.66,1.43,5,4.11a14.28,14.28,0,0,1-.18,4.92A4.32,4.32,0,0,1,96.31,107c-1.16.08-2.33,0-3.49.05-.61,0-.74-.28-.73-.81,0-1.85,0-3.71,0-5.56Zm2.62,0c0,1.07,0,2.14,0,3.2,0,.68.28.87.91.86a2.31,2.31,0,0,0,2.52-2,14,14,0,0,0,0-4,2.54,2.54,0,0,0-2.33-2.14c-.73-.11-1.14,0-1.1.91C94.75,98.63,94.71,99.67,94.71,100.7Z"/><path class="a" d="M90.55,107a25.66,25.66,0,0,1-2.68,0,1.27,1.27,0,0,1-.8-.61c-.56-1-1-2.1-1.6-3.1-.16-.28-.6-.4-.91-.59a2.75,2.75,0,0,0-.37.85c0,.88,0,1.76,0,2.64,0,.58-.15.86-.79.86-2.17,0-1.8.13-1.81-1.72,0-3.3,0-6.6,0-9.9,0-.78.21-1.06,1-1,1,.06,2.07,0,3.11,0a3.29,3.29,0,0,1,3.23,2.87,4.73,4.73,0,0,1-1,4.16,1.21,1.21,0,0,0,0,1c.56,1.09,1.22,2.12,1.84,3.18C90,106.07,90.22,106.45,90.55,107ZM84.17,98.6a5.89,5.89,0,0,0,0,.94c.06.34.21.94.32.94a2.07,2.07,0,0,0,1.28-.33,1.88,1.88,0,0,0-1.25-3.4c-.1,0-.27.65-.35,1A3.92,3.92,0,0,0,84.17,98.6Z"/><path class="a" d="M111,99.12c.76-1.32,1.54-2.64,2.27-4a1.17,1.17,0,0,1,1.27-.72c.68,0,1.37,0,2.25,0-1,1.62-1.87,3.15-2.9,4.55a2.05,2.05,0,0,0,0,2.75c1.1,1.63,2,3.39,3.13,5.28-1.11,0-2,0-3,0-.24,0-.49-.44-.64-.72-.81-1.51-1.58-3-2.55-4.55V107c-.83,0-1.51,0-2.19,0a.7.7,0,0,1-.46-.52c0-4,0-7.91,0-12h2.61v4.6Z"/><path class="a" d="M127.31,107a15.13,15.13,0,0,1-2.24,0c-.23,0-.47-.51-.57-.83a21.11,21.11,0,0,1-.45-2.21.76.76,0,0,0-.91-.72c-2.46,0-1.92-.34-2.53,1.89a.29.29,0,0,0,0,.09c-.47,2-.83,2.22-3.06,1.66l.84-3c.78-2.87,1.57-5.75,2.34-8.63.14-.5.34-.82,1-.76a16,16,0,0,0,2.08,0,.71.71,0,0,1,.84.64c.89,3.83,1.81,7.64,2.72,11.46A2.64,2.64,0,0,1,127.31,107Zm-4.65-10.37-.25,0-.66,3.87c-.1.54.21.71.64.64s.94-.32.93-.43C123.15,99.39,122.89,98,122.66,96.65Z"/><path class="a" d="M177.38,94.45a.86.86,0,0,1,.08.22c0,2.57.19,2-1.9,2s-1.74-.27-1.82,1.8c0,.8.17,1.18,1,1.08.46-.06.94,0,1.41,0,.84-.1,1.05.24,1.07,1.06s-.25,1.34-1.21,1.19a7.37,7.37,0,0,0-.94,0c-1.36,0-1.36,0-1.36,1.39,0,1.61-.15,1.45,1.48,1.46h1c1.52,0,2,.58,1.52,2a.79.79,0,0,1-.61.38c-1.85,0-3.71,0-5.56,0a.86.86,0,0,1-.59-.58c0-4,0-8,0-12Z"/><path class="a" d="M142.25,107.1V94.45h6.36a13.82,13.82,0,0,1,0,1.82c0,.17-.41.42-.65.44-.78.05-1.57,0-2.35.05a1,1,0,0,0-.67.63c-.26,2.17-.22,2.2,2,2.19a1.31,1.31,0,0,1,.28,0c.38.06,1.06.06,1.1.21a5.19,5.19,0,0,1,0,1.76c0,.1-.4.23-.62.24-.69,0-1.38,0-2.07,0-.53,0-.72.22-.72.74,0,2.6-.23,2.06,2,2.12a4.92,4.92,0,0,0,.94,0c.88-.12,1.23.18,1.18,1.13-.07,1.3,0,1.31-1.36,1.31Z"/><path class="a" d="M72.82,94.47h6.41c0,.52,0,1,0,1.49s-.22.72-.73.71c-.79,0-1.57,0-2.36,0-.51,0-.71.19-.75.71-.21,2.28-.21,2.28,2.08,2.32.63,0,1.49-.35,1.47.93,0,.92-.28,1.27-1.17,1.13a1.41,1.41,0,0,0-.29,0c-2.29,0-2.27,0-2.1,2.29,0,.53.25.72.76.71.78,0,1.57,0,2.35,0s1.1.23,1,1c0,.37,0,.75,0,1.29H77.66c-1.38,0-2.76,0-4.14,0-.24,0-.67-.32-.67-.5C72.81,102.53,72.82,98.55,72.82,94.47Z"/><path class="a" d="M64.27,104.28c.76.19,1.39.39,2,.5a1.49,1.49,0,0,0,1.82-1c.3-.81-.17-1.32-.8-1.71s-1-.62-1.53-.93A3.79,3.79,0,0,1,64,96.84a3.47,3.47,0,0,1,3.84-2.5,21.23,21.23,0,0,1,2.78.55L69.81,97a9.83,9.83,0,0,0-2-.31c-.42,0-1.1.3-1.19.61A1.7,1.7,0,0,0,67,98.63a18.4,18.4,0,0,0,2.14,1.53c1.81,1.29,1.93,2.58,1.56,4.36a3.69,3.69,0,0,1-3.67,2.7,11.1,11.1,0,0,1-2.65-.52c-.71-.19-1-.64-.56-1.34A8.38,8.38,0,0,0,64.27,104.28Z"/><path class="a" d="M139.86,97.09c-.86-.16-1.59-.34-2.34-.41a2,2,0,0,0-2.22,1.38,6.5,6.5,0,0,0,.06,5.22,2.47,2.47,0,0,0,2.7,1.45c.62-.08,1.23-.21,1.94-.33a13.39,13.39,0,0,1,.35,1.83c0,.19-.32.49-.55.59-3.63,1.52-7-.28-7.6-4.14a9.1,9.1,0,0,1,.65-5.7,5.27,5.27,0,0,1,7-2.28,1,1,0,0,1,.4.84A9.37,9.37,0,0,1,139.86,97.09Z"/><path class="a" d="M161.19,94.43h8.23c0,.17.07.29.08.4.08,1.88.07,1.92-1.77,1.88-.87,0-1,.3-1,1.09,0,2.76,0,5.52,0,8.28,0,.76-.16,1.06-1,1-2.07-.07-1.75.22-1.77-1.73,0-2.54,0-5.09,0-7.63,0-.74-.16-1-1-1-2,0-2,0-1.88-2A1.09,1.09,0,0,1,161.19,94.43Z"/><path class="a" d="M103.08,94.48h2.57c0,.34.06.65.06,1,0,3.51,0,7,0,10.53,0,.89-.27,1.13-1.12,1.09-1.73-.07-1.53.15-1.53-1.5,0-3.29,0-6.58,0-9.87Z"/></svg>