<svg xmlns="http://www.w3.org/2000/svg" viewBox="0 0 253.31 180.22"><defs><style>.a{fill:#848482;}</style></defs><path class="a" d="M51.49,87.08a6.46,6.46,0,0,0,4-6.11c0-4.87-3.79-7.67-10.39-7.67a22.57,22.57,0,0,0-8.33,1.49l-.1,0v25.61l.1,0A23.28,23.28,0,0,0,45.2,102c7,0,11-3,11-8.09A7.23,7.23,0,0,0,51.49,87.08Zm-.85,6.47c0,2.71-1.79,4-5.48,4a11.45,11.45,0,0,1-3-.4V89.47h3.28a6.1,6.1,0,0,1,3.62.85h0A3.57,3.57,0,0,1,50.64,93.55Zm-8.53-8.2V78.1a10.5,10.5,0,0,1,3-.41c3.26,0,5,1.31,5,3.77a3.87,3.87,0,0,1-1.26,3,5.29,5.29,0,0,1-3.53.87Z"/><path class="a" d="M67.87,80.31c-5.86,0-9.64,4.24-9.64,10.81S62.24,102,68.7,102a19.14,19.14,0,0,0,7.3-1.34.55.55,0,0,0,.27-.71l-1.2-3.14a.54.54,0,0,0-.3-.31.56.56,0,0,0-.44,0,13.24,13.24,0,0,1-5.25,1.09c-3,0-5-1.51-5.45-4.15l13-1.76.12,0,0-.13a13.33,13.33,0,0,0,.08-1.76C76.83,83.93,73.4,80.31,67.87,80.31Zm3.62,8.39-8.22,1.13c.13-3.41,1.8-5.43,4.49-5.43C70.12,84.4,71.44,85.93,71.49,88.7Z"/><path class="a" d="M92,81.13a.54.54,0,0,0-.52-.37H85.57a.56.56,0,0,0-.52.37l-6.93,19.66a.56.56,0,0,0,.07.5.56.56,0,0,0,.46.23h5a.55.55,0,0,0,.53-.4l4-13.74a12.86,12.86,0,0,0,.38-1.63c.09.46.23,1.06.4,1.63l4,13.75a.55.55,0,0,0,.53.39h5a.53.53,0,0,0,.45-.23.55.55,0,0,0,.07-.51Z"/><path class="a" d="M117.62,80.76h-4.38a.55.55,0,0,0-.55.56V97.07a9.39,9.39,0,0,1-2.9.44c-2.22,0-3.43-1.11-3.43-3.13V81.32a.56.56,0,0,0-.56-.56h-4.42a.56.56,0,0,0-.55.56V94.91c0,4.62,3.12,7.07,9,7.07a21.59,21.59,0,0,0,8.21-1.49l.11,0V81.32A.56.56,0,0,0,117.62,80.76Z"/><path class="a" d="M138.39,80.76H134a.56.56,0,0,0-.56.56v7.82h-6.21V81.32a.56.56,0,0,0-.56-.56H122.3a.56.56,0,0,0-.56.56V101a.55.55,0,0,0,.56.55h4.38a.55.55,0,0,0,.56-.55v-8h6.21v8a.55.55,0,0,0,.56.55h4.38a.54.54,0,0,0,.55-.55V81.32A.55.55,0,0,0,138.39,80.76Z"/><path class="a" d="M155,96.72a.54.54,0,0,0-.31-.3.61.61,0,0,0-.46,0,11.42,11.42,0,0,1-4.32,1.1c-1.77,0-2.9-.81-2.9-2.07s1.06-2,3-2.64c2.51-.93,6-2.19,6-6.34,0-3.82-2.94-6.19-7.68-6.19a13.7,13.7,0,0,0-6,1.33.55.55,0,0,0-.25.72l1.27,2.81a.51.51,0,0,0,.32.29.59.59,0,0,0,.45,0,9.14,9.14,0,0,1,3.61-1c1.65,0,2.71.77,2.71,2,0,1.45-1.24,2-3,2.64l-.13.05c-2.66,1-6,2.18-6,6.36s3.16,6.5,8.46,6.5a15.75,15.75,0,0,0,6.35-1.34.54.54,0,0,0,.26-.71Z"/><path class="a" d="M166.71,80.31a17.82,17.82,0,0,0-7.54,1.5l-.09,0v27.27a.55.55,0,0,0,.55.55H164a.55.55,0,0,0,.55-.55v-7.76a10.57,10.57,0,0,0,2.79.39c6.08,0,9.71-4,9.71-10.7S173.3,80.31,166.71,80.31Zm4.83,10.74c0,4-1.76,6.42-4.72,6.42a7.94,7.94,0,0,1-2.25-.32V85a6.53,6.53,0,0,1,2.22-.36C169.81,84.66,171.54,87,171.54,91.05Z"/><path class="a" d="M187.67,80.31h-.08a21.19,21.19,0,0,0-7.14,1.35.55.55,0,0,0-.31.71l1,2.76a.53.53,0,0,0,.71.33,16.32,16.32,0,0,1,5.3-1.06c2.46,0,3.66.9,3.66,2.75v.9c-6.24.35-12,1.49-12,7.17,0,4.36,3.33,6.76,9.37,6.76a19,19,0,0,0,7.73-1.5l.1,0V88.71a8.4,8.4,0,0,0-8.4-8.4Zm3.17,11.37V97.6a10.08,10.08,0,0,1-2.75.36c-2.6,0-4-1-4-2.86C184.06,92.29,187,91.88,190.84,91.68Z"/><path class="a" d="M216.57,81.8a17.32,17.32,0,0,0-7.28-1.49c-6.75,0-10.62,3.83-10.62,10.51,0,6,3.5,9.91,8.92,9.91a10.35,10.35,0,0,0,3.62-.63v1c0,2.84-1.4,4.22-4.27,4.22a13.2,13.2,0,0,1-5.31-1,.63.63,0,0,0-.45,0,.56.56,0,0,0-.3.32l-1.21,3.32a.56.56,0,0,0,.28.7,18.08,18.08,0,0,0,7.52,1.46c5.84,0,9.19-3.27,9.19-9V81.85ZM211.21,85V96a7,7,0,0,1-2.52.51c-2.88,0-4.53-2.14-4.53-5.86s1.66-6,4.68-6A7.12,7.12,0,0,1,211.21,85Z"/></svg>