<svg xmlns="http://www.w3.org/2000/svg" viewBox="0 0 253.31 180.22"><defs><style>.a{fill:#848482;}</style></defs><polygon class="a" points="84.93 68.14 96.49 68.14 101.69 77.46 90.06 77.46 84.93 68.14"/><path class="a" d="M176.85,101.56a12.21,12.21,0,1,1,12.21-12.21A12.23,12.23,0,0,1,176.85,101.56Zm0-23a10.78,10.78,0,1,0,10.78,10.78A10.78,10.78,0,0,0,176.85,78.57Z"/><path class="a" d="M176.37,101.46a14,14,0,0,1-6-11.79,15,15,0,0,1,6-12.42l.81,1.17a13.59,13.59,0,0,0-5.43,11.24,12.61,12.61,0,0,0,5.41,10.62Z"/><path class="a" d="M177.37,101.47l-.79-1.19A12.63,12.63,0,0,0,182,89.61a13.53,13.53,0,0,0-5.41-11.22l.81-1.17a15,15,0,0,1,6,12.4A14.07,14.07,0,0,1,177.37,101.47Z"/><rect class="a" x="165.32" y="88.61" width="23.13" height="1.43"/><rect class="a" x="176.15" y="77.77" width="1.42" height="23.23"/><path class="a" d="M180.67,75.78a24.15,24.15,0,0,0-4-.32c-7.41,0-14.16,5.17-14.16,13.65s5.14,14.18,13.37,14.18a23,23,0,0,0,4.55-.32,16,16,0,0,0,2.6-.76l0,7.13a19.79,19.79,0,0,1-3.28.74,28.46,28.46,0,0,1-4.66.32c-11.69,0-20.9-8.06-20.9-21.29,0-12.22,8.42-21,22.24-21a34.15,34.15,0,0,1,3.57.19,24.71,24.71,0,0,1,3,.46v7.72A9.08,9.08,0,0,0,180.67,75.78Z"/><polygon class="a" points="81.88 69.19 75.7 80.08 63.87 80.08 69.55 91.13 63.87 101.33 75.47 101.33 81.88 112.23 87.94 101.33 99.56 101.33 93.86 91.09 99.61 80.08 87.87 80.08 81.88 69.19"/><polygon class="a" points="84.93 68.14 96.49 68.14 101.69 77.46 90.06 77.46 84.93 68.14"/><path class="a" d="M145.6,68.07h9.07v23.7c0,6.63-.26,9.7-2,12.83a12.88,12.88,0,0,1-5,4.4,15.27,15.27,0,0,1-6.48,1.22,13.31,13.31,0,0,1-8.87-3.68L135.67,99h.08c3.9,5.11,9.85,3.21,9.85-1.06V70.25h0l-18.07,40.43h-.19L117.16,90l-8.77,20.71h-.16L97.34,90.79l5.71-10.89,4.64,8.64L117.08,68h.23l10.2,21.21,9.58-21.14h8.51Z"/></svg>