<svg xmlns="http://www.w3.org/2000/svg" width="1885.449" height="442.779" viewBox="0 0 1885.449 442.779"><g transform="translate(-17.275 1636.775)" style="isolation:isolate"><path d="M-4268.658,1869.072v-4.289h-99.957a13.706,13.706,0,0,0-13.146,9.828l-88.421,299.53L-4574.421,1876.1a16.889,16.889,0,0,0-15.942-11.313h-107.854v4.289h46.951v408.939h-46.951v4.308h100.2v-4.308h-46.954V1875.237l145.543,415.527,125.356-416.3v403.549h-35.143v4.308h140.556v-4.308h-35.14V1869.072Z" transform="translate(4715.493 -3491.283)" fill="#092133"/><path d="M-4247.258,1928.234c-30.229-37.438-77.333-65.521-126.418-65.521-53.4,0-101.453,29.625-133.38,71.031-32.368,42.227-48.016,95.468-48.016,148.4,0,55.1,17.033,110.8,52.017,153.911,30.7,37.91,78.119,65.679,127.677,65.679,52.93,0,100.664-30.069,132.276-71.189,32.212-42.2,48.016-95.436,48.016-148.239C-4195.086,2027.2-4212.4,1971.343-4247.258,1928.234Zm-127.806,367.2c-82.559,0-104.19-152.2-104.19-213.291s21.475-213.13,104.19-213.13c82.4,0,104.191,152.207,104.191,213.13s-21.787,213.289-104.191,213.289Z" transform="translate(5023.068 -3495.73)" fill="#092133"/><path d="M-4137.162,1864.434V2010.98h-3.375c-6.292-28.849-15.2-56.931-30.692-82.4-18.416-29.771-47.723-63.222-85.934-63.222-87.776,0-95.753,157.288-95.753,217.289,0,53.708,4.3,109.1,23.785,159.437,13.657,35.294,33.45,52.633,70.124,52.633,29.156,0,60.156-14.732,75.653-40.051,3.991-6.6,4.3-13.965,4.3-21.484V2119.931h-38.363v-4.449h140.409v4.449h-32.838v169.415h-2.919c-8.281-13.813-21.327-22.87-38.053-22.87-12.122,0-23.939,4.3-34.528,10.13l-9.515,5.218c-21.479,9.515-42.044,16.421-65.832,16.421-108.949,0-166.953-116.165-166.953-212.53,0-70.436,26.85-145.781,83.939-189.824,25.624-19.8,56.624-34.37,89.612-34.37,12.893,0,25.628,3.989,37.6,8.746l8.744,3.375c9.972,3.684,20.872,7.214,31.614,7.214,13.348,0,25.318-8.747,35.6-16.421Z" transform="translate(5296.86 -3498.296)" fill="#092133"/><path d="M-4063.857,1864.779H-3963.7v4.316h-46.908v323.464c0,66.91-63.542,96.536-123.082,96.536-67.351,0-141.628-32.681-141.628-109.728V1869.1h-40.963v-4.316h149.75v4.316h-39.735v325.16c0,50.945,52.489,81.929,98.364,81.929,49.4,0,91-34.355,91-84.861V1869.1h-46.948Z" transform="translate(5536.138 -3491.291)" fill="#092133"/><path d="M-3893.226,2123.509v158.819H-4195.37v-4.285h35.137V1869.1h-35.137v-4.316h294.181v150.855h-2.928c-4.439-39.893-12.122-80.857-39.579-112.029-27.771-31.455-65.525-34.51-104.349-34.51h-41.876v193.959a247.6,247.6,0,0,0,26.071,1.543c52.647,0,66.281-36.211,68.611-81.016h3.808v170.15h-3.808c-6.615-40.646-24.559-84.227-72.294-84.227-7.526,0-14.892.445-22.386,1.074v207.463h62.752c32.527,0,64.9-14.1,87.913-36.84a133.565,133.565,0,0,0,38.066-71.664,382.247,382.247,0,0,0,4.6-46.031Z" transform="translate(5795.95 -3491.291)" fill="#092133"/></g></svg>