<svg xmlns="http://www.w3.org/2000/svg" width="110.079" height="48.533" viewBox="0 0 110.079 48.533"><g transform="translate(0 0.473)"><path d="M282.481,586.757h-5.82v17.464h-4.728V586.757h-6.075V582.37h16.623Z" transform="translate(-253.115 -581.892)" fill="#ccc"/><path d="M319.916,582.37v21.851h-4.728v-9.036h-8.224v9.036h-4.727V582.37h4.727v8.417h8.224V582.37Z" transform="translate(-270.521 -581.892)" fill="#ccc"/><path d="M340.014,592.857a11.638,11.638,0,1,1,11.66,11.4,11.276,11.276,0,0,1-11.66-11.4Zm18.48,0a6.846,6.846,0,1,0-6.82,6.941,6.722,6.722,0,0,0,6.82-6.941Z" transform="translate(-288.596 -581.454)" fill="#ccc"/><path d="M387.328,596.765h4.765c0,2.112,1.745,3.131,3.677,3.131,1.779,0,3.519-.94,3.519-2.569,0-1.694-1.992-2.159-4.362-2.712-3.3-.812-7.3-1.768-7.3-6.476,0-4.192,3.088-6.553,7.926-6.553,5.023,0,7.878,2.682,7.878,7.035H398.76c0-1.882-1.553-2.764-3.32-2.764-1.533,0-3.085.649-3.085,2.08,0,1.538,1.9,2,4.211,2.557,3.331.843,7.514,1.881,7.514,6.777,0,4.719-3.76,7.009-8.284,7.009C390.784,604.28,387.328,601.462,387.328,596.765Z" transform="translate(-311.234 -581.517)" fill="#ccc"/><path d="M437.508,599.822v4.4H424.046V582.37h13.119v4.367h-8.392v4.317h7.58v4.279h-7.58v4.489Z" transform="translate(-328.802 -581.892)" fill="#ccc"/><path d="M258.047,635.177h-5.82v17.464H247.5V635.177h-6.076V630.79h16.623Z" transform="translate(-241.424 -605.06)" fill="#ccc"/><path d="M295.482,630.79v21.851h-4.728V643.6H282.53v9.036H277.8V630.79h4.728v8.417h8.224V630.79Z" transform="translate(-258.83 -605.06)" fill="#ccc"/><path d="M318.353,630.79h4.727v21.851h-4.727Z" transform="translate(-278.232 -605.06)" fill="#ccc"/><path d="M352.876,630.79v21.851h-3.953l-9.9-13.656v13.656h-4.64V630.79h4.268l9.581,13.327V630.79Z" transform="translate(-285.904 -605.06)" fill="#ccc"/><path d="M396.394,640.8c-.023,6.847-4.6,11.887-11.161,11.887a11.4,11.4,0,1,1-.088-22.8c5.429,0,9.937,3.436,10.956,8.324h-4.873a6.254,6.254,0,0,0-6-3.811c-3.871,0-6.527,2.826-6.527,6.91,0,4.044,2.588,6.865,6.527,6.865a6.262,6.262,0,0,0,6.082-3.749h-6.55V640.8Z" transform="translate(-304.817 -604.627)" fill="#ccc"/><path d="M420.365,645.185h4.765c0,2.112,1.745,3.131,3.677,3.131,1.78,0,3.519-.94,3.519-2.569,0-1.7-1.992-2.16-4.362-2.713-3.294-.812-7.3-1.768-7.3-6.476,0-4.192,3.087-6.553,7.926-6.553,5.023,0,7.878,2.682,7.878,7.035H431.8c0-1.882-1.553-2.764-3.32-2.764-1.532,0-3.085.65-3.085,2.08,0,1.538,1.9,2,4.212,2.557,3.331.843,7.514,1.881,7.514,6.777,0,4.719-3.76,7.009-8.284,7.009C423.821,652.7,420.365,649.882,420.365,645.185Z" transform="translate(-327.042 -604.684)" fill="#ccc"/></g></svg>