<?xml version="1.0" encoding="utf-8"?>
<!-- Generator: Adobe Illustrator 22.0.1, SVG Export Plug-In . SVG Version: 6.00 Build 0)  -->
<svg version="1.1" id="layout" xmlns="http://www.w3.org/2000/svg" xmlns:xlink="http://www.w3.org/1999/xlink" x="0px" y="0px"
	 viewBox="0 0 180 26" style="enable-background:new 0 0 180 26;" xml:space="preserve">
<style type="text/css">
	.st0{fill:#FF1D25;}
	.st1{fill:#CCCCCC;}
	.st2{fill:#E5E5E5;}
</style>
<path class="st0" d="M0.9,64.7c-0.5-0.4-0.9-1.2-0.9-2C0,61.3,1.2,60,2.7,60c0.8,0,1.3,0.3,1.8,0.7c1.4,1.2,3,1.9,4.9,1.9
	c2.1,0,3.6-1.2,3.6-3.1v-0.1c0-2.1-1.8-3.2-4.9-3.2H7.1c-1.3,0-2.4-1.1-2.4-2.4c0-0.8,0.3-1.4,1.2-2.3l4.9-4.9H3.1
	c-1.3,0-2.4-1.1-2.4-2.4s1.1-2.4,2.4-2.4h12.3c1.6,0,2.8,0.9,2.8,2.4c0,1.4-0.6,2.1-1.7,3.1l-4.9,4.7c3.4,0.6,6.8,2.4,6.8,7.1v0.1
	c0,4.8-3.5,8.2-9.1,8.2C5.7,67.6,3,66.4,0.9,64.7z"/>
<path class="st1" d="M51.4,48h-4.2c-1.4,0-2.5-1.1-2.5-2.5c0-1.4,1.1-2.5,2.5-2.5h4.2v-4.1c0-1.4,1.2-2.6,2.6-2.6s2.6,1.2,2.6,2.6
	v4.1h4.2c1.4,0,2.5,1.1,2.5,2.5c0,1.4-1.1,2.5-2.5,2.5h-4.2v4.1c0,1.4-1.2,2.6-2.6,2.6s-2.6-1.2-2.6-2.6V48z"/>
<path class="st0" d="M94.3,38.3l-1.9,0.5c-0.3,0.1-0.7,0.1-1,0.1c-1.3,0-2.4-1.1-2.4-2.4c0-1.1,0.7-2.1,1.8-2.4l3.6-1
	c1-0.3,1.8-0.5,2.6-0.5H97c1.5,0,2.7,1.2,2.7,2.7v20.3c0,1.5-1.2,2.7-2.7,2.7c-1.5,0-2.7-1.2-2.7-2.7L94.3,38.3L94.3,38.3z"/>
<path class="st1" d="M125.7,40.9c0-1.4,1.1-2.5,2.5-2.5h13.2c1.4,0,2.5,1.1,2.5,2.5c0,1.4-1.1,2.5-2.5,2.5h-13.2
	C126.9,43.4,125.7,42.3,125.7,40.9z M125.7,50.2c0-1.4,1.1-2.5,2.5-2.5h13.2c1.4,0,2.5,1.1,2.5,2.5s-1.1,2.5-2.5,2.5h-13.2
	C126.9,52.7,125.7,51.6,125.7,50.2z"/>
<path class="st0" d="M182.8,52.8h-10.4c-1.5,0-2.7-1.1-2.7-2.6c0-1.2,0.5-2.1,1.3-3L182,34.5c1-1.2,1.8-1.9,3.5-1.9
	c1.5,0,2.7,1.2,2.7,2.6v13h1.3c1.3,0,2.3,1,2.3,2.3c0,1.3-1,2.2-2.3,2.2h-1.3v3c0,1.5-1.2,2.6-2.7,2.6s-2.6-1.2-2.6-2.6V52.8z
	 M182.8,48.3v-7.8l-6.7,7.8L182.8,48.3L182.8,48.3z"/>
<path class="st0" d="M0.9,23.1C0.4,22.7,0,22,0,21.2c0-1.4,1.2-2.7,2.7-2.7c0.8,0,1.3,0.3,1.8,0.7c1.4,1.2,3,1.9,4.9,1.9
	c2.1,0,3.6-1.2,3.6-3.1v-0.1c0-2.1-1.8-3.2-4.9-3.2H7.1c-1.3,0-2.4-1.1-2.4-2.4c0-0.8,0.3-1.4,1.2-2.3l4.9-4.9H3.1
	c-1.3,0-2.4-1.1-2.4-2.4s1.1-2.4,2.4-2.4h12.3c1.6,0,2.8,0.9,2.8,2.4c0,1.4-0.6,2.1-1.7,3.1l-4.9,4.7c3.4,0.6,6.8,2.4,6.8,7.1v0.1
	c0,4.8-3.5,8.2-9.1,8.2C5.7,26,3,24.9,0.9,23.1z"/>
<path class="st2" d="M46.4,15.4h-4.2c-1.4,0-2.5-1.1-2.5-2.5c0-1.4,1.1-2.5,2.5-2.5h4.2V6.3c0-1.4,1.2-2.6,2.6-2.6s2.6,1.2,2.6,2.6
	v4.1h4.2c1.4,0,2.5,1.1,2.5,2.5c0,1.4-1.1,2.5-2.5,2.5h-4.2v4.1c0,1.4-1.2,2.6-2.6,2.6s-2.6-1.2-2.6-2.6V15.4z"/>
<path class="st0" d="M88.8,5.7l-1.9,0.5c-0.3,0.1-0.7,0.1-1,0.1c-1.3,0-2.4-1.1-2.4-2.4c0-1.1,0.7-2.1,1.8-2.4l3.6-1
	c1-0.3,1.8-0.5,2.6-0.5h0.1c1.5,0,2.7,1.2,2.7,2.7v20.3c0,1.5-1.2,2.7-2.7,2.7c-1.5,0-2.7-1.2-2.7-2.7L88.8,5.7L88.8,5.7z"/>
<path class="st2" d="M119.2,8.2c0-1.4,1.1-2.5,2.5-2.5H135c1.4,0,2.5,1.1,2.5,2.5c0,1.4-1.1,2.5-2.5,2.5h-13.2
	C120.4,10.7,119.2,9.6,119.2,8.2z M119.2,17.6c0-1.4,1.1-2.5,2.5-2.5H135c1.4,0,2.5,1.1,2.5,2.5s-1.1,2.5-2.5,2.5h-13.2
	C120.4,20.1,119.2,19,119.2,17.6z"/>
<path class="st0" d="M170.8,20.2h-10.4c-1.5,0-2.7-1.1-2.7-2.6c0-1.2,0.5-2.1,1.3-3L170,1.9c1-1.2,1.8-1.9,3.5-1.9
	c1.5,0,2.7,1.2,2.7,2.6v13h1.3c1.3,0,2.3,1,2.3,2.3s-1,2.2-2.3,2.2h-1.3v3c0,1.5-1.2,2.6-2.7,2.6s-2.6-1.2-2.6-2.6V20.2z
	 M170.8,15.7V7.8l-6.7,7.8L170.8,15.7L170.8,15.7z"/>
</svg>
