<svg xmlns="http://www.w3.org/2000/svg" width="162" height="424" viewBox="0 0 162 424"><g transform="translate(-917 -216)"><g transform="translate(-420 1)"><g transform="translate(422.495 43.717)"><g transform="translate(914.505 222.283)" fill="none" stroke="#5411c5" stroke-miterlimit="10" stroke-width="0.956"><rect width="40" height="40" stroke="none"/><rect x="0.478" y="0.478" width="39.044" height="39.044" fill="none"/></g><g transform="translate(-4133.664 2465.215)"><path d="M5053.45-2228.947v8.02l4.01,4.01h4.01v-4.01Z" fill="#5411c5"/><path d="M5061.47-2228.947v8.02l4.01,4.01h8.02Z" fill="#5411c5"/><path d="M5082.888-2216.917v-8.02l-4.01-4.01h-4.01v4.01Z" fill="#5411c5"/><path d="M5074.869-2216.917v-8.02l-4.01-4.01h-8.02Z" fill="#5411c5"/></g></g><g transform="translate(422.495 99.339)"><g transform="translate(914.505 264.661)" fill="#5411c5" stroke="#5411c5" stroke-miterlimit="10" stroke-width="0.956"><rect width="40" height="40" stroke="none"/><rect x="0.478" y="0.478" width="39.044" height="39.044" fill="none"/></g><g transform="translate(-4133.664 2465.215)"><path d="M5053.45-2186.569v8.02l4.01,4.01h4.01v-4.01Z" fill="#fff"/><path d="M5061.47-2186.569v8.02l4.01,4.01h8.02Z" fill="#fff"/><path d="M5082.888-2174.539v-8.02l-4.01-4.01h-4.01v4.01Z" fill="#fff"/><path d="M5074.869-2174.539v-8.02l-4.01-4.01h-8.02Z" fill="#fff"/></g></g><g transform="translate(422.495 154.96)"><g transform="translate(914.505 307.04)" stroke="#000" stroke-miterlimit="10" stroke-width="0.956"><rect width="40" height="40" stroke="none"/><rect x="0.478" y="0.478" width="39.044" height="39.044" fill="none"/></g><g transform="translate(-4133.664 2465.215)"><path d="M5053.45-2144.19v8.02l4.01,4.01h4.01v-4.01Z" fill="#5411c5"/><path d="M5061.47-2144.19v8.02l4.01,4.01h8.02Z" fill="#5411c5"/><path d="M5082.888-2132.161v-8.02l-4.01-4.01h-4.01v4.01Z" fill="#5411c5"/><path d="M5074.869-2132.161v-8.02l-4.01-4.01h-8.02Z" fill="#5411c5"/></g></g><g transform="translate(422.495 203.654)"><g transform="translate(914.505 356.346)" stroke="#000" stroke-miterlimit="10" stroke-width="0.956"><rect width="40" height="40" stroke="none"/><rect x="0.478" y="0.478" width="39.044" height="39.044" fill="none"/></g><g transform="translate(-4133.664 2514.521)"><path d="M5053.45-2144.19v8.02l4.01,4.01h4.01v-4.01Z" fill="#fff"/><path d="M5061.47-2144.19v8.02l4.01,4.01h8.02Z" fill="#fff"/><path d="M5082.888-2132.161v-8.02l-4.01-4.01h-4.01v4.01Z" fill="#fff"/><path d="M5074.869-2132.161v-8.02l-4.01-4.01h-8.02Z" fill="#fff"/></g></g></g><g transform="translate(-433.229 18.5)"><g transform="translate(-3839.182 2449.836)"><g transform="translate(5312.734 -2252.337)" fill="none" stroke="#5411c5" stroke-miterlimit="10" stroke-width="0.924"><rect width="38.676" height="38.676" rx="19.338" stroke="none"/><rect x="0.462" y="0.462" width="37.752" height="37.752" rx="18.876" fill="none"/></g><path d="M5317.84-2238.579v7.754l3.877,3.877h3.877v-3.877Z" fill="#5411c5"/><path d="M5325.595-2238.579v7.754l3.877,3.877h7.754Z" fill="#5411c5"/><path d="M5346.3-2226.947v-7.754l-3.877-3.877h-3.877v3.877Z" fill="#5411c5"/><path d="M5338.55-2226.947v-7.754l-3.877-3.877h-7.754Z" fill="#5411c5"/></g><g transform="translate(-3839.182 2505.162)"><g transform="translate(5312.072 -2209.662)" fill="#5411c5" stroke="#5411c5" stroke-miterlimit="10" stroke-width="0.924"><rect width="38.676" height="38.676" rx="19.338" stroke="none"/><rect x="0.462" y="0.462" width="37.752" height="37.752" rx="18.876" fill="none"/></g><path d="M5317.178-2195.9v7.754l3.877,3.877h3.877v-3.877Z" fill="#fff"/><path d="M5324.933-2195.9v7.754l3.877,3.877h7.754Z" fill="#fff"/><path d="M5345.643-2184.272v-7.754l-3.877-3.877h-3.877v3.877Z" fill="#fff"/><path d="M5337.888-2184.272v-7.754l-3.877-3.877h-7.754Z" fill="#fff"/></g><g transform="translate(-3839.182 2561.116)"><g transform="translate(5312.734 -2167.616)" stroke="#000" stroke-miterlimit="10" stroke-width="0.924"><rect width="38.676" height="38.676" rx="19.338" stroke="none"/><rect x="0.462" y="0.462" width="37.752" height="37.752" rx="18.876" fill="none"/></g><path d="M5317.84-2153.858v7.754l3.877,3.877h3.877v-3.877Z" fill="#5411c5"/><path d="M5325.595-2153.858v7.754l3.877,3.877h7.754Z" fill="#5411c5"/><path d="M5346.3-2142.226v-7.754l-3.877-3.877h-3.877v3.877Z" fill="#5411c5"/><path d="M5338.55-2142.226v-7.754l-3.877-3.877h-7.754Z" fill="#5411c5"/></g><g transform="translate(-3839.182 2616.333)"><g transform="translate(5311.411 -2124.833)" stroke="#000" stroke-miterlimit="10" stroke-width="0.924"><rect width="38.676" height="38.676" rx="19.338" stroke="none"/><rect x="0.462" y="0.462" width="37.752" height="37.752" rx="18.876" fill="none"/></g><path d="M5316.517-2111.075v7.754l3.877,3.877h3.877v-3.877Z" fill="#fff"/><path d="M5324.271-2111.075v7.754l3.877,3.877h7.754Z" fill="#fff"/><path d="M5344.98-2099.443v-7.754l-3.877-3.877h-3.877v3.877Z" fill="#fff"/><path d="M5337.226-2099.443v-7.754l-3.877-3.877h-7.754Z" fill="#fff"/></g></g><g transform="translate(-439.012 15.5)"><g transform="translate(1132.24 -118.121)"><g transform="translate(-720.092 284.795)"><g transform="translate(995.863 143.827)" fill="none" stroke="#5411c5" stroke-miterlimit="10" stroke-width="0.478"><rect width="20" height="20" stroke="none"/><rect x="0.239" y="0.239" width="19.522" height="19.522" fill="none"/></g></g><g transform="translate(-4876.755 2671.554)"><path d="M5155.167-2235.94v4.01l2,2h2v-2Z" fill="#5411c5"/><path d="M5159.177-2235.94v4.01l2.005,2h4.01Z" fill="#5411c5"/><path d="M5169.886-2229.925v-4.01l-2-2h-2v2Z" fill="#5411c5"/><path d="M5165.876-2229.925v-4.01l-2-2h-4.01Z" fill="#5411c5"/></g></g><g transform="translate(412.148 243.484)"><g transform="translate(995.863 165.016)" fill="#5411c5" stroke="#5411c5" stroke-miterlimit="10" stroke-width="0.478"><rect width="20" height="20" stroke="none"/><rect x="0.239" y="0.239" width="19.522" height="19.522" fill="none"/></g><g transform="translate(-4156.664 2386.759)"><path d="M5155.167-2214.75v4.01l2,2.005h2v-2.005Z" fill="#fff"/><path d="M5159.177-2214.75v4.01l2.005,2.005h4.01Z" fill="#fff"/><path d="M5169.886-2208.736v-4.01l-2-2h-2v2Z" fill="#fff"/><path d="M5165.876-2208.736v-4.01l-2-2h-4.01Z" fill="#fff"/></g></g><g transform="translate(412.148 320.295)"><g transform="translate(995.863 186.205)" stroke="#000" stroke-miterlimit="10" stroke-width="0.478"><rect width="20" height="20" stroke="none"/><rect x="0.239" y="0.239" width="19.522" height="19.522" fill="none"/></g><g transform="translate(-4156.664 2386.759)"><path d="M5155.167-2193.561v4.01l2,2.005h2v-2.005Z" fill="#5411c5"/><path d="M5159.177-2193.561v4.01l2.005,2.005h4.01Z" fill="#5411c5"/><path d="M5169.886-2187.546v-4.01l-2-2h-2v2Z" fill="#5411c5"/><path d="M5165.876-2187.546v-4.01l-2-2h-4.01Z" fill="#5411c5"/></g></g><g transform="translate(412.148 418.295)"><g transform="translate(995.863 186.205)" stroke="#000" stroke-miterlimit="10" stroke-width="0.478"><rect width="20" height="20" stroke="none"/><rect x="0.239" y="0.239" width="19.522" height="19.522" fill="none"/></g><g transform="translate(-4156.664 2386.759)"><path d="M5155.167-2193.561v4.01l2,2.005h2v-2.005Z" fill="#fff"/><path d="M5159.177-2193.561v4.01l2.005,2.005h4.01Z" fill="#fff"/><path d="M5169.886-2187.546v-4.01l-2-2h-2v2Z" fill="#fff"/><path d="M5165.876-2187.546v-4.01l-2-2h-4.01Z" fill="#fff"/></g></g><g transform="translate(-3796.79 2513.836)"><g transform="translate(5243.452 -2252.337)" fill="none" stroke="#5411c5" stroke-miterlimit="10" stroke-width="0.462"><rect width="19.338" height="19.338" rx="9.669" stroke="none"/><rect x="0.231" y="0.231" width="18.876" height="18.876" rx="9.438" fill="none"/></g><path d="M5246.005-2245.458v3.877l1.938,1.938h1.938v-1.938Z" fill="#5411c5"/><path d="M5249.882-2245.458v3.877l1.939,1.938h3.877Z" fill="#5411c5"/><path d="M5260.237-2239.642v-3.877l-1.938-1.938h-1.938v1.938Z" fill="#5411c5"/><path d="M5256.36-2239.642v-3.877l-1.939-1.938h-3.877Z" fill="#5411c5"/></g><g transform="translate(-3796.79 2590.499)"><g transform="translate(5243.121 -2230.999)" fill="#5411c5" stroke="#5411c5" stroke-miterlimit="10" stroke-width="0.462"><rect width="19.338" height="19.338" rx="9.669" stroke="none"/><rect x="0.231" y="0.231" width="18.876" height="18.876" rx="9.438" fill="none"/></g><path d="M5245.674-2224.12v3.877l1.938,1.939h1.938v-1.939Z" fill="#fff"/><path d="M5249.551-2224.12v3.877l1.939,1.939h3.877Z" fill="#fff"/><path d="M5259.906-2218.3v-3.877l-1.938-1.939h-1.938v1.939Z" fill="#fff"/><path d="M5256.029-2218.3v-3.877l-1.938-1.939h-3.877Z" fill="#fff"/></g><g transform="translate(-3796.79 2667.476)"><g transform="translate(5243.452 -2209.976)" stroke="#000" stroke-miterlimit="10" stroke-width="0.462"><rect width="19.338" height="19.338" rx="9.669" stroke="none"/><rect x="0.231" y="0.231" width="18.876" height="18.876" rx="9.438" fill="none"/></g><path d="M5246.005-2203.1v3.877l1.938,1.939h1.938v-1.939Z" fill="#5411c5"/><path d="M5249.882-2203.1v3.877l1.939,1.939h3.877Z" fill="#5411c5"/><path d="M5260.237-2197.281v-3.877l-1.938-1.939h-1.938v1.939Z" fill="#5411c5"/><path d="M5256.36-2197.281v-3.877l-1.939-1.939h-3.877Z" fill="#5411c5"/></g><g transform="translate(-3796.79 2744.084)"><g transform="translate(5242.791 -2188.585)" stroke="#000" stroke-miterlimit="10" stroke-width="0.462"><rect width="19.338" height="19.338" rx="9.669" stroke="none"/><rect x="0.231" y="0.231" width="18.876" height="18.876" rx="9.438" fill="none"/></g><path d="M5245.343-2181.706v3.877l1.938,1.938h1.939v-1.938Z" fill="#fff"/><path d="M5249.221-2181.706v3.877l1.938,1.938h3.877Z" fill="#fff"/><path d="M5259.575-2175.89v-3.877l-1.938-1.938H5255.7v1.938Z" fill="#fff"/><path d="M5255.7-2175.89v-3.877l-1.938-1.938h-3.877Z" fill="#fff"/></g></g></g></svg>