<svg xmlns="http://www.w3.org/2000/svg" width="572" height="374" viewBox="0 0 572 374"><g transform="translate(-832 -357)"><g transform="translate(-3383.746 2531.718)"><g transform="translate(4216.746 -2174.718)" fill="none" stroke="#8623b8" stroke-miterlimit="10" stroke-width="1.89"><rect width="79.086" height="79.086" stroke="none"/><rect x="0.945" y="0.945" width="77.197" height="77.197" fill="none"/></g><path d="M4237.83-2149.725l-3.6-2.079-3.6,2.079-3.6,2.079v16.63l3.6,2.079,3.6,2.079v-16.629l3.6,2.079,3.6,2.079v-8.315Z" fill="#8623b8"/><path d="M4245.031-2141.411l3.6-2.079,3.6,2.079,3.6,2.079v16.629l-3.6,2.079-3.6,2.079v-16.629l-3.6,2.079-3.6,2.079v-8.315Z" fill="#8623b8"/><path d="M4274.748-2128.938l3.6,2.079,3.6-2.079,3.6-2.079v-16.629l-3.6-2.079-3.6-2.079v16.629l-3.6-2.079-3.6-2.079v8.315Z" fill="#8623b8"/><path d="M4267.547-2120.624l-3.6,2.079-3.6-2.079-3.6-2.079v-16.629l3.6-2.079,3.6-2.079v16.629l3.6-2.079,3.6-2.079v8.315Z" fill="#8623b8"/></g><g transform="translate(-3383.746 2547.547)"><rect width="79.086" height="79.086" transform="translate(4216.746 -2092.547)" fill="#8623b8"/><path d="M4237.83-2067.554l-3.6-2.079-3.6,2.079-3.6,2.079v16.629l3.6,2.079,3.6,2.079v-16.629l3.6,2.079,3.6,2.079v-8.315Z" fill="#fff"/><path d="M4245.031-2059.24l3.6-2.079,3.6,2.079,3.6,2.079v16.629l-3.6,2.079-3.6,2.079V-2053l-3.6,2.079-3.6,2.079v-8.315Z" fill="#fff"/><path d="M4274.748-2046.767l3.6,2.079,3.6-2.079,3.6-2.079v-16.629l-3.6-2.079-3.6-2.079V-2053l-3.6-2.079-3.6-2.079v8.315Z" fill="#fff"/><path d="M4267.547-2038.453l-3.6,2.079-3.6-2.079-3.6-2.079v-16.63l3.6-2.079,3.6-2.079v16.63l3.6-2.079,3.6-2.079v8.315Z" fill="#fff"/></g><g transform="translate(-3384.289 2563.376)"><g transform="translate(4216.289 -2010.376)" stroke="#000" stroke-miterlimit="10" stroke-width="1.89"><rect width="79.086" height="79.086" stroke="none"/><rect x="0.945" y="0.945" width="77.197" height="77.197" fill="none"/></g><path d="M4237.373-1985.383l-3.6-2.079-3.6,2.079-3.6,2.079v16.629l3.6,2.079,3.6,2.079v-16.63l3.6,2.079,3.6,2.079v-8.315Z" fill="#8623b8"/><path d="M4244.574-1977.069l3.6-2.079,3.6,2.079,3.6,2.079v16.63l-3.6,2.079-3.6,2.079v-16.629l-3.6,2.079-3.6,2.079v-8.315Z" fill="#8623b8"/><path d="M4274.291-1964.6l3.6,2.079,3.6-2.079,3.6-2.079v-16.63l-3.6-2.079-3.6-2.079v16.629l-3.6-2.079-3.6-2.079v8.315Z" fill="#8623b8"/><path d="M4267.09-1956.282l-3.6,2.079-3.6-2.079-3.6-2.079v-16.629l3.6-2.079,3.6-2.079v16.63l3.6-2.079,3.6-2.079v8.315Z" fill="#8623b8"/></g><g transform="translate(-3383.832 2579.205)"><g transform="translate(4215.832 -1928.205)" stroke="#000" stroke-miterlimit="10" stroke-width="1.89"><rect width="79.086" height="79.086" stroke="none"/><rect x="0.945" y="0.945" width="77.197" height="77.197" fill="none"/></g><path d="M4236.916-1903.213l-3.6-2.079-3.6,2.079-3.6,2.079v16.629l3.6,2.079,3.6,2.079v-16.629l3.6,2.079,3.6,2.079v-8.315Z" fill="#fff"/><path d="M4244.117-1894.9l3.6-2.079,3.6,2.079,3.6,2.079v16.63l-3.6,2.079-3.6,2.079v-16.629l-3.6,2.079-3.6,2.079v-8.315Z" fill="#fff"/><path d="M4273.834-1882.426l3.6,2.079,3.6-2.079,3.6-2.079v-16.63l-3.6-2.079-3.6-2.079v16.629l-3.6-2.079-3.6-2.079v8.315Z" fill="#fff"/><path d="M4266.633-1874.111l-3.6,2.079-3.6-2.079-3.6-2.079v-16.629l3.6-2.079,3.6-2.079v16.63l3.6-2.079,3.6-2.079v8.315Z" fill="#fff"/></g><g transform="translate(-3389.259 2500.239)"><g transform="translate(4360.259 -2123.239)" fill="none" stroke="#8623b8" stroke-miterlimit="10" stroke-width="0.945"><rect width="39.543" height="39.543" stroke="none"/><rect x="0.472" y="0.472" width="38.598" height="38.598" fill="none"/></g><path d="M4370.8-2110.742l-1.8-1.039-1.8,1.039-1.8,1.039v8.315l1.8,1.039,1.8,1.039v-8.315l1.8,1.039,1.8,1.039v-4.157Z" fill="#8623b8"/><path d="M4374.4-2106.585l1.8-1.039,1.8,1.039,1.8,1.039v8.315l-1.8,1.039-1.8,1.039v-8.315l-1.8,1.039-1.8,1.039v-4.157Z" fill="#8623b8"/><path d="M4389.26-2100.349l1.8,1.039,1.8-1.039,1.8-1.039v-8.315l-1.8-1.039-1.8-1.04v8.315l-1.8-1.039-1.8-1.039v4.157Z" fill="#8623b8"/><path d="M4385.66-2096.192l-1.8,1.039-1.8-1.039-1.8-1.039v-8.315l1.8-1.039,1.8-1.039v8.315l1.8-1.039,1.8-1.039v4.157Z" fill="#8623b8"/></g><g transform="translate(-3389.259 2557.153)"><rect width="39.543" height="39.543" transform="translate(4360.259 -2082.153)" fill="#8623b8"/><path d="M4370.8-2069.657l-1.8-1.039-1.8,1.039-1.8,1.039v8.315l1.8,1.039,1.8,1.04v-8.315l1.8,1.039,1.8,1.039v-4.157Z" fill="#fff"/><path d="M4374.4-2065.5l1.8-1.039,1.8,1.039,1.8,1.04v8.315l-1.8,1.039-1.8,1.039v-8.315l-1.8,1.039-1.8,1.039v-4.157Z" fill="#fff"/><path d="M4389.26-2059.263l1.8,1.039,1.8-1.039,1.8-1.04v-8.315l-1.8-1.039-1.8-1.039v8.315l-1.8-1.039-1.8-1.039v4.157Z" fill="#fff"/><path d="M4385.66-2055.106l-1.8,1.039-1.8-1.039-1.8-1.039v-8.315l1.8-1.039,1.8-1.04v8.315l1.8-1.039,1.8-1.039v4.157Z" fill="#fff"/></g><g transform="translate(-3390.031 2614.068)"><g transform="translate(4360.031 -2041.068)" stroke="#000" stroke-miterlimit="10" stroke-width="0.945"><rect width="39.543" height="39.543" stroke="none"/><rect x="0.472" y="0.472" width="38.598" height="38.598" fill="none"/></g><path d="M4370.573-2028.572l-1.8-1.039-1.8,1.039-1.8,1.039v8.315l1.8,1.039,1.8,1.039v-8.315l1.8,1.039,1.8,1.039v-4.157Z" fill="#8623b8"/><path d="M4374.173-2024.415l1.8-1.039,1.8,1.039,1.8,1.039v8.315l-1.8,1.039-1.8,1.039v-8.315l-1.8,1.039-1.8,1.039v-4.157Z" fill="#8623b8"/><path d="M4389.032-2018.178l1.8,1.039,1.8-1.039,1.8-1.039v-8.315l-1.8-1.039-1.8-1.039v8.315l-1.8-1.039-1.8-1.039v4.157Z" fill="#8623b8"/><path d="M4385.432-2014.021l-1.8,1.039-1.8-1.039-1.8-1.039v-8.315l1.8-1.039,1.8-1.039v8.315l1.8-1.039,1.8-1.039v4.157Z" fill="#8623b8"/></g><g transform="translate(-3389.802 2670.982)"><g transform="translate(4359.802 -1999.983)" stroke="#000" stroke-miterlimit="10" stroke-width="0.945"><rect width="39.543" height="39.543" stroke="none"/><rect x="0.472" y="0.472" width="38.598" height="38.598" fill="none"/></g><path d="M4370.345-1987.486l-1.8-1.039-1.8,1.039-1.8,1.039v8.315l1.8,1.039,1.8,1.039v-8.315l1.8,1.039,1.8,1.039v-4.157Z" fill="#fff"/><path d="M4373.945-1983.329l1.8-1.039,1.8,1.039,1.8,1.039v8.315l-1.8,1.039-1.8,1.039v-8.315l-1.8,1.039-1.8,1.039v-4.157Z" fill="#fff"/><path d="M4388.8-1977.093l1.8,1.039,1.8-1.039,1.8-1.039v-8.315l-1.8-1.039-1.8-1.039v8.315l-1.8-1.039-1.8-1.039v4.157Z" fill="#fff"/><path d="M4385.2-1972.936l-1.8,1.039-1.8-1.039-1.8-1.039v-8.315l1.8-1.039,1.8-1.039v8.315l1.8-1.039,1.8-1.039v4.157Z" fill="#fff"/></g><g transform="translate(-3383.943 2510.239)"><g transform="translate(4452.943 -2123.239)" fill="none" stroke="#8623b8" stroke-miterlimit="10" stroke-width="0.472"><rect width="19.772" height="19.772" stroke="none"/><rect x="0.236" y="0.236" width="19.299" height="19.299" fill="none"/></g><path d="M4458.214-2116.99l-.9-.52-.9.52-.9.52v4.157l.9.52.9.52v-4.157l.9.52.9.52v-2.079Z" fill="#8623b8"/><path d="M4460.015-2114.912l.9-.52.9.52.9.52v4.157l-.9.52-.9.52v-4.157l-.9.52-.9.52v-2.079Z" fill="#8623b8"/><path d="M4467.444-2111.794l.9.52.9-.52.9-.52v-4.157l-.9-.52-.9-.52v4.157l-.9-.52-.9-.52v2.079Z" fill="#8623b8"/><path d="M4465.644-2109.715l-.9.52-.9-.52-.9-.52v-4.157l.9-.52.9-.52v4.157l.9-.52.9-.52v2.079Z" fill="#8623b8"/></g><g transform="translate(-3383.943 2587.696)"><rect width="19.772" height="19.772" transform="translate(4452.943 -2102.696)" fill="#8623b8"/><path d="M4458.214-2096.448l-.9-.52-.9.52-.9.52v4.157l.9.52.9.52v-4.157l.9.52.9.52v-2.079Z" fill="#fff"/><path d="M4460.015-2094.369l.9-.52.9.52.9.52v4.157l-.9.52-.9.52v-4.157l-.9.52-.9.52v-2.079Z" fill="#fff"/><path d="M4467.444-2091.251l.9.52.9-.52.9-.52v-4.157l-.9-.52-.9-.52v4.157l-.9-.52-.9-.52v2.079Z" fill="#fff"/><path d="M4465.644-2089.173l-.9.52-.9-.52-.9-.52v-4.157l.9-.52.9-.52v4.157l.9-.52.9-.52v2.079Z" fill="#fff"/></g><g transform="translate(-3383.829 2665.153)"><g transform="translate(4452.829 -2082.153)" stroke="#000" stroke-miterlimit="10" stroke-width="0.472"><rect width="19.772" height="19.772" stroke="none"/><rect x="0.236" y="0.236" width="19.299" height="19.299" fill="none"/></g><path d="M4458.1-2075.905l-.9-.52-.9.52-.9.52v4.157l.9.52.9.52v-4.157l.9.52.9.52v-2.079Z" fill="#8623b8"/><path d="M4459.9-2073.827l.9-.52.9.52.9.52v4.157l-.9.52-.9.52v-4.157l-.9.52-.9.52v-2.079Z" fill="#8623b8"/><path d="M4467.33-2070.708l.9.52.9-.52.9-.52v-4.157l-.9-.52-.9-.52v4.157l-.9-.52-.9-.52v2.079Z" fill="#8623b8"/><path d="M4465.529-2068.63l-.9.52-.9-.52-.9-.52v-4.157l.9-.52.9-.52v4.157l.9-.52.9-.52v2.079Z" fill="#8623b8"/></g><g transform="translate(-3383.715 2742.611)"><g transform="translate(4452.715 -2061.611)" stroke="#000" stroke-miterlimit="10" stroke-width="0.472"><rect width="19.772" height="19.772" stroke="none"/><rect x="0.236" y="0.236" width="19.299" height="19.299" fill="none"/></g><path d="M4457.986-2055.363l-.9-.52-.9.52-.9.52v4.157l.9.52.9.52v-4.157l.9.52.9.52v-2.079Z" fill="#fff"/><path d="M4459.786-2053.284l.9-.52.9.52.9.52v4.157l-.9.52-.9.52v-4.157l-.9.52-.9.52v-2.079Z" fill="#fff"/><path d="M4467.215-2050.166l.9.52.9-.52.9-.52v-4.157l-.9-.52-.9-.52v4.157l-.9-.52-.9-.52v2.079Z" fill="#fff"/><path d="M4465.415-2048.087l-.9.52-.9-.52-.9-.52v-4.157l.9-.52.9-.52v4.157l.9-.52.9-.52v2.079Z" fill="#fff"/></g><g transform="translate(-3205.626 2556.581)"><g transform="translate(4529.626 -2199.581)" fill="none" stroke="#8623b8" stroke-miterlimit="10" stroke-width="1.911"><rect width="80" height="80" rx="40" stroke="none"/><rect x="0.956" y="0.956" width="78.089" height="78.089" rx="39.044" fill="none"/></g><path d="M4550.954-2170.182l-3.642-2.1-3.642,2.1-3.642,2.1v16.822l3.642,2.1,3.642,2.1v-16.822l3.642,2.1,3.642,2.1v-8.411Z" fill="#8623b8"/><path d="M4558.238-2161.771l3.642-2.1,3.642,2.1,3.642,2.1v16.822l-3.642,2.1-3.642,2.1v-16.822l-3.642,2.1-3.642,2.1v-8.411Z" fill="#8623b8"/><path d="M4588.3-2149.155l3.642,2.1,3.642-2.1,3.642-2.1v-16.822l-3.642-2.1-3.642-2.1v16.822l-3.642-2.1-3.642-2.1v8.411Z" fill="#8623b8"/><path d="M4581.014-2140.744l-3.642,2.1-3.642-2.1-3.642-2.1v-16.822l3.642-2.1,3.642-2.1v16.822l3.642-2.1,3.642-2.1v8.411Z" fill="#8623b8"/></g><g transform="translate(-3206.626 2568.454)"><g transform="translate(4529.626 -2113.454)" fill="#8623b8" stroke="#8623b8" stroke-miterlimit="10" stroke-width="1.911"><rect width="80" height="80" rx="40" stroke="none"/><rect x="0.956" y="0.956" width="78.089" height="78.089" rx="39.044" fill="none"/></g><path d="M4550.954-2084.054l-3.642-2.1-3.642,2.1-3.642,2.1v16.822l3.642,2.1,3.642,2.1v-16.822l3.642,2.1,3.642,2.1v-8.411Z" fill="#fff"/><path d="M4558.238-2075.644l3.642-2.1,3.642,2.1,3.642,2.1v16.822l-3.642,2.1-3.642,2.1v-16.822l-3.642,2.1-3.642,2.1v-8.411Z" fill="#fff"/><path d="M4588.3-2063.027l3.642,2.1,3.642-2.1,3.642-2.1v-16.822l-3.642-2.1-3.642-2.1v16.822l-3.642-2.1-3.642-2.1v8.411Z" fill="#fff"/><path d="M4581.014-2054.617l-3.642,2.1-3.642-2.1-3.642-2.1v-16.822l3.642-2.1,3.642-2.1v16.822l3.642-2.1,3.642-2.1v8.411Z" fill="#fff"/></g><g transform="translate(-3205.626 2574.098)"><g transform="translate(4529.626 -2021.098)" stroke="#000" stroke-miterlimit="10" stroke-width="1.911"><rect width="80" height="80" rx="40" stroke="none"/><rect x="0.956" y="0.956" width="78.089" height="78.089" rx="39.044" fill="none"/></g><path d="M4550.954-1992.674l-3.642-2.1-3.642,2.1-3.642,2.1v16.822l3.642,2.1,3.642,2.1v-16.822l3.642,2.1,3.642,2.1v-8.411Z" fill="#8623b8"/><path d="M4558.238-1984.263l3.642-2.1,3.642,2.1,3.642,2.1v16.822l-3.642,2.1-3.642,2.1v-16.822l-3.642,2.1-3.642,2.1v-8.411Z" fill="#8623b8"/><path d="M4588.3-1971.647l3.642,2.1,3.642-2.1,3.642-2.1v-16.822l-3.642-2.1-3.642-2.1v16.822l-3.642-2.1-3.642-2.1v8.411Z" fill="#8623b8"/><path d="M4581.014-1963.236l-3.642,2.1-3.642-2.1-3.642-2.1v-16.822l3.642-2.1,3.642-2.1v16.822l3.642-2.1,3.642-2.1v8.411Z" fill="#8623b8"/></g><g transform="translate(-3208.626 2582.326)"><g transform="translate(4529.626 -1931.326)" stroke="#000" stroke-miterlimit="10" stroke-width="1.911"><rect width="80" height="80" rx="40" stroke="none"/><rect x="0.956" y="0.956" width="78.089" height="78.089" rx="39.044" fill="none"/></g><path d="M4550.954-1902.9l-3.642-2.1-3.642,2.1-3.642,2.1v16.822l3.642,2.1,3.642,2.1v-16.822l3.642,2.1,3.642,2.1v-8.411Z" fill="#fff"/><path d="M4558.238-1894.492l3.642-2.1,3.642,2.1,3.642,2.1v16.822l-3.642,2.1-3.642,2.1v-16.822l-3.642,2.1-3.642,2.1v-8.411Z" fill="#fff"/><path d="M4588.3-1881.875l3.642,2.1,3.642-2.1,3.642-2.1V-1900.8l-3.642-2.1-3.642-2.1v16.822l-3.642-2.1-3.642-2.1v8.411Z" fill="#fff"/><path d="M4581.014-1873.465l-3.642,2.1-3.642-2.1-3.642-2.1v-16.822l3.642-2.1,3.642-2.1v16.822l3.642-2.1,3.642-2.1v8.411Z" fill="#fff"/></g><g transform="translate(-3424.042 2500.438)"><g transform="translate(4648.641 -2123.438)" fill="none" stroke="#8623b8" stroke-miterlimit="10" stroke-width="0.956"><rect width="40" height="40" rx="20" stroke="none"/><rect x="0.478" y="0.478" width="39.044" height="39.044" rx="19.522" fill="none"/></g><path d="M4659.3-2108.738l-1.821-1.051-1.821,1.051-1.821,1.051v8.411l1.821,1.051,1.821,1.052v-8.411l1.821,1.051,1.821,1.052v-4.206Z" fill="#8623b8"/><path d="M4662.947-2104.533l1.821-1.051,1.821,1.051,1.821,1.052v8.411l-1.821,1.051-1.821,1.052v-8.411l-1.821,1.052-1.821,1.051v-4.205Z" fill="#8623b8"/><path d="M4677.977-2098.225l1.821,1.052,1.821-1.052,1.821-1.051v-8.411l-1.821-1.052-1.821-1.051v8.411l-1.821-1.051-1.821-1.051v4.205Z" fill="#8623b8"/><path d="M4674.335-2094.02l-1.821,1.051-1.821-1.051-1.821-1.052v-8.411l1.821-1.052,1.821-1.051v8.411l1.821-1.052,1.821-1.051v4.205Z" fill="#8623b8"/></g><g transform="translate(-3424.042 2555.374)"><g transform="translate(4648.641 -2080.374)" fill="#8623b8" stroke="#8623b8" stroke-miterlimit="10" stroke-width="0.956"><rect width="40" height="40" rx="20" stroke="none"/><rect x="0.478" y="0.478" width="39.044" height="39.044" rx="19.522" fill="none"/></g><path d="M4659.3-2065.674l-1.821-1.051-1.821,1.051-1.821,1.051v8.411l1.821,1.051,1.821,1.051v-8.411l1.821,1.051,1.821,1.051v-4.205Z" fill="#fff"/><path d="M4662.947-2061.469l1.821-1.051,1.821,1.051,1.821,1.051v8.411l-1.821,1.051-1.821,1.052v-8.411l-1.821,1.051-1.821,1.052v-4.206Z" fill="#fff"/><path d="M4677.977-2055.161l1.821,1.051,1.821-1.051,1.821-1.051v-8.411l-1.821-1.051-1.821-1.051v8.411l-1.821-1.051-1.821-1.051v4.205Z" fill="#fff"/><path d="M4674.335-2050.956l-1.821,1.052-1.821-1.052-1.821-1.051v-8.411l1.821-1.051,1.821-1.051v8.411l1.821-1.051,1.821-1.051v4.205Z" fill="#fff"/></g><g transform="translate(-3424.042 2607.196)"><g transform="translate(4648.641 -2034.196)" stroke="#000" stroke-miterlimit="10" stroke-width="0.956"><rect width="40" height="40" rx="20" stroke="none"/><rect x="0.478" y="0.478" width="39.044" height="39.044" rx="19.522" fill="none"/></g><path d="M4659.3-2019.984l-1.821-1.051-1.821,1.051-1.821,1.051v8.411l1.821,1.051,1.821,1.051v-8.411l1.821,1.051,1.821,1.051v-4.205Z" fill="#8623b8"/><path d="M4662.947-2015.779l1.821-1.051,1.821,1.051,1.821,1.051v8.411l-1.821,1.051-1.821,1.051v-8.411l-1.821,1.051-1.821,1.051v-4.205Z" fill="#8623b8"/><path d="M4677.977-2009.471l1.821,1.051,1.821-1.051,1.821-1.051v-8.411l-1.821-1.051-1.821-1.051v8.411l-1.821-1.051-1.821-1.051v4.205Z" fill="#8623b8"/><path d="M4674.335-2005.266l-1.821,1.051-1.821-1.051-1.821-1.051v-8.411l1.821-1.051,1.821-1.051v8.411l1.821-1.051,1.821-1.051v4.205Z" fill="#8623b8"/></g><g transform="translate(-3424.042 2659.854)"><g transform="translate(4648.641 -1989.311)" stroke="#000" stroke-miterlimit="10" stroke-width="0.956"><rect width="40" height="40" rx="20" stroke="none"/><rect x="0.478" y="0.478" width="39.044" height="39.044" rx="19.522" fill="none"/></g><path d="M4659.3-1975.1l-1.821-1.051-1.821,1.051-1.821,1.051v8.411l1.821,1.051,1.821,1.051v-8.411l1.821,1.051,1.821,1.051v-4.205Z" fill="#fff"/><path d="M4662.947-1970.893l1.821-1.051,1.821,1.051,1.821,1.051v8.411l-1.821,1.051-1.821,1.051v-8.411l-1.821,1.051-1.821,1.051v-4.205Z" fill="#fff"/><path d="M4677.977-1964.585l1.821,1.051,1.821-1.051,1.821-1.051v-8.411l-1.821-1.051-1.821-1.051v8.411l-1.821-1.051-1.821-1.051v4.205Z" fill="#fff"/><path d="M4674.335-1960.38l-1.821,1.051-1.821-1.051-1.821-1.051v-8.411l1.821-1.051,1.821-1.051v8.411l1.821-1.051,1.821-1.051v4.205Z" fill="#fff"/></g><g transform="translate(-3575.751 2464.271)"><g transform="translate(4722.437 -2077.728)" fill="none" stroke="#8623b8" stroke-miterlimit="10" stroke-width="0.478"><rect width="20" height="20" rx="10" stroke="none"/><rect x="0.239" y="0.239" width="19.522" height="19.522" rx="9.761" fill="none"/></g><path d="M4727.769-2070.378l-.911-.526-.91.526-.911.526v4.205l.911.526.91.526v-4.205l.911.526.911.526v-2.1Z" fill="#8623b8"/><path d="M4729.59-2068.276l.91-.526.911.526.911.526v4.206l-.911.526-.911.526v-4.205l-.91.526-.911.526v-2.1Z" fill="#8623b8"/><path d="M4737.1-2065.122l.911.526.911-.526.911-.526v-4.206l-.911-.526-.911-.526v4.205l-.911-.526-.91-.526v2.1Z" fill="#8623b8"/><path d="M4735.284-2063.019l-.911.526-.91-.526-.911-.526v-4.206l.911-.526.91-.526v4.205l.911-.526.911-.526v2.1Z" fill="#8623b8"/></g><g transform="translate(-3575.751 2541.196)"><g transform="translate(4722.437 -2056.196)" fill="#8623b8" stroke="#8623b8" stroke-miterlimit="10" stroke-width="0.478"><rect width="20" height="20" rx="10" stroke="none"/><rect x="0.239" y="0.239" width="19.522" height="19.522" rx="9.761" fill="none"/></g><path d="M4727.769-2048.846l-.911-.526-.91.526-.911.526v4.205l.911.526.91.526v-4.205l.911.526.911.526v-2.1Z" fill="#fff"/><path d="M4729.59-2046.744l.91-.526.911.526.911.526v4.205l-.911.526-.911.526v-4.205l-.91.526-.911.526v-2.1Z" fill="#fff"/><path d="M4737.1-2043.59l.911.526.911-.526.911-.526v-4.205l-.911-.526-.911-.526v4.205l-.911-.526-.91-.526v2.1Z" fill="#fff"/><path d="M4735.284-2041.487l-.911.526-.91-.526-.911-.526v-4.205l.911-.526.91-.526v4.205l.911-.526.911-.526v2.1Z" fill="#fff"/></g><g transform="translate(-3575.751 2616.564)"><g transform="translate(4722.437 -2033.108)" stroke="#000" stroke-miterlimit="10" stroke-width="0.478"><rect width="20" height="20" rx="10" stroke="none"/><rect x="0.239" y="0.239" width="19.522" height="19.522" rx="9.761" fill="none"/></g><path d="M4727.769-2026l-.911-.526-.91.526-.911.526v4.205l.911.526.91.526v-4.205l.911.526.911.526v-2.1Z" fill="#8623b8"/><path d="M4729.59-2023.9l.91-.526.911.526.911.526v4.205l-.911.526-.911.526v-4.205l-.91.526-.911.526v-2.1Z" fill="#8623b8"/><path d="M4737.1-2020.745l.911.526.911-.526.911-.526v-4.205l-.911-.526-.911-.526v4.205l-.911-.526-.91-.526v2.1Z" fill="#8623b8"/><path d="M4735.284-2018.642l-.911.526-.91-.526-.911-.526v-4.205l.911-.526.91-.526v4.205l.911-.526.911-.526v2.1Z" fill="#8623b8"/></g><g transform="translate(-3575.751 2691.208)"><g transform="translate(4722.437 -2010.665)" stroke="#000" stroke-miterlimit="10" stroke-width="0.478"><rect width="20" height="20" rx="10" stroke="none"/><rect x="0.239" y="0.239" width="19.522" height="19.522" rx="9.761" fill="none"/></g><path d="M4727.769-2003.558l-.911-.526-.91.526-.911.526v4.205l.911.526.91.526v-4.205l.911.526.911.526v-2.1Z" fill="#fff"/><path d="M4729.59-2001.456l.91-.526.911.526.911.526v4.205l-.911.526-.911.526v-4.205l-.91.526-.911.526v-2.1Z" fill="#fff"/><path d="M4737.1-1998.3l.911.526.911-.526.911-.526v-4.205l-.911-.526-.911-.526v4.205l-.911-.526-.91-.526v2.1Z" fill="#fff"/><path d="M4735.284-1996.2l-.911.526-.91-.526-.911-.526v-4.205l.911-.526.91-.526v4.205l.911-.526.911-.526v2.1Z" fill="#fff"/></g></g></svg>