<svg xmlns="http://www.w3.org/2000/svg" xmlns:xlink="http://www.w3.org/1999/xlink" width="161" height="420" viewBox="0 0 161 420"><defs><linearGradient id="a" y1="0.5" x2="1" y2="0.5" gradientUnits="objectBoundingBox"><stop offset="0" stop-color="#7803ff"/><stop offset="0.28" stop-color="#8419ff"/><stop offset="0.742" stop-color="#9538ff"/><stop offset="1" stop-color="#9c44ff"/></linearGradient></defs><g transform="translate(-1148 -216)"><g transform="translate(347.585 -218.107)"><g transform="translate(-4863.719 2738.828)"><g transform="translate(5664.134 -2253.72)" fill="none" stroke="#7803ff" stroke-miterlimit="10" stroke-width="0.956"><rect width="40" height="40" stroke="none"/><rect x="0.478" y="0.478" width="39.044" height="39.044" fill="none"/></g><path d="M5676.776-2241.091h-7.358v14.741h7.358l7.357-7.371Z" fill="url(#a)"/><path d="M5691.491-2241.091l-7.357,7.371,7.357,7.371h7.358v-14.741Z" fill="url(#a)"/></g></g><g transform="translate(347.585 -168.318)"><g transform="translate(-4863.719 2738.828)"><g transform="translate(5664.134 -2205.51)" fill="#7803ff" stroke="#7803ff" stroke-miterlimit="10" stroke-width="0.956"><rect width="40" height="40" stroke="none"/><rect x="0.478" y="0.478" width="39.044" height="39.044" fill="none"/></g><path d="M5676.776-2192.88h-7.358v14.741h7.358l7.357-7.371Z" fill="#fff"/><path d="M5691.491-2192.88l-7.357,7.371,7.357,7.371h7.358v-14.741Z" fill="#fff"/></g></g><g transform="translate(347.585 -115.509)"><g transform="translate(-4863.719 2738.828)"><g transform="translate(5664.134 -2161.318)" stroke="#000" stroke-miterlimit="10" stroke-width="0.956"><rect width="40" height="40" stroke="none"/><rect x="0.478" y="0.478" width="39.044" height="39.044" fill="none"/></g><path d="M5676.776-2148.689h-7.358v14.741h7.358l7.357-7.371Z" fill="url(#a)"/><path d="M5691.491-2148.689l-7.357,7.371,7.357,7.371h7.358v-14.741Z" fill="url(#a)"/></g></g><g transform="translate(347.585 -60.652)"><g transform="translate(-4863.719 2738.828)"><g transform="translate(5664.134 -2118.176)" stroke="#000" stroke-miterlimit="10" stroke-width="0.956"><rect width="40" height="40" stroke="none"/><rect x="0.478" y="0.478" width="39.044" height="39.044" fill="none"/></g><path d="M5676.776-2105.546h-7.358v14.741h7.358l7.357-7.371Z" fill="#fff"/><path d="M5691.491-2105.546l-7.357,7.371,7.357,7.371h7.358v-14.741Z" fill="#fff"/></g></g><g transform="translate(223.305 -256.882)"><g transform="translate(1045.695 472.882)" fill="none" stroke="#7803ff" stroke-miterlimit="10" stroke-width="0.956"><rect width="40" height="40" rx="20" stroke="none"/><rect x="0.478" y="0.478" width="39.044" height="39.044" rx="19.522" fill="none"/></g><g transform="translate(-4863.719 2738.828)"><path d="M5922.056-2252.747H5914.7v14.741h7.357l7.358-7.371Z" fill="url(#a)"/><path d="M5936.771-2252.747l-7.357,7.371,7.357,7.371h7.357v-14.741Z" fill="url(#a)"/></g></g><g transform="translate(223.305 -200.129)"><g transform="translate(1045.695 514.129)" fill="#7803ff" stroke="#7803ff" stroke-miterlimit="10" stroke-width="0.956"><rect width="40" height="40" rx="20" stroke="none"/><rect x="0.478" y="0.478" width="39.044" height="39.044" rx="19.522" fill="none"/></g><g transform="translate(-4863.719 2738.828)"><path d="M5922.056-2211.5H5914.7v14.741h7.357l7.358-7.371Z" fill="#fff"/><path d="M5936.771-2211.5l-7.357,7.371,7.357,7.371h7.357V-2211.5Z" fill="#fff"/></g></g><g transform="translate(223.305 -150.578)"><g transform="translate(1045.695 561.578)" stroke="#000" stroke-miterlimit="10" stroke-width="0.956"><rect width="40" height="40" rx="20" stroke="none"/><rect x="0.478" y="0.478" width="39.044" height="39.044" rx="19.522" fill="none"/></g><g transform="translate(-4863.719 2738.828)"><path d="M5922.056-2164.051H5914.7v14.741h7.357l7.358-7.371Z" fill="url(#a)"/><path d="M5936.771-2164.051l-7.357,7.371,7.357,7.371h7.357v-14.741Z" fill="url(#a)"/></g></g><g transform="translate(223.305 -100.267)"><g transform="translate(1045.695 609.267)" stroke="#000" stroke-miterlimit="10" stroke-width="0.956"><rect width="40" height="40" rx="20" stroke="none"/><rect x="0.478" y="0.478" width="39.044" height="39.044" rx="19.522" fill="none"/></g><g transform="translate(-4863.719 2738.828)"><path d="M5922.056-2116.363H5914.7v14.741h7.357l7.358-7.371Z" fill="#fff"/><path d="M5936.771-2116.363l-7.357,7.371,7.357,7.371h7.357v-14.741Z" fill="#fff"/></g></g><g transform="translate(-4)"><g transform="translate(315.17 -162.107)"><g transform="translate(-4863.719 2738.828)"><g transform="translate(5755.549 -2253.72)" fill="none" stroke="#7803ff" stroke-miterlimit="10" stroke-width="0.478"><rect width="20" height="20" stroke="none"/><rect x="0.239" y="0.239" width="19.522" height="19.522" fill="none"/></g><path d="M5761.87-2247.406h-3.679v7.371h3.679l3.679-3.685Z" fill="url(#a)"/><path d="M5769.228-2247.406l-3.679,3.685,3.679,3.685h3.679v-7.371Z" fill="url(#a)"/></g></g><g transform="translate(315.17 -89.213)"><g transform="translate(-4863.719 2738.828)"><g transform="translate(5755.549 -2229.615)" fill="#7803ff" stroke="#7803ff" stroke-miterlimit="10" stroke-width="0.478"><rect width="20" height="20" stroke="none"/><rect x="0.239" y="0.239" width="19.522" height="19.522" fill="none"/></g><path d="M5761.87-2223.3h-3.679v7.371h3.679l3.679-3.686Z" fill="#fff"/><path d="M5769.228-2223.3l-3.679,3.685,3.679,3.686h3.679v-7.371Z" fill="#fff"/></g></g><g transform="translate(315.17 -13.308)"><g transform="translate(-4863.719 2738.828)"><g transform="translate(5755.549 -2207.519)" stroke="#000" stroke-miterlimit="10" stroke-width="0.478"><rect width="20" height="20" stroke="none"/><rect x="0.239" y="0.239" width="19.522" height="19.522" fill="none"/></g><path d="M5761.87-2201.2h-3.679v7.371h3.679l3.679-3.685Z" fill="url(#a)"/><path d="M5769.228-2201.2l-3.679,3.685,3.679,3.685h3.679v-7.371Z" fill="url(#a)"/></g></g><g transform="translate(315.17 63.12)"><g transform="translate(-4863.719 2738.828)"><g transform="translate(5755.549 -2185.948)" stroke="#000" stroke-miterlimit="10" stroke-width="0.478"><rect width="20" height="20" stroke="none"/><rect x="0.239" y="0.239" width="19.522" height="19.522" fill="none"/></g><path d="M5761.87-2179.633h-3.679v7.371h3.679l3.679-3.685Z" fill="#fff"/><path d="M5769.228-2179.633l-3.679,3.686,3.679,3.685h3.679v-7.371Z" fill="#fff"/></g></g><g transform="translate(253.28 -195.882)"><g transform="translate(985.72 472.882)" fill="none" stroke="#7803ff" stroke-miterlimit="10" stroke-width="0.478"><rect width="20" height="20" rx="10" stroke="none"/><rect x="0.239" y="0.239" width="19.522" height="19.522" rx="9.761" fill="none"/></g><path d="M5855.76-2259.346h-3.679v7.371h3.679l3.679-3.685Z" transform="translate(-4863.719 2738.828)" fill="url(#a)"/><path d="M5863.118-2259.346l-3.679,3.685,3.679,3.685h3.679v-7.371Z" transform="translate(-4863.719 2738.828)" fill="url(#a)"/></g><g transform="translate(253.28 -119.506)"><g transform="translate(985.72 493.506)" fill="#7803ff" stroke="#7803ff" stroke-miterlimit="10" stroke-width="0.478"><rect width="20" height="20" rx="10" stroke="none"/><rect x="0.239" y="0.239" width="19.522" height="19.522" rx="9.761" fill="none"/></g><path d="M5855.76-2238.723h-3.679v7.371h3.679l3.679-3.685Z" transform="translate(-4863.719 2738.828)" fill="#fff"/><path d="M5863.118-2238.723l-3.679,3.685,3.679,3.685h3.679v-7.371Z" transform="translate(-4863.719 2738.828)" fill="#fff"/></g><g transform="translate(253.28 -45.23)"><g transform="translate(985.72 517.23)" stroke="#000" stroke-miterlimit="10" stroke-width="0.478"><rect width="20" height="20" rx="10" stroke="none"/><rect x="0.239" y="0.239" width="19.522" height="19.522" rx="9.761" fill="none"/></g><path d="M5855.76-2215h-3.679v7.371h3.679l3.679-3.685Z" transform="translate(-4863.719 2738.828)" fill="url(#a)"/><path d="M5863.118-2215l-3.679,3.685,3.679,3.685h3.679V-2215Z" transform="translate(-4863.719 2738.828)" fill="url(#a)"/></g><g transform="translate(253.28 28.925)"><g transform="translate(985.72 541.075)" stroke="#000" stroke-miterlimit="10" stroke-width="0.478"><rect width="20" height="20" rx="10" stroke="none"/><rect x="0.239" y="0.239" width="19.522" height="19.522" rx="9.761" fill="none"/></g><path d="M5855.76-2191.154h-3.679v7.371h3.679l3.679-3.685Z" transform="translate(-4863.719 2738.828)" fill="#fff"/><path d="M5863.118-2191.154l-3.679,3.685,3.679,3.685h3.679v-7.371Z" transform="translate(-4863.719 2738.828)" fill="#fff"/></g></g></g></svg>