<svg xmlns="http://www.w3.org/2000/svg" width="320.24" height="182" viewBox="0 0 320.24 182"><g transform="translate(-3826.367 625.653)"><path d="M3978.186-556.463" fill="#fff"/><path d="M3885.475-614.278l-19.7-11.375-19.7,11.375-19.7,11.375v91l19.7,11.375,19.7,11.376v-91l19.7,11.375,19.7,11.375v-45.5Z" fill="#fff"/><path d="M3924.88-568.78l19.7-11.375,19.7,11.375,19.7,11.375v91l-19.7,11.375-19.7,11.376v-91l-19.7,11.375-19.7,11.375v-45.5Z" fill="#fff"/><path d="M4087.5-500.526l19.7,11.375,19.7-11.375,19.7-11.375v-91l-19.7-11.375-19.7-11.376v91l-19.7-11.375L4067.8-557.4v45.5Z" fill="#fff"/><path d="M4048.095-455.028l-19.7,11.375-19.7-11.375-19.7-11.375v-91l19.7-11.375,19.7-11.376v91l19.7-11.375,19.7-11.375v45.5Z" fill="#fff"/><path d="M3847.888-468.07c0-2.29.036-4.885.085-6.348h-.072c-.535,2.554-1.749,7.462-2.818,11.42h-2.048c-.795-3.47-2.042-8.869-2.55-11.454h-.084c.1,1.535.15,4.37.15,6.639V-463h-2.119v-13.16h3.443c.927,3.485,1.974,7.916,2.313,9.833h.022c.271-1.643,1.607-6.4,2.559-9.833h3.339V-463h-2.22Z" fill="#fff"/><path d="M3861.46-468.9h-5.1v3.964h5.662l-.285,1.936H3854.1v-13.16h7.591v1.957h-5.334v3.349h5.1Z" fill="#fff"/><path d="M3868.312-474.2h-3.284v-1.96h8.886v1.96h-3.288V-463h-2.314Z" fill="#fff"/><path d="M3878.9-466.415l-.887,3.417h-2.283c.2-.586,3.421-12.5,3.642-13.16h2.974L3886.12-463H3883.7l-.923-3.417Zm3.428-1.954c-.742-2.773-1.263-4.672-1.512-5.866h-.037c-.257,1.357-.8,3.414-1.443,5.866Z" fill="#fff"/><path d="M3890.374-463l-2.87-13.16h2.459c.708,3.65,1.475,7.952,1.717,10.3h.02c.4-2.327,1.581-7.235,2.229-10.3h2.089c.592,2.661,1.8,7.872,2.152,10.188h.027c.357-2.738,1.475-7.8,1.9-10.188h2.271L3899.3-463h-2.367c-.6-2.892-1.675-7.4-2.051-9.712h-.026c-.4,2.389-1.517,7.041-2.124,9.712Z" fill="#fff"/><path d="M3908.468-476.158V-463h-2.3v-13.16Z" fill="#fff"/><path d="M3914.362-466.749a2.15,2.15,0,0,0,2.227,2.124c1.383,0,1.962-.708,1.962-1.789,0-1.212-.636-1.792-2.5-2.475-2.638-.935-3.614-1.936-3.614-3.854,0-2.216,1.618-3.6,4.037-3.6,2.983,0,4.03,1.785,4.13,3.67h-2.262c-.128-.912-.518-1.872-1.9-1.872a1.488,1.488,0,0,0-1.7,1.589c0,1.034.572,1.429,2.34,2.069,2.9,1.031,3.822,2.239,3.822,4.23,0,2.118-1.362,3.844-4.4,3.844-2.88,0-4.289-1.644-4.422-3.937Z" fill="#fff"/><path d="M3932.447-468.9h-5.1v3.964H3933l-.286,1.936h-7.633v-13.16h7.59v1.957h-5.334v3.349h5.1Z" fill="#fff"/></g></svg>