<svg xmlns="http://www.w3.org/2000/svg" width="324.811" height="159.764" viewBox="0 0 324.811 159.764"><g transform="translate(-264 569)"><g transform="translate(-2303.566 -212.377)"><path d="M2567.566-356.623v88.238l44.119,44.119H2655.8v-44.119Z"/><path d="M2655.8-356.623v88.238l44.119,44.119h88.238Z"/><path d="M2891.462-224.266V-312.5l-44.119-44.119h-44.119V-312.5Z"/><path d="M2803.225-224.266V-312.5l-44.119-44.119h-88.238Z"/><path d="M2713.564-204.086c0-3.04.028-6.075.1-7.753h-.078c-.688,2.5-3.474,9.655-5.406,14.772h-1.759c-1.457-4.115-4.352-12.128-5.093-14.8h-.062c.124,1.861.178,5.479.178,8.246v6.553H2699.6v-16.158h2.888c1.95,5.153,4.36,11.823,4.919,13.784h.039c.405-1.5,3.2-8.783,5.2-13.784h2.823v16.158h-1.9Z"/><path d="M2740.53-204.71h-8.2v5.962h9l-.256,1.681H2730.42v-16.158h10.51v1.68h-8.6v5.154h8.2Z"/><path d="M2759.528-211.544H2754.2v-1.681h12.631v1.681h-5.342v14.477h-1.957Z"/><path d="M2782.089-202.091l-1.837,5.024h-1.945l5.879-16.158h2.371l6.13,16.158h-2.078l-1.893-5.024Zm6.1-1.683c-1.631-4.39-2.5-6.651-2.847-7.839h-.023c-.39,1.315-1.369,4.081-2.687,7.839Z"/><path d="M2808.194-197.067l-4.414-16.158h2.044c1.214,4.885,3.171,12.166,3.487,14.039h.024c.4-1.963,2.742-9.9,3.831-14.039h1.931c1,3.687,3.332,12.212,3.668,13.974h.024c.516-2.651,2.9-10.5,3.861-13.974h1.928l-4.813,16.158h-2.109c-1.01-3.735-3.226-11.851-3.594-13.659h-.024c-.462,2.313-2.669,9.85-3.754,13.659Z"/><path d="M2840.832-213.225v16.158h-1.939v-16.158Z"/><path d="M2856.937-201.542c.459,1.985,1.813,3.1,4.286,3.1,2.667,0,3.713-1.254,3.713-2.834,0-1.667-.806-2.632-4.184-3.432-3.786-.9-5.133-2.175-5.133-4.455,0-2.365,1.78-4.305,5.347-4.305,3.875,0,5.415,2.247,5.628,4.3h-1.98c-.311-1.482-1.249-2.7-3.723-2.7-2.076,0-3.248.926-3.248,2.534,0,1.565.928,2.2,3.854,2.895,4.676,1.115,5.465,2.916,5.465,4.97,0,2.551-1.894,4.607-5.856,4.607-4.086,0-5.81-2.239-6.15-4.683Z"/><path d="M2891.575-204.71h-8.2v5.962h9l-.256,1.681h-10.656v-16.158h10.51v1.68h-8.6v5.154h8.2Z"/></g></g></svg>