<svg xmlns="http://www.w3.org/2000/svg" width="320.24" height="182" viewBox="0 0 320.24 182"><g transform="translate(-2567.566 625.653)"><path d="M2719.385-556.463"/><path d="M2626.674-614.278l-19.7-11.375-19.7,11.375-19.7,11.375v91l19.7,11.375,19.7,11.376v-91l19.7,11.375,19.7,11.375v-45.5Z"/><path d="M2666.079-568.78l19.7-11.375,19.7,11.375,19.7,11.375v91l-19.7,11.375-19.7,11.376v-91l-19.7,11.375-19.7,11.375v-45.5Z"/><path d="M2828.7-500.526l19.7,11.375,19.7-11.375,19.7-11.375v-91l-19.7-11.375-19.7-11.376v91l-19.7-11.375L2809-557.4v45.5Z"/><path d="M2789.294-455.028l-19.7,11.375-19.7-11.375-19.7-11.375v-91l19.7-11.375,19.7-11.376v91l19.7-11.375L2809-511.9v45.5Z"/><path d="M2589.087-468.07c0-2.29.036-4.885.085-6.348h-.072c-.535,2.554-1.749,7.462-2.819,11.42h-2.047c-.795-3.47-2.042-8.869-2.55-11.454h-.084c.1,1.535.15,4.37.15,6.639V-463h-2.119v-13.16h3.442c.928,3.485,1.975,7.916,2.314,9.833h.021c.272-1.643,1.608-6.4,2.56-9.833h3.339V-463h-2.22Z"/><path d="M2602.658-468.9h-5.1v3.964h5.662l-.285,1.936H2595.3v-13.16h7.591v1.957h-5.334v3.349h5.1Z"/><path d="M2609.511-474.2h-3.284v-1.96h8.886v1.96h-3.289V-463h-2.313Z"/><path d="M2620.1-466.415,2619.21-463h-2.283c.2-.586,3.421-12.5,3.642-13.16h2.974l3.776,13.16H2624.9l-.923-3.417Zm3.428-1.954c-.743-2.773-1.263-4.672-1.512-5.866h-.037c-.257,1.357-.8,3.414-1.444,5.866Z"/><path d="M2631.573-463l-2.871-13.16h2.459c.708,3.65,1.476,7.952,1.718,10.3h.02c.4-2.327,1.581-7.235,2.229-10.3h2.089c.592,2.661,1.8,7.872,2.151,10.188h.028c.357-2.738,1.474-7.8,1.9-10.188h2.271L2640.5-463h-2.366c-.6-2.892-1.675-7.4-2.052-9.712h-.025c-.4,2.389-1.518,7.041-2.124,9.712Z"/><path d="M2649.667-476.158V-463h-2.3v-13.16Z"/><path d="M2655.561-466.749a2.15,2.15,0,0,0,2.226,2.124c1.384,0,1.963-.708,1.963-1.789,0-1.212-.636-1.792-2.5-2.475-2.638-.935-3.614-1.936-3.614-3.854,0-2.216,1.618-3.6,4.037-3.6,2.983,0,4.029,1.785,4.13,3.67h-2.262c-.129-.912-.518-1.872-1.9-1.872a1.488,1.488,0,0,0-1.7,1.589c0,1.034.572,1.429,2.34,2.069,2.9,1.031,3.822,2.239,3.822,4.23,0,2.118-1.362,3.844-4.4,3.844-2.88,0-4.29-1.644-4.422-3.937Z"/><path d="M2673.646-468.9h-5.1v3.964h5.662l-.285,1.936h-7.634v-13.16h7.591v1.957h-5.334v3.349h5.1Z"/></g></svg>