<?xml version="1.0" encoding="utf-8"?>
<!-- Generator: Adobe Illustrator 17.1.0, SVG Export Plug-In . SVG Version: 6.00 Build 0)  -->
<!DOCTYPE svg PUBLIC "-//W3C//DTD SVG 1.1//EN" "http://www.w3.org/Graphics/SVG/1.1/DTD/svg11.dtd">
<svg version="1.1" id="layout" xmlns="http://www.w3.org/2000/svg" xmlns:xlink="http://www.w3.org/1999/xlink" x="0px" y="0px"
	 viewBox="0 0 276.817 26.024" enable-background="new 0 0 276.817 26.024" xml:space="preserve">
<g>
	<path fill="#000000" d="M210.063,17.632c0-0.442,0.341-0.784,0.783-0.784h2.514c2.78,0,4.7,1.908,4.7,4.397v0.025
		c0,2.489-1.92,4.422-4.7,4.422h-2.514c-0.442,0-0.783-0.341-0.783-0.783V17.632z M213.36,24.278c1.857,0,3.07-1.251,3.07-2.982
		v-0.025c0-1.731-1.213-3.007-3.07-3.007h-1.744v6.014H213.36z"/>
	<path fill="#000000" d="M221.529,24.682l3.285-7.328c0.177-0.392,0.493-0.632,0.935-0.632h0.076c0.442,0,0.746,0.24,0.922,0.632
		l3.285,7.328c0.063,0.114,0.088,0.228,0.088,0.329c0,0.417-0.316,0.745-0.733,0.745c-0.366,0-0.619-0.215-0.758-0.543l-0.72-1.655
		h-4.296l-0.745,1.706c-0.126,0.316-0.392,0.493-0.72,0.493c-0.404,0-0.72-0.315-0.72-0.72
		C221.428,24.922,221.465,24.808,221.529,24.682z M227.315,22.181l-1.554-3.576l-1.554,3.576H227.315z"/>
	<path fill="#000000" d="M233.52,21.296v-0.025c0-2.514,1.882-4.574,4.561-4.574c1.365,0,2.262,0.404,3.032,0.998
		c0.165,0.126,0.304,0.341,0.304,0.619c0,0.43-0.341,0.758-0.771,0.758c-0.215,0-0.366-0.076-0.467-0.151
		c-0.606-0.493-1.264-0.796-2.11-0.796c-1.681,0-2.918,1.39-2.918,3.121v0.025c0,1.731,1.225,3.133,2.918,3.133
		c0.935,0,1.566-0.303,2.211-0.847c0.114-0.101,0.278-0.177,0.467-0.177c0.392,0,0.733,0.329,0.733,0.72
		c0,0.24-0.114,0.429-0.253,0.556c-0.833,0.733-1.781,1.188-3.209,1.188C235.44,25.845,233.52,23.835,233.52,21.296z"/>
	<path fill="#000000" d="M245.82,17.557c0-0.43,0.341-0.771,0.783-0.771c0.43,0,0.771,0.341,0.771,0.771v2.969h4.22v-2.969
		c0-0.43,0.341-0.771,0.771-0.771c0.442,0,0.783,0.341,0.783,0.771v7.429c0,0.43-0.341,0.771-0.783,0.771
		c-0.43,0-0.771-0.341-0.771-0.771v-3.02h-4.22v3.02c0,0.43-0.341,0.771-0.771,0.771c-0.442,0-0.783-0.341-0.783-0.771V17.557z"/>
	<path fill="#000000" d="M258.081,24.91v-7.277c0-0.442,0.341-0.784,0.783-0.784h5.142c0.379,0,0.695,0.316,0.695,0.695
		c0,0.392-0.316,0.695-0.695,0.695h-4.372v2.299h3.803c0.379,0,0.695,0.316,0.695,0.708c0,0.379-0.316,0.682-0.695,0.682h-3.803
		v2.375h4.435c0.379,0,0.695,0.316,0.695,0.695c0,0.392-0.316,0.695-0.695,0.695h-5.205
		C258.422,25.693,258.081,25.351,258.081,24.91z"/>
	<path fill="#000000" d="M271.764,25.187l-3.095-7.277c-0.05-0.114-0.088-0.228-0.088-0.366c0-0.417,0.341-0.758,0.783-0.758
		c0.404,0,0.67,0.228,0.796,0.556l2.552,6.38l2.59-6.431c0.101-0.265,0.379-0.505,0.746-0.505c0.43,0,0.771,0.329,0.771,0.746
		c0,0.114-0.038,0.24-0.076,0.328l-3.108,7.328c-0.164,0.392-0.455,0.632-0.897,0.632h-0.088
		C272.219,25.819,271.928,25.579,271.764,25.187z"/>
</g>
<g>
	<g>
		<path fill="#000000" d="M210.549,0.788c0-0.429,0.341-0.771,0.783-0.771c0.43,0,0.771,0.341,0.771,0.771V7.51h4.005
			c0.392,0,0.708,0.316,0.708,0.708c0,0.392-0.316,0.708-0.708,0.708h-4.776c-0.442,0-0.783-0.341-0.783-0.783V0.788z"/>
		<path fill="#000000" d="M221.204,5.489l-3.045-4.182c-0.101-0.151-0.177-0.328-0.177-0.543c0-0.417,0.341-0.746,0.783-0.746
			c0.341,0,0.569,0.189,0.758,0.468l2.463,3.55l2.502-3.562c0.189-0.278,0.417-0.468,0.745-0.468c0.455,0,0.758,0.341,0.758,0.758
			c0,0.215-0.101,0.404-0.215,0.556l-3.02,4.131v2.767c0,0.43-0.341,0.771-0.784,0.771c-0.429,0-0.771-0.341-0.771-0.771V5.489z"/>
		<path fill="#000000" d="M229.063,5.173V0.788c0-0.429,0.341-0.771,0.783-0.771c0.43,0,0.771,0.341,0.771,0.771V5.11
			c0,1.643,0.846,2.514,2.236,2.514c1.377,0,2.224-0.821,2.224-2.451V0.788c0-0.429,0.341-0.771,0.783-0.771
			c0.43,0,0.771,0.341,0.771,0.771v4.309c0,2.641-1.491,3.967-3.803,3.967C230.528,9.064,229.063,7.738,229.063,5.173z"/>
		<path fill="#000000" d="M240.571,0.865c0-0.442,0.341-0.783,0.783-0.783h2.514c2.78,0,4.7,1.908,4.7,4.396v0.025
			c0,2.489-1.92,4.422-4.7,4.422h-2.514c-0.442,0-0.783-0.341-0.783-0.783V0.865z M243.869,7.51c1.857,0,3.07-1.251,3.07-2.981
			V4.503c0-1.731-1.213-3.007-3.07-3.007h-1.744V7.51H243.869z"/>
		<path fill="#000000" d="M252.124,0.814c0-0.43,0.341-0.783,0.783-0.783h0.164c0.341,0,0.569,0.177,0.72,0.417l2.679,4.194
			l2.691-4.207c0.165-0.265,0.392-0.404,0.708-0.404h0.164c0.442,0,0.784,0.354,0.784,0.783v7.404c0,0.43-0.341,0.771-0.784,0.771
			c-0.417,0-0.771-0.354-0.771-0.771V2.912l-2.16,3.247c-0.165,0.253-0.367,0.404-0.657,0.404c-0.278,0-0.48-0.151-0.645-0.404
			l-2.147-3.222V8.23c0,0.43-0.341,0.758-0.771,0.758c-0.429,0-0.758-0.328-0.758-0.758V0.814z"/>
		<path fill="#000000" d="M264.916,0.788c0-0.429,0.341-0.771,0.783-0.771c0.43,0,0.771,0.341,0.771,0.771v7.429
			c0,0.43-0.341,0.771-0.771,0.771c-0.442,0-0.783-0.341-0.783-0.771V0.788z"/>
		<path fill="#000000" d="M270.541,0.788c0-0.429,0.341-0.771,0.783-0.771c0.43,0,0.771,0.341,0.771,0.771V7.51h4.005
			c0.392,0,0.708,0.316,0.708,0.708c0,0.392-0.316,0.708-0.708,0.708h-4.776c-0.442,0-0.783-0.341-0.783-0.783V0.788z"/>
	</g>
</g>
<path fill="#FF1D25" d="M0.936,23.145C0.432,22.713,0,21.957,0,21.165c0-1.439,1.224-2.664,2.664-2.664c0.792,0,1.332,0.324,1.764,0.685
	c1.44,1.224,2.952,1.871,4.932,1.871c2.088,0,3.563-1.188,3.563-3.06v-0.071c0-2.052-1.836-3.204-4.931-3.204H7.127
	c-1.295,0-2.375-1.08-2.375-2.375c0-0.757,0.324-1.404,1.188-2.269l4.895-4.931H3.096c-1.296,0-2.376-1.08-2.376-2.376
	S1.8,0.395,3.096,0.395H15.37c1.62,0,2.808,0.937,2.808,2.448c0,1.367-0.648,2.123-1.656,3.096l-4.931,4.715
	c3.419,0.576,6.767,2.376,6.767,7.056v0.071c0,4.752-3.456,8.243-9.071,8.243C5.688,26.024,2.988,24.908,0.936,23.145z"/>
<path fill="#CCCCCC" d="M51.36,15.406h-4.248c-1.368,0-2.483-1.116-2.483-2.484c0-1.367,1.116-2.483,2.483-2.483h4.248v-4.14
	c0-1.403,1.152-2.556,2.556-2.556s2.556,1.152,2.556,2.556v4.14h4.248c1.368,0,2.483,1.116,2.483,2.483
	c0,1.368-1.116,2.484-2.483,2.484h-4.248v4.139c0,1.404-1.152,2.556-2.556,2.556s-2.556-1.151-2.556-2.556V15.406z"/>
<path fill="#FF1D25" d="M94.294,5.651L92.35,6.155c-0.288,0.071-0.684,0.144-0.972,0.144c-1.296,0-2.412-1.08-2.412-2.376
	c0-1.115,0.72-2.052,1.835-2.375l3.563-1.044c1.044-0.288,1.836-0.468,2.592-0.468h0.072c1.512,0,2.735,1.224,2.735,2.735v20.302
	c0,1.512-1.224,2.735-2.735,2.735c-1.512,0-2.736-1.224-2.736-2.735V5.651z"/>
<path fill="#CCCCCC" d="M125.74,8.243c0-1.368,1.116-2.484,2.484-2.484h13.246c1.368,0,2.484,1.116,2.484,2.484
	c0,1.367-1.116,2.483-2.484,2.483h-13.246C126.856,10.727,125.74,9.61,125.74,8.243z M125.74,17.602
	c0-1.368,1.116-2.483,2.484-2.483h13.246c1.368,0,2.484,1.115,2.484,2.483s-1.116,2.483-2.484,2.483h-13.246
	C126.856,20.085,125.74,18.97,125.74,17.602z"/>
<path fill="#FF1D25" d="M182.844,20.157h-10.367c-1.476,0-2.7-1.08-2.7-2.556c0-1.152,0.468-2.052,1.296-3.023l10.943-12.707
	C183.06,0.647,183.852,0,185.472,0c1.476,0,2.664,1.151,2.664,2.627v13.031h1.332c1.26,0,2.268,1.008,2.268,2.268
	s-1.008,2.231-2.268,2.231h-1.332v3.023c0,1.476-1.188,2.628-2.664,2.628c-1.476,0-2.628-1.152-2.628-2.628V20.157z M182.844,15.658
	V7.811l-6.695,7.848H182.844z"/>
</svg>
