<svg height="48.533" viewBox="0 0 110.079 48.533" width="110.079" xmlns="http://www.w3.org/2000/svg"><g fill="#fff"><path d="m282.481 586.757h-5.82v17.464h-4.728v-17.464h-6.075v-4.387h16.623z" transform="translate(-253.115 -581.419)"/><path d="m319.916 582.37v21.851h-4.728v-9.036h-8.224v9.036h-4.727v-21.851h4.727v8.417h8.224v-8.417z" transform="translate(-270.521 -581.419)"/><path d="m340.014 592.857a11.638 11.638 0 1 1 11.66 11.4 11.276 11.276 0 0 1 -11.66-11.4zm18.48 0a6.846 6.846 0 1 0 -6.82 6.941 6.722 6.722 0 0 0 6.82-6.941z" transform="translate(-288.596 -580.981)"/><path d="m387.328 596.765h4.765c0 2.112 1.745 3.131 3.677 3.131 1.779 0 3.519-.94 3.519-2.569 0-1.694-1.992-2.159-4.362-2.712-3.3-.812-7.3-1.768-7.3-6.476 0-4.192 3.088-6.553 7.926-6.553 5.023 0 7.878 2.682 7.878 7.035h-4.671c0-1.882-1.553-2.764-3.32-2.764-1.533 0-3.085.649-3.085 2.08 0 1.538 1.9 2 4.211 2.557 3.331.843 7.514 1.881 7.514 6.777 0 4.719-3.76 7.009-8.284 7.009-5.012 0-8.468-2.818-8.468-7.515z" transform="translate(-311.234 -581.044)"/><path d="m437.508 599.822v4.4h-13.462v-21.852h13.119v4.367h-8.392v4.317h7.58v4.279h-7.58v4.489z" transform="translate(-328.802 -581.419)"/><path d="m258.047 635.177h-5.82v17.464h-4.727v-17.464h-6.076v-4.387h16.623z" transform="translate(-241.424 -604.587)"/><path d="m295.482 630.79v21.851h-4.728v-9.041h-8.224v9.036h-4.73v-21.846h4.728v8.417h8.224v-8.417z" transform="translate(-258.83 -604.587)"/><path d="m318.353 630.79h4.727v21.851h-4.727z" transform="translate(-278.232 -604.587)"/><path d="m352.876 630.79v21.851h-3.953l-9.9-13.656v13.656h-4.64v-21.851h4.268l9.581 13.327v-13.327z" transform="translate(-285.904 -604.587)"/><path d="m396.394 640.8c-.023 6.847-4.6 11.887-11.161 11.887a11.4 11.4 0 1 1 -.088-22.8c5.429 0 9.937 3.436 10.956 8.324h-4.873a6.254 6.254 0 0 0 -6-3.811c-3.871 0-6.527 2.826-6.527 6.91 0 4.044 2.588 6.865 6.527 6.865a6.262 6.262 0 0 0 6.082-3.749h-6.55v-3.626z" transform="translate(-304.817 -604.154)"/><path d="m420.365 645.185h4.765c0 2.112 1.745 3.131 3.677 3.131 1.78 0 3.519-.94 3.519-2.569 0-1.7-1.992-2.16-4.362-2.713-3.294-.812-7.3-1.768-7.3-6.476 0-4.192 3.087-6.553 7.926-6.553 5.023 0 7.878 2.682 7.878 7.035h-4.668c0-1.882-1.553-2.764-3.32-2.764-1.532 0-3.085.65-3.085 2.08 0 1.538 1.9 2 4.212 2.557 3.331.843 7.514 1.881 7.514 6.777 0 4.719-3.76 7.009-8.284 7.009-5.016.001-8.472-2.817-8.472-7.514z" transform="translate(-327.042 -604.211)"/></g></svg>